<?xml version="1.0" encoding="utf-8" standalone="no"?>
<!DOCTYPE svg PUBLIC "-//W3C//DTD SVG 1.1//EN"
  "http://www.w3.org/Graphics/SVG/1.1/DTD/svg11.dtd">
<svg xmlns:xlink="http://www.w3.org/1999/xlink" width="647.310938pt" height="505.093437pt" viewBox="0 0 647.310938 505.093437" xmlns="http://www.w3.org/2000/svg" version="1.1">
 <metadata>
  <rdf:RDF xmlns:dc="http://purl.org/dc/elements/1.1/" xmlns:cc="http://creativecommons.org/ns#" xmlns:rdf="http://www.w3.org/1999/02/22-rdf-syntax-ns#">
   <cc:Work>
    <dc:type rdf:resource="http://purl.org/dc/dcmitype/StillImage"/>
    <dc:date>2026-04-11T13:40:04.105973</dc:date>
    <dc:format>image/svg+xml</dc:format>
    <dc:creator>
     <cc:Agent>
      <dc:title>Matplotlib v3.10.7, https://matplotlib.org/</dc:title>
     </cc:Agent>
    </dc:creator>
   </cc:Work>
  </rdf:RDF>
 </metadata>
 <defs>
  <style type="text/css">*{stroke-linejoin: round; stroke-linecap: butt}</style>
 </defs>
 <g id="figure_1">
  <g id="patch_1">
   <path d="M 0 505.093437 
L 647.310938 505.093437 
L 647.310938 0 
L 0 0 
z
" style="fill: #fafaf9"/>
  </g>
  <g id="axes_1">
   <g id="patch_2">
    <path d="M 67.710938 416.034844 
L 625.710938 416.034844 
L 625.710938 48.114844 
L 67.710938 48.114844 
z
" style="fill: #fafaf9"/>
   </g>
   <g id="matplotlib.axis_1">
    <g id="xtick_1">
     <g id="line2d_1">
      <path d="M 139.660845 416.034844 
L 139.660845 48.114844 
" clip-path="url(#p07ee9f4bd3)" style="fill: none; stroke: #e7e5e4; stroke-opacity: 0.7; stroke-width: 0.4; stroke-linecap: square"/>
     </g>
     <g id="line2d_2"/>
     <g id="text_1">
      <!-- Surprime CatNat -->
      <g style="fill: #78716c" transform="translate(96.531392 427.800313) scale(0.11 -0.11)">
       <defs>
        <path id="Inter-Regular-53" d="M 2053 -81 
Q 1297 -81 850 276 
Q 403 634 363 1219 
L 972 1219 
Q 997 956 1150 786 
Q 1303 616 1542 533 
Q 1781 450 2053 450 
Q 2369 450 2620 553 
Q 2872 656 3019 843 
Q 3166 1031 3166 1278 
Q 3166 1503 3039 1643 
Q 2913 1784 2703 1875 
Q 2494 1966 2244 2034 
L 1681 2194 
Q 1119 2353 806 2650 
Q 494 2947 494 3409 
Q 494 3803 706 4098 
Q 919 4394 1281 4556 
Q 1644 4719 2094 4719 
Q 2553 4719 2906 4556 
Q 3259 4394 3464 4114 
Q 3669 3834 3681 3481 
L 3100 3481 
Q 3059 3822 2775 4008 
Q 2491 4194 2075 4194 
Q 1622 4194 1347 3980 
Q 1072 3766 1072 3438 
Q 1072 3194 1223 3045 
Q 1375 2897 1583 2814 
Q 1791 2731 1959 2684 
L 2425 2556 
Q 2613 2506 2839 2418 
Q 3066 2331 3272 2186 
Q 3478 2041 3611 1817 
Q 3744 1594 3744 1269 
Q 3744 888 3545 581 
Q 3347 275 2969 97 
Q 2591 -81 2053 -81 
z
" transform="scale(0.015625)"/>
        <path id="Inter-Regular-75" d="M 1678 -44 
Q 1150 -44 822 284 
Q 494 613 494 1275 
L 494 3494 
L 1056 3494 
L 1056 1322 
Q 1056 919 1268 691 
Q 1481 463 1847 463 
Q 2222 463 2473 708 
Q 2725 953 2725 1400 
L 2725 3494 
L 3291 3494 
L 3291 0 
L 2747 0 
L 2747 653 
Q 2575 272 2298 114 
Q 2022 -44 1678 -44 
z
" transform="scale(0.015625)"/>
        <path id="Inter-Regular-72" d="M 494 0 
L 494 3494 
L 1038 3494 
L 1038 2956 
L 1075 2956 
Q 1172 3222 1420 3383 
Q 1669 3544 1981 3544 
Q 2044 3544 2130 3541 
Q 2216 3538 2266 3534 
L 2266 2969 
Q 2241 2975 2141 2987 
Q 2041 3000 1928 3000 
Q 1550 3000 1303 2770 
Q 1056 2541 1056 2188 
L 1056 0 
L 494 0 
z
" transform="scale(0.015625)"/>
        <path id="Inter-Regular-70" d="M 494 -1306 
L 494 3494 
L 1038 3494 
L 1038 2934 
L 1100 2934 
Q 1159 3028 1265 3170 
Q 1372 3313 1572 3425 
Q 1772 3538 2113 3538 
Q 2550 3538 2883 3319 
Q 3216 3100 3405 2695 
Q 3594 2291 3594 1738 
Q 3594 1181 3406 775 
Q 3219 369 2886 147 
Q 2553 -75 2116 -75 
Q 1784 -75 1581 39 
Q 1378 153 1268 298 
Q 1159 444 1100 541 
L 1056 541 
L 1056 -1306 
L 494 -1306 
z
M 2031 428 
Q 2359 428 2579 604 
Q 2800 781 2911 1079 
Q 3022 1378 3022 1744 
Q 3022 2106 2912 2398 
Q 2803 2691 2583 2862 
Q 2363 3034 2031 3034 
Q 1550 3034 1300 2678 
Q 1050 2322 1050 1744 
Q 1050 1159 1303 793 
Q 1556 428 2031 428 
z
" transform="scale(0.015625)"/>
        <path id="Inter-Regular-69" d="M 494 0 
L 494 3494 
L 1056 3494 
L 1056 0 
L 494 0 
z
M 780 4066 
Q 621 4066 505 4175 
Q 389 4284 389 4438 
Q 389 4594 505 4701 
Q 621 4809 780 4809 
Q 942 4809 1058 4701 
Q 1174 4594 1174 4438 
Q 1174 4284 1058 4175 
Q 942 4066 780 4066 
z
" transform="scale(0.015625)"/>
        <path id="Inter-Regular-6d" d="M 494 0 
L 494 3494 
L 1041 3494 
L 1044 2853 
Q 1172 3206 1442 3381 
Q 1713 3556 2022 3556 
Q 2366 3556 2592 3361 
Q 2819 3166 2913 2844 
Q 3038 3175 3336 3365 
Q 3634 3556 4013 3556 
Q 4316 3556 4566 3425 
Q 4816 3294 4964 3028 
Q 5113 2763 5113 2356 
L 5113 0 
L 4550 0 
L 4550 2341 
Q 4550 2719 4337 2881 
Q 4125 3044 3844 3044 
Q 3491 3044 3287 2828 
Q 3084 2613 3084 2281 
L 3084 0 
L 2522 0 
L 2522 2397 
Q 2522 2688 2328 2866 
Q 2134 3044 1838 3044 
Q 1531 3044 1293 2831 
Q 1056 2619 1056 2200 
L 1056 0 
L 494 0 
z
" transform="scale(0.015625)"/>
        <path id="Inter-Regular-65" d="M 1963 -75 
Q 1456 -75 1089 150 
Q 722 375 523 778 
Q 325 1181 325 1719 
Q 325 2256 519 2665 
Q 713 3075 1067 3306 
Q 1422 3538 1897 3538 
Q 2175 3538 2445 3445 
Q 2716 3353 2936 3148 
Q 3156 2944 3287 2609 
Q 3419 2275 3419 1791 
L 3419 1556 
L 894 1556 
Q 916 1009 1208 717 
Q 1500 425 1966 425 
Q 2275 425 2498 561 
Q 2722 697 2819 963 
L 3363 813 
Q 3241 416 2870 170 
Q 2500 -75 1963 -75 
z
M 897 2031 
L 2847 2031 
Q 2806 2478 2567 2758 
Q 2328 3038 1897 3038 
Q 1597 3038 1380 2897 
Q 1163 2756 1038 2528 
Q 913 2300 897 2031 
z
" transform="scale(0.015625)"/>
        <path id="Inter-Regular-20" transform="scale(0.015625)"/>
        <path id="Inter-Regular-43" d="M 2447 -63 
Q 1850 -63 1383 226 
Q 916 516 648 1052 
Q 381 1588 381 2325 
Q 381 3066 648 3602 
Q 916 4138 1383 4428 
Q 1850 4719 2447 4719 
Q 2919 4719 3314 4536 
Q 3709 4353 3976 4012 
Q 4244 3672 4325 3191 
L 3731 3191 
Q 3666 3509 3477 3728 
Q 3288 3947 3019 4058 
Q 2750 4169 2447 4169 
Q 2028 4169 1690 3956 
Q 1353 3744 1156 3333 
Q 959 2922 959 2325 
Q 959 1731 1157 1320 
Q 1356 909 1693 698 
Q 2031 488 2447 488 
Q 2753 488 3020 600 
Q 3288 713 3477 931 
Q 3666 1150 3731 1466 
L 4325 1466 
Q 4244 994 3980 650 
Q 3716 306 3320 121 
Q 2925 -63 2447 -63 
z
" transform="scale(0.015625)"/>
        <path id="Inter-Regular-61" d="M 1472 -81 
Q 1141 -81 870 44 
Q 600 169 440 409 
Q 281 650 281 994 
Q 281 1294 400 1481 
Q 519 1669 717 1776 
Q 916 1884 1156 1937 
Q 1397 1991 1641 2022 
Q 1953 2063 2150 2084 
Q 2347 2106 2442 2159 
Q 2538 2213 2538 2341 
L 2538 2359 
Q 2538 2684 2353 2864 
Q 2169 3044 1806 3044 
Q 1428 3044 1215 2880 
Q 1003 2716 922 2531 
L 381 2709 
Q 516 3028 744 3208 
Q 972 3388 1247 3463 
Q 1522 3538 1791 3538 
Q 1966 3538 2189 3495 
Q 2413 3453 2620 3328 
Q 2828 3203 2964 2958 
Q 3100 2713 3100 2303 
L 3100 0 
L 2547 0 
L 2547 475 
L 2509 475 
Q 2450 353 2319 223 
Q 2188 94 1978 6 
Q 1769 -81 1472 -81 
z
M 1569 416 
Q 1881 416 2097 537 
Q 2313 659 2425 854 
Q 2538 1050 2538 1263 
L 2538 1747 
Q 2503 1706 2387 1673 
Q 2272 1641 2123 1616 
Q 1975 1591 1836 1573 
Q 1697 1556 1616 1547 
Q 1413 1522 1236 1461 
Q 1059 1400 953 1283 
Q 847 1166 847 966 
Q 847 694 1051 555 
Q 1256 416 1569 416 
z
" transform="scale(0.015625)"/>
        <path id="Inter-Regular-74" d="M 1869 3494 
L 1869 3013 
L 1150 3013 
L 1150 906 
Q 1150 672 1245 564 
Q 1341 456 1563 456 
Q 1616 456 1698 468 
Q 1781 481 1850 494 
L 1966 19 
Q 1878 -13 1767 -28 
Q 1656 -44 1547 -44 
Q 1094 -44 841 195 
Q 588 434 588 863 
L 588 3013 
L 63 3013 
L 63 3494 
L 588 3494 
L 588 4325 
L 1150 4325 
L 1150 3494 
L 1869 3494 
z
" transform="scale(0.015625)"/>
        <path id="Inter-Regular-4e" d="M 563 0 
L 563 4656 
L 1263 4656 
L 3156 1678 
Q 3250 1528 3398 1273 
Q 3547 1019 3706 703 
Q 3678 1041 3672 1327 
Q 3666 1613 3666 1800 
L 3666 4656 
L 4259 4656 
L 4259 0 
L 3553 0 
L 1866 2650 
Q 1759 2816 1654 2991 
Q 1550 3166 1422 3394 
Q 1294 3622 1113 3944 
Q 1131 3497 1145 3161 
Q 1159 2825 1159 2656 
L 1159 0 
L 563 0 
z
" transform="scale(0.015625)"/>
       </defs>
       <use xlink:href="#Inter-Regular-53"/>
       <use xlink:href="#Inter-Regular-75" transform="translate(64.160156 0)"/>
       <use xlink:href="#Inter-Regular-72" transform="translate(123.291016 0)"/>
       <use xlink:href="#Inter-Regular-70" transform="translate(160.9375 0)"/>
       <use xlink:href="#Inter-Regular-72" transform="translate(222.167969 0)"/>
       <use xlink:href="#Inter-Regular-69" transform="translate(259.814453 0)"/>
       <use xlink:href="#Inter-Regular-6d" transform="translate(284.033203 0)"/>
       <use xlink:href="#Inter-Regular-65" transform="translate(371.630859 0)"/>
       <use xlink:href="#Inter-Regular-20" transform="translate(429.931641 0)"/>
       <use xlink:href="#Inter-Regular-43" transform="translate(458.056641 0)"/>
       <use xlink:href="#Inter-Regular-61" transform="translate(531.103516 0)"/>
       <use xlink:href="#Inter-Regular-74" transform="translate(587.255859 0)"/>
       <use xlink:href="#Inter-Regular-4e" transform="translate(619.970703 0)"/>
       <use xlink:href="#Inter-Regular-61" transform="translate(695.3125 0)"/>
       <use xlink:href="#Inter-Regular-74" transform="translate(751.464844 0)"/>
      </g>
      <!-- collectée par an -->
      <g style="fill: #78716c" transform="translate(98.037876 440.087312) scale(0.11 -0.11)">
       <defs>
        <path id="Inter-Regular-63" d="M 1916 -75 
Q 1441 -75 1083 150 
Q 725 375 525 781 
Q 325 1188 325 1725 
Q 325 2272 525 2680 
Q 725 3088 1083 3313 
Q 1441 3538 1916 3538 
Q 2422 3538 2805 3283 
Q 3188 3028 3331 2572 
L 2791 2419 
Q 2713 2688 2486 2861 
Q 2259 3034 1916 3034 
Q 1566 3034 1341 2851 
Q 1116 2669 1006 2372 
Q 897 2075 897 1725 
Q 897 1381 1006 1086 
Q 1116 791 1341 609 
Q 1566 428 1916 428 
Q 2269 428 2498 608 
Q 2728 788 2806 1072 
L 3344 919 
Q 3203 453 2815 189 
Q 2428 -75 1916 -75 
z
" transform="scale(0.015625)"/>
        <path id="Inter-Regular-6f" d="M 1916 -75 
Q 1441 -75 1083 150 
Q 725 375 525 781 
Q 325 1188 325 1725 
Q 325 2272 525 2680 
Q 725 3088 1083 3313 
Q 1441 3538 1916 3538 
Q 2394 3538 2753 3313 
Q 3113 3088 3313 2680 
Q 3513 2272 3513 1725 
Q 3513 1188 3313 781 
Q 3113 375 2753 150 
Q 2394 -75 1916 -75 
z
M 1916 428 
Q 2269 428 2497 609 
Q 2725 791 2834 1086 
Q 2944 1381 2944 1725 
Q 2944 2072 2834 2370 
Q 2725 2669 2497 2851 
Q 2269 3034 1916 3034 
Q 1566 3034 1341 2851 
Q 1116 2669 1006 2372 
Q 897 2075 897 1725 
Q 897 1381 1006 1086 
Q 1116 791 1341 609 
Q 1566 428 1916 428 
z
" transform="scale(0.015625)"/>
        <path id="Inter-Regular-6c" d="M 1056 4656 
L 1056 0 
L 494 0 
L 494 4656 
L 1056 4656 
z
" transform="scale(0.015625)"/>
        <path id="Inter-Regular-e9" d="M 1963 -75 
Q 1456 -75 1089 150 
Q 722 375 523 778 
Q 325 1181 325 1719 
Q 325 2256 519 2665 
Q 713 3075 1067 3306 
Q 1422 3538 1897 3538 
Q 2175 3538 2445 3445 
Q 2716 3353 2936 3148 
Q 3156 2944 3287 2609 
Q 3419 2275 3419 1791 
L 3419 1556 
L 894 1556 
Q 916 1009 1208 717 
Q 1500 425 1966 425 
Q 2275 425 2498 561 
Q 2722 697 2819 963 
L 3363 813 
Q 3241 416 2870 170 
Q 2500 -75 1963 -75 
z
M 897 2031 
L 2847 2031 
Q 2806 2478 2567 2758 
Q 2328 3038 1897 3038 
Q 1597 3038 1380 2897 
Q 1163 2756 1038 2528 
Q 913 2300 897 2031 
z
M 1637 3950 
L 2075 4869 
L 2703 4869 
L 2096 3950 
L 1637 3950 
z
" transform="scale(0.015625)"/>
        <path id="Inter-Regular-6e" d="M 1056 2094 
L 1056 0 
L 494 0 
L 494 3494 
L 1034 3494 
L 1038 2847 
Q 1206 3219 1479 3378 
Q 1753 3538 2106 3538 
Q 2638 3538 2963 3209 
Q 3288 2881 3288 2219 
L 3288 0 
L 2725 0 
L 2725 2172 
Q 2725 2575 2514 2803 
Q 2303 3031 1938 3031 
Q 1559 3031 1307 2786 
Q 1056 2541 1056 2094 
z
" transform="scale(0.015625)"/>
       </defs>
       <use xlink:href="#Inter-Regular-63"/>
       <use xlink:href="#Inter-Regular-6f" transform="translate(57.128906 0)"/>
       <use xlink:href="#Inter-Regular-6c" transform="translate(117.089844 0)"/>
       <use xlink:href="#Inter-Regular-6c" transform="translate(141.308594 0)"/>
       <use xlink:href="#Inter-Regular-65" transform="translate(165.527344 0)"/>
       <use xlink:href="#Inter-Regular-63" transform="translate(223.828125 0)"/>
       <use xlink:href="#Inter-Regular-74" transform="translate(280.957031 0)"/>
       <use xlink:href="#Inter-Regular-e9" transform="translate(313.671875 0)"/>
       <use xlink:href="#Inter-Regular-65" transform="translate(371.972656 0)"/>
       <use xlink:href="#Inter-Regular-20" transform="translate(430.273438 0)"/>
       <use xlink:href="#Inter-Regular-70" transform="translate(458.398438 0)"/>
       <use xlink:href="#Inter-Regular-61" transform="translate(519.628906 0)"/>
       <use xlink:href="#Inter-Regular-72" transform="translate(575.78125 0)"/>
       <use xlink:href="#Inter-Regular-20" transform="translate(613.427734 0)"/>
       <use xlink:href="#Inter-Regular-61" transform="translate(641.552734 0)"/>
       <use xlink:href="#Inter-Regular-6e" transform="translate(697.705078 0)"/>
      </g>
     </g>
    </g>
    <g id="xtick_2">
     <g id="line2d_3">
      <path d="M 346.710938 416.034844 
L 346.710938 48.114844 
" clip-path="url(#p07ee9f4bd3)" style="fill: none; stroke: #e7e5e4; stroke-opacity: 0.7; stroke-width: 0.4; stroke-linecap: square"/>
     </g>
     <g id="line2d_4"/>
     <g id="text_2">
      <!-- Coût sinistres RGA -->
      <g style="fill: #78716c" transform="translate(298.113281 427.537344) scale(0.11 -0.11)">
       <defs>
        <path id="Inter-Regular-fb" d="M 1678 -44 
Q 1150 -44 822 284 
Q 494 613 494 1275 
L 494 3494 
L 1056 3494 
L 1056 1322 
Q 1056 919 1268 691 
Q 1481 463 1847 463 
Q 2222 463 2473 708 
Q 2725 953 2725 1400 
L 2725 3494 
L 3291 3494 
L 3291 0 
L 2747 0 
L 2747 653 
Q 2575 272 2298 114 
Q 2022 -44 1678 -44 
z
M 1440 4006 
L 887 4006 
L 887 4034 
L 1621 4869 
L 2156 4869 
L 2893 4034 
L 2893 4006 
L 2334 4006 
L 1890 4553 
L 1440 4006 
z
" transform="scale(0.015625)"/>
        <path id="Inter-Regular-73" d="M 1681 -75 
Q 1144 -75 787 159 
Q 431 394 338 847 
L 872 975 
Q 947 688 1155 553 
Q 1363 419 1675 419 
Q 2041 419 2258 575 
Q 2475 731 2475 947 
Q 2475 1306 1963 1428 
L 1381 1566 
Q 444 1788 444 2519 
Q 444 2819 612 3048 
Q 781 3278 1073 3408 
Q 1366 3538 1738 3538 
Q 2278 3538 2576 3302 
Q 2875 3066 2994 2697 
L 2484 2566 
Q 2413 2753 2245 2906 
Q 2078 3059 1741 3059 
Q 1428 3059 1220 2915 
Q 1013 2772 1013 2553 
Q 1013 2359 1153 2242 
Q 1294 2125 1600 2053 
L 2128 1928 
Q 2603 1816 2831 1580 
Q 3059 1344 3059 984 
Q 3059 678 2886 439 
Q 2713 200 2402 62 
Q 2091 -75 1681 -75 
z
" transform="scale(0.015625)"/>
        <path id="Inter-Regular-52" d="M 563 0 
L 563 4656 
L 2156 4656 
Q 2700 4656 3051 4470 
Q 3403 4284 3573 3959 
Q 3744 3634 3744 3219 
Q 3744 2756 3533 2412 
Q 3322 2069 2881 1916 
L 3925 0 
L 3238 0 
L 2269 1809 
Q 2216 1806 2159 1806 
L 1156 1806 
L 1156 0 
L 563 0 
z
M 1156 2334 
L 2131 2334 
Q 2681 2334 2917 2571 
Q 3153 2809 3153 3219 
Q 3153 3634 2917 3884 
Q 2681 4134 2125 4134 
L 1156 4134 
L 1156 2334 
z
" transform="scale(0.015625)"/>
        <path id="Inter-Regular-47" d="M 2466 -63 
Q 1844 -63 1375 228 
Q 906 519 643 1055 
Q 381 1591 381 2325 
Q 381 3066 643 3602 
Q 906 4138 1368 4428 
Q 1831 4719 2428 4719 
Q 2922 4719 3323 4526 
Q 3725 4334 3990 3992 
Q 4256 3650 4341 3197 
L 3728 3197 
Q 3584 3644 3254 3906 
Q 2925 4169 2431 4169 
Q 2022 4169 1687 3958 
Q 1353 3747 1156 3336 
Q 959 2925 959 2325 
Q 959 1731 1157 1322 
Q 1356 913 1697 700 
Q 2038 488 2466 488 
Q 2853 488 3150 650 
Q 3447 813 3617 1113 
Q 3788 1413 3794 1822 
L 2588 1822 
L 2588 2341 
L 4375 2341 
L 4375 1831 
Q 4375 1253 4128 828 
Q 3881 403 3451 170 
Q 3022 -63 2466 -63 
z
" transform="scale(0.015625)"/>
        <path id="Inter-Regular-41" d="M 163 0 
L 1853 4656 
L 2541 4656 
L 4253 0 
L 3628 0 
L 3163 1300 
L 1244 1300 
L 794 0 
L 163 0 
z
M 1425 1819 
L 2978 1819 
L 2641 2763 
Q 2556 2997 2450 3336 
Q 2344 3675 2194 4181 
Q 2047 3666 1937 3322 
Q 1828 2978 1753 2763 
L 1425 1819 
z
" transform="scale(0.015625)"/>
       </defs>
       <use xlink:href="#Inter-Regular-43"/>
       <use xlink:href="#Inter-Regular-6f" transform="translate(73.046875 0)"/>
       <use xlink:href="#Inter-Regular-fb" transform="translate(133.007812 0)"/>
       <use xlink:href="#Inter-Regular-74" transform="translate(192.138672 0)"/>
       <use xlink:href="#Inter-Regular-20" transform="translate(224.853516 0)"/>
       <use xlink:href="#Inter-Regular-73" transform="translate(252.978516 0)"/>
       <use xlink:href="#Inter-Regular-69" transform="translate(305.761719 0)"/>
       <use xlink:href="#Inter-Regular-6e" transform="translate(329.980469 0)"/>
       <use xlink:href="#Inter-Regular-69" transform="translate(389.0625 0)"/>
       <use xlink:href="#Inter-Regular-73" transform="translate(413.28125 0)"/>
       <use xlink:href="#Inter-Regular-74" transform="translate(466.064453 0)"/>
       <use xlink:href="#Inter-Regular-72" transform="translate(498.779297 0)"/>
       <use xlink:href="#Inter-Regular-65" transform="translate(536.425781 0)"/>
       <use xlink:href="#Inter-Regular-73" transform="translate(594.726562 0)"/>
       <use xlink:href="#Inter-Regular-20" transform="translate(647.509766 0)"/>
       <use xlink:href="#Inter-Regular-52" transform="translate(675.634766 0)"/>
       <use xlink:href="#Inter-Regular-47" transform="translate(739.990234 0)"/>
       <use xlink:href="#Inter-Regular-41" transform="translate(814.599609 0)"/>
      </g>
      <!-- par an (2018-2022) -->
      <g style="fill: #78716c" transform="translate(296.214922 439.972844) scale(0.11 -0.11)">
       <defs>
        <path id="Inter-Regular-28" d="M 681 1897 
Q 681 2406 786 2964 
Q 891 3522 1072 4039 
Q 1253 4556 1488 4941 
L 2034 4941 
Q 1794 4450 1617 3919 
Q 1441 3388 1347 2870 
Q 1253 2353 1253 1897 
Q 1253 1275 1442 617 
Q 1631 -41 2034 -872 
L 1488 -872 
Q 1091 -194 886 509 
Q 681 1213 681 1897 
z
" transform="scale(0.015625)"/>
        <path id="Inter-Regular-32" d="M 481 0 
L 481 428 
L 2028 2106 
Q 2288 2388 2459 2600 
Q 2631 2813 2718 3005 
Q 2806 3197 2806 3413 
Q 2806 3778 2554 3990 
Q 2303 4203 1931 4203 
Q 1534 4203 1298 3965 
Q 1063 3728 1063 3334 
L 494 3334 
Q 494 3747 684 4059 
Q 875 4372 1203 4545 
Q 1531 4719 1947 4719 
Q 2363 4719 2683 4545 
Q 3003 4372 3186 4078 
Q 3369 3784 3369 3419 
Q 3369 3166 3278 2927 
Q 3188 2688 2959 2384 
Q 2731 2081 2319 1644 
L 1300 559 
L 1300 522 
L 3447 522 
L 3447 0 
L 481 0 
z
" transform="scale(0.015625)"/>
        <path id="Inter-Regular-30" d="M 2019 -63 
Q 1241 -63 811 562 
Q 381 1188 381 2325 
Q 381 3456 814 4087 
Q 1247 4719 2019 4719 
Q 2794 4719 3225 4087 
Q 3656 3456 3656 2325 
Q 3656 1188 3228 562 
Q 2800 -63 2019 -63 
z
M 2019 456 
Q 2531 456 2807 948 
Q 3084 1441 3084 2325 
Q 3084 3216 2807 3709 
Q 2531 4203 2019 4203 
Q 1509 4203 1231 3708 
Q 953 3213 953 2325 
Q 953 1441 1231 948 
Q 1509 456 2019 456 
z
" transform="scale(0.015625)"/>
        <path id="Inter-Regular-31" d="M 2041 4656 
L 2041 0 
L 1456 0 
L 1456 4106 
L 1425 4106 
L 300 3272 
L 300 3909 
L 1313 4656 
L 2041 4656 
z
" transform="scale(0.015625)"/>
        <path id="Inter-Regular-38" d="M 1978 -63 
Q 1506 -63 1145 104 
Q 784 272 582 565 
Q 381 859 381 1238 
Q 381 1531 500 1782 
Q 619 2034 825 2203 
Q 1031 2372 1291 2419 
L 1291 2444 
Q 950 2531 750 2822 
Q 550 3113 550 3481 
Q 550 3838 734 4117 
Q 919 4397 1241 4558 
Q 1563 4719 1978 4719 
Q 2388 4719 2709 4558 
Q 3031 4397 3217 4117 
Q 3403 3838 3403 3481 
Q 3403 3113 3201 2822 
Q 3000 2531 2669 2444 
L 2669 2419 
Q 2922 2372 3128 2203 
Q 3334 2034 3456 1782 
Q 3578 1531 3578 1238 
Q 3578 859 3373 565 
Q 3169 272 2808 104 
Q 2447 -63 1978 -63 
z
M 1978 453 
Q 2441 453 2712 676 
Q 2984 900 2984 1269 
Q 2984 1528 2853 1726 
Q 2722 1925 2494 2039 
Q 2266 2153 1978 2153 
Q 1538 2153 1252 1904 
Q 966 1656 966 1269 
Q 966 900 1236 676 
Q 1506 453 1978 453 
z
M 1978 2650 
Q 2347 2650 2587 2867 
Q 2828 3084 2828 3438 
Q 2828 3788 2593 3997 
Q 2359 4206 1978 4206 
Q 1591 4206 1358 3997 
Q 1125 3788 1125 3438 
Q 1125 3084 1362 2867 
Q 1600 2650 1978 2650 
z
" transform="scale(0.015625)"/>
        <path id="Inter-Regular-2d" d="M 2494 2247 
L 2494 1728 
L 450 1728 
L 450 2247 
L 2494 2247 
z
" transform="scale(0.015625)"/>
        <path id="Inter-Regular-29" d="M 300 -872 
Q 716 -16 898 639 
Q 1081 1294 1081 1897 
Q 1081 2353 987 2870 
Q 894 3388 719 3919 
Q 544 4450 300 4941 
L 847 4941 
Q 1081 4556 1264 4039 
Q 1447 3522 1550 2962 
Q 1653 2403 1653 1897 
Q 1653 1200 1445 497 
Q 1238 -206 847 -872 
L 300 -872 
z
" transform="scale(0.015625)"/>
       </defs>
       <use xlink:href="#Inter-Regular-70"/>
       <use xlink:href="#Inter-Regular-61" transform="translate(61.230469 0)"/>
       <use xlink:href="#Inter-Regular-72" transform="translate(117.382812 0)"/>
       <use xlink:href="#Inter-Regular-20" transform="translate(155.029297 0)"/>
       <use xlink:href="#Inter-Regular-61" transform="translate(183.154297 0)"/>
       <use xlink:href="#Inter-Regular-6e" transform="translate(239.306641 0)"/>
       <use xlink:href="#Inter-Regular-20" transform="translate(298.388672 0)"/>
       <use xlink:href="#Inter-Regular-28" transform="translate(326.513672 0)"/>
       <use xlink:href="#Inter-Regular-32" transform="translate(362.988281 0)"/>
       <use xlink:href="#Inter-Regular-30" transform="translate(423.974609 0)"/>
       <use xlink:href="#Inter-Regular-31" transform="translate(487.060547 0)"/>
       <use xlink:href="#Inter-Regular-38" transform="translate(527.734375 0)"/>
       <use xlink:href="#Inter-Regular-2d" transform="translate(589.599609 0)"/>
       <use xlink:href="#Inter-Regular-32" transform="translate(635.595703 0)"/>
       <use xlink:href="#Inter-Regular-30" transform="translate(696.582031 0)"/>
       <use xlink:href="#Inter-Regular-32" transform="translate(759.667969 0)"/>
       <use xlink:href="#Inter-Regular-32" transform="translate(820.654297 0)"/>
       <use xlink:href="#Inter-Regular-29" transform="translate(881.640625 0)"/>
      </g>
     </g>
    </g>
    <g id="xtick_3">
     <g id="line2d_5">
      <path d="M 553.76103 416.034844 
L 553.76103 48.114844 
" clip-path="url(#p07ee9f4bd3)" style="fill: none; stroke: #e7e5e4; stroke-opacity: 0.7; stroke-width: 0.4; stroke-linecap: square"/>
     </g>
     <g id="line2d_6"/>
     <g id="text_3">
      <!-- Fonds prévention -->
      <g style="fill: #78716c" transform="translate(508.278608 427.903437) scale(0.11 -0.11)">
       <defs>
        <path id="Inter-Regular-46" d="M 563 0 
L 563 4656 
L 3378 4656 
L 3378 4131 
L 1156 4131 
L 1156 2538 
L 3166 2538 
L 3166 2013 
L 1156 2013 
L 1156 0 
L 563 0 
z
" transform="scale(0.015625)"/>
        <path id="Inter-Regular-64" d="M 1803 -75 
Q 1369 -75 1034 147 
Q 700 369 512 775 
Q 325 1181 325 1738 
Q 325 2291 514 2695 
Q 703 3100 1037 3319 
Q 1372 3538 1806 3538 
Q 2147 3538 2347 3425 
Q 2547 3313 2655 3170 
Q 2763 3028 2819 2934 
L 2863 2934 
L 2863 4656 
L 3425 4656 
L 3425 0 
L 2881 0 
L 2881 541 
L 2819 541 
Q 2763 444 2652 298 
Q 2541 153 2339 39 
Q 2138 -75 1803 -75 
z
M 1888 428 
Q 2363 428 2616 793 
Q 2869 1159 2869 1744 
Q 2869 2322 2620 2678 
Q 2372 3034 1888 3034 
Q 1556 3034 1336 2862 
Q 1116 2691 1006 2398 
Q 897 2106 897 1744 
Q 897 1378 1008 1079 
Q 1119 781 1341 604 
Q 1563 428 1888 428 
z
" transform="scale(0.015625)"/>
        <path id="Inter-Regular-76" d="M 1503 0 
L 169 3494 
L 784 3494 
L 1528 1422 
Q 1609 1194 1675 967 
Q 1741 741 1800 522 
Q 1859 741 1923 967 
Q 1988 1194 2069 1422 
L 2813 3494 
L 3428 3494 
L 2094 0 
L 1503 0 
z
" transform="scale(0.015625)"/>
       </defs>
       <use xlink:href="#Inter-Regular-46"/>
       <use xlink:href="#Inter-Regular-6f" transform="translate(59.033203 0)"/>
       <use xlink:href="#Inter-Regular-6e" transform="translate(118.994141 0)"/>
       <use xlink:href="#Inter-Regular-64" transform="translate(178.076172 0)"/>
       <use xlink:href="#Inter-Regular-73" transform="translate(239.306641 0)"/>
       <use xlink:href="#Inter-Regular-20" transform="translate(292.089844 0)"/>
       <use xlink:href="#Inter-Regular-70" transform="translate(320.214844 0)"/>
       <use xlink:href="#Inter-Regular-72" transform="translate(381.445312 0)"/>
       <use xlink:href="#Inter-Regular-e9" transform="translate(419.091797 0)"/>
       <use xlink:href="#Inter-Regular-76" transform="translate(477.392578 0)"/>
       <use xlink:href="#Inter-Regular-65" transform="translate(533.59375 0)"/>
       <use xlink:href="#Inter-Regular-6e" transform="translate(591.894531 0)"/>
       <use xlink:href="#Inter-Regular-74" transform="translate(650.976562 0)"/>
       <use xlink:href="#Inter-Regular-69" transform="translate(683.691406 0)"/>
       <use xlink:href="#Inter-Regular-6f" transform="translate(707.910156 0)"/>
       <use xlink:href="#Inter-Regular-6e" transform="translate(767.871094 0)"/>
      </g>
      <!-- (11 départements) -->
      <g style="fill: #78716c" transform="translate(507.646108 440.338937) scale(0.11 -0.11)">
       <use xlink:href="#Inter-Regular-28"/>
       <use xlink:href="#Inter-Regular-31" transform="translate(36.474609 0)"/>
       <use xlink:href="#Inter-Regular-31" transform="translate(77.148438 0)"/>
       <use xlink:href="#Inter-Regular-20" transform="translate(117.822266 0)"/>
       <use xlink:href="#Inter-Regular-64" transform="translate(145.947266 0)"/>
       <use xlink:href="#Inter-Regular-e9" transform="translate(207.177734 0)"/>
       <use xlink:href="#Inter-Regular-70" transform="translate(265.478516 0)"/>
       <use xlink:href="#Inter-Regular-61" transform="translate(326.708984 0)"/>
       <use xlink:href="#Inter-Regular-72" transform="translate(382.861328 0)"/>
       <use xlink:href="#Inter-Regular-74" transform="translate(420.507812 0)"/>
       <use xlink:href="#Inter-Regular-65" transform="translate(453.222656 0)"/>
       <use xlink:href="#Inter-Regular-6d" transform="translate(511.523438 0)"/>
       <use xlink:href="#Inter-Regular-65" transform="translate(599.121094 0)"/>
       <use xlink:href="#Inter-Regular-6e" transform="translate(657.421875 0)"/>
       <use xlink:href="#Inter-Regular-74" transform="translate(716.503906 0)"/>
       <use xlink:href="#Inter-Regular-73" transform="translate(749.21875 0)"/>
       <use xlink:href="#Inter-Regular-29" transform="translate(802.001953 0)"/>
      </g>
     </g>
    </g>
   </g>
   <g id="matplotlib.axis_2">
    <g id="ytick_1">
     <g id="line2d_7">
      <path d="M 67.710938 416.034844 
L 625.710938 416.034844 
" clip-path="url(#p07ee9f4bd3)" style="fill: none; stroke: #e7e5e4; stroke-opacity: 0.7; stroke-width: 0.4; stroke-linecap: square"/>
     </g>
     <g id="line2d_8"/>
     <g id="text_4">
      <!-- 0 -->
      <g style="fill: #78716c" transform="translate(57.901562 419.672344) scale(0.1 -0.1)">
       <use xlink:href="#Inter-Regular-30"/>
      </g>
     </g>
    </g>
    <g id="ytick_2">
     <g id="line2d_9">
      <path d="M 67.710938 375.154844 
L 625.710938 375.154844 
" clip-path="url(#p07ee9f4bd3)" style="fill: none; stroke: #e7e5e4; stroke-opacity: 0.7; stroke-width: 0.4; stroke-linecap: square"/>
     </g>
     <g id="line2d_10"/>
     <g id="text_5">
      <!-- 200 -->
      <g style="fill: #78716c" transform="translate(45.49375 378.792344) scale(0.1 -0.1)">
       <use xlink:href="#Inter-Regular-32"/>
       <use xlink:href="#Inter-Regular-30" transform="translate(60.986328 0)"/>
       <use xlink:href="#Inter-Regular-30" transform="translate(124.072266 0)"/>
      </g>
     </g>
    </g>
    <g id="ytick_3">
     <g id="line2d_11">
      <path d="M 67.710938 334.274844 
L 625.710938 334.274844 
" clip-path="url(#p07ee9f4bd3)" style="fill: none; stroke: #e7e5e4; stroke-opacity: 0.7; stroke-width: 0.4; stroke-linecap: square"/>
     </g>
     <g id="line2d_12"/>
     <g id="text_6">
      <!-- 400 -->
      <g style="fill: #78716c" transform="translate(45.132812 337.912344) scale(0.1 -0.1)">
       <defs>
        <path id="Inter-Regular-34" d="M 375 947 
L 375 1431 
L 2413 4656 
L 3134 4656 
L 3134 1469 
L 3766 1469 
L 3766 947 
L 3134 947 
L 3134 0 
L 2566 0 
L 2566 947 
L 375 947 
z
M 2569 1469 
L 2569 3913 
L 2531 3913 
L 1009 1506 
L 1009 1469 
L 2569 1469 
z
" transform="scale(0.015625)"/>
       </defs>
       <use xlink:href="#Inter-Regular-34"/>
       <use xlink:href="#Inter-Regular-30" transform="translate(64.599609 0)"/>
       <use xlink:href="#Inter-Regular-30" transform="translate(127.685547 0)"/>
      </g>
     </g>
    </g>
    <g id="ytick_4">
     <g id="line2d_13">
      <path d="M 67.710938 293.394844 
L 625.710938 293.394844 
" clip-path="url(#p07ee9f4bd3)" style="fill: none; stroke: #e7e5e4; stroke-opacity: 0.7; stroke-width: 0.4; stroke-linecap: square"/>
     </g>
     <g id="line2d_14"/>
     <g id="text_7">
      <!-- 600 -->
      <g style="fill: #78716c" transform="translate(45.390625 297.032344) scale(0.1 -0.1)">
       <defs>
        <path id="Inter-Regular-36" d="M 2019 -63 
Q 1728 -63 1437 43 
Q 1147 150 908 400 
Q 669 650 525 1078 
Q 381 1506 381 2150 
Q 381 3378 840 4048 
Q 1300 4719 2091 4719 
Q 2481 4719 2790 4562 
Q 3100 4406 3297 4128 
Q 3494 3850 3550 3484 
L 2969 3484 
Q 2891 3788 2672 3991 
Q 2453 4194 2091 4194 
Q 1553 4194 1248 3730 
Q 944 3266 944 2425 
L 981 2425 
Q 1169 2716 1467 2880 
Q 1766 3044 2128 3044 
Q 2528 3044 2859 2847 
Q 3191 2650 3389 2301 
Q 3588 1953 3588 1503 
Q 3588 1069 3394 714 
Q 3200 359 2847 148 
Q 2494 -63 2019 -63 
z
M 2019 459 
Q 2300 459 2525 600 
Q 2750 741 2881 977 
Q 3013 1213 3013 1503 
Q 3013 1788 2886 2020 
Q 2759 2253 2537 2390 
Q 2316 2528 2034 2528 
Q 1753 2528 1525 2384 
Q 1297 2241 1162 2005 
Q 1028 1769 1028 1497 
Q 1028 1222 1156 986 
Q 1284 750 1509 604 
Q 1734 459 2019 459 
z
" transform="scale(0.015625)"/>
       </defs>
       <use xlink:href="#Inter-Regular-36"/>
       <use xlink:href="#Inter-Regular-30" transform="translate(62.011719 0)"/>
       <use xlink:href="#Inter-Regular-30" transform="translate(125.097656 0)"/>
      </g>
     </g>
    </g>
    <g id="ytick_5">
     <g id="line2d_15">
      <path d="M 67.710938 252.514844 
L 625.710938 252.514844 
" clip-path="url(#p07ee9f4bd3)" style="fill: none; stroke: #e7e5e4; stroke-opacity: 0.7; stroke-width: 0.4; stroke-linecap: square"/>
     </g>
     <g id="line2d_16"/>
     <g id="text_8">
      <!-- 800 -->
      <g style="fill: #78716c" transform="translate(45.40625 256.152344) scale(0.1 -0.1)">
       <use xlink:href="#Inter-Regular-38"/>
       <use xlink:href="#Inter-Regular-30" transform="translate(61.865234 0)"/>
       <use xlink:href="#Inter-Regular-30" transform="translate(124.951172 0)"/>
      </g>
     </g>
    </g>
    <g id="ytick_6">
     <g id="line2d_17">
      <path d="M 67.710938 211.634844 
L 625.710938 211.634844 
" clip-path="url(#p07ee9f4bd3)" style="fill: none; stroke: #e7e5e4; stroke-opacity: 0.7; stroke-width: 0.4; stroke-linecap: square"/>
     </g>
     <g id="line2d_18"/>
     <g id="text_9">
      <!-- 1000 -->
      <g style="fill: #78716c" transform="translate(41.215625 215.272344) scale(0.1 -0.1)">
       <use xlink:href="#Inter-Regular-31"/>
       <use xlink:href="#Inter-Regular-30" transform="translate(40.673828 0)"/>
       <use xlink:href="#Inter-Regular-30" transform="translate(103.759766 0)"/>
       <use xlink:href="#Inter-Regular-30" transform="translate(166.845703 0)"/>
      </g>
     </g>
    </g>
    <g id="ytick_7">
     <g id="line2d_19">
      <path d="M 67.710938 170.754844 
L 625.710938 170.754844 
" clip-path="url(#p07ee9f4bd3)" style="fill: none; stroke: #e7e5e4; stroke-opacity: 0.7; stroke-width: 0.4; stroke-linecap: square"/>
     </g>
     <g id="line2d_20"/>
     <g id="text_10">
      <!-- 1200 -->
      <g style="fill: #78716c" transform="translate(41.426563 174.392344) scale(0.1 -0.1)">
       <use xlink:href="#Inter-Regular-31"/>
       <use xlink:href="#Inter-Regular-32" transform="translate(40.673828 0)"/>
       <use xlink:href="#Inter-Regular-30" transform="translate(101.660156 0)"/>
       <use xlink:href="#Inter-Regular-30" transform="translate(164.746094 0)"/>
      </g>
     </g>
    </g>
    <g id="ytick_8">
     <g id="line2d_21">
      <path d="M 67.710938 129.874844 
L 625.710938 129.874844 
" clip-path="url(#p07ee9f4bd3)" style="fill: none; stroke: #e7e5e4; stroke-opacity: 0.7; stroke-width: 0.4; stroke-linecap: square"/>
     </g>
     <g id="line2d_22"/>
     <g id="text_11">
      <!-- 1400 -->
      <g style="fill: #78716c" transform="translate(41.065625 133.512344) scale(0.1 -0.1)">
       <use xlink:href="#Inter-Regular-31"/>
       <use xlink:href="#Inter-Regular-34" transform="translate(40.673828 0)"/>
       <use xlink:href="#Inter-Regular-30" transform="translate(105.273438 0)"/>
       <use xlink:href="#Inter-Regular-30" transform="translate(168.359375 0)"/>
      </g>
     </g>
    </g>
    <g id="ytick_9">
     <g id="line2d_23">
      <path d="M 67.710938 88.994844 
L 625.710938 88.994844 
" clip-path="url(#p07ee9f4bd3)" style="fill: none; stroke: #e7e5e4; stroke-opacity: 0.7; stroke-width: 0.4; stroke-linecap: square"/>
     </g>
     <g id="line2d_24"/>
     <g id="text_12">
      <!-- 1600 -->
      <g style="fill: #78716c" transform="translate(41.323437 92.632344) scale(0.1 -0.1)">
       <use xlink:href="#Inter-Regular-31"/>
       <use xlink:href="#Inter-Regular-36" transform="translate(40.673828 0)"/>
       <use xlink:href="#Inter-Regular-30" transform="translate(102.685547 0)"/>
       <use xlink:href="#Inter-Regular-30" transform="translate(165.771484 0)"/>
      </g>
     </g>
    </g>
    <g id="ytick_10">
     <g id="line2d_25">
      <path d="M 67.710938 48.114844 
L 625.710938 48.114844 
" clip-path="url(#p07ee9f4bd3)" style="fill: none; stroke: #e7e5e4; stroke-opacity: 0.7; stroke-width: 0.4; stroke-linecap: square"/>
     </g>
     <g id="line2d_26"/>
     <g id="text_13">
      <!-- 1800 -->
      <g style="fill: #78716c" transform="translate(41.339062 51.752344) scale(0.1 -0.1)">
       <use xlink:href="#Inter-Regular-31"/>
       <use xlink:href="#Inter-Regular-38" transform="translate(40.673828 0)"/>
       <use xlink:href="#Inter-Regular-30" transform="translate(102.539062 0)"/>
       <use xlink:href="#Inter-Regular-30" transform="translate(165.625 0)"/>
      </g>
     </g>
    </g>
    <g id="text_14">
     <!-- Millions d'euros par an -->
     <g style="fill: #78716c" transform="translate(30.616875 296.437031) rotate(-90) scale(0.12 -0.12)">
      <defs>
       <path id="Inter-Regular-4d" d="M 563 0 
L 563 4656 
L 1406 4656 
L 2553 1719 
Q 2619 1550 2716 1247 
Q 2813 944 2897 659 
Q 2978 934 3075 1239 
Q 3172 1544 3241 1719 
L 4372 4656 
L 5219 4656 
L 5219 0 
L 4634 0 
L 4634 2659 
Q 4634 2916 4640 3287 
Q 4647 3659 4656 4022 
Q 4528 3622 4398 3244 
Q 4269 2866 4188 2659 
L 3147 0 
L 2631 0 
L 1575 2659 
Q 1497 2856 1370 3229 
Q 1244 3603 1106 4013 
Q 1113 3681 1120 3304 
Q 1128 2928 1128 2659 
L 1128 0 
L 563 0 
z
" transform="scale(0.015625)"/>
       <path id="Inter-Regular-27" d="M 725 2884 
L 656 4656 
L 1263 4656 
L 1194 2884 
L 725 2884 
z
" transform="scale(0.015625)"/>
      </defs>
      <use xlink:href="#Inter-Regular-4d"/>
      <use xlink:href="#Inter-Regular-69" transform="translate(90.332031 0)"/>
      <use xlink:href="#Inter-Regular-6c" transform="translate(114.550781 0)"/>
      <use xlink:href="#Inter-Regular-6c" transform="translate(138.769531 0)"/>
      <use xlink:href="#Inter-Regular-69" transform="translate(162.988281 0)"/>
      <use xlink:href="#Inter-Regular-6f" transform="translate(187.207031 0)"/>
      <use xlink:href="#Inter-Regular-6e" transform="translate(247.167969 0)"/>
      <use xlink:href="#Inter-Regular-73" transform="translate(306.25 0)"/>
      <use xlink:href="#Inter-Regular-20" transform="translate(359.033203 0)"/>
      <use xlink:href="#Inter-Regular-64" transform="translate(387.158203 0)"/>
      <use xlink:href="#Inter-Regular-27" transform="translate(448.388672 0)"/>
      <use xlink:href="#Inter-Regular-65" transform="translate(478.369141 0)"/>
      <use xlink:href="#Inter-Regular-75" transform="translate(536.669922 0)"/>
      <use xlink:href="#Inter-Regular-72" transform="translate(595.800781 0)"/>
      <use xlink:href="#Inter-Regular-6f" transform="translate(633.447266 0)"/>
      <use xlink:href="#Inter-Regular-73" transform="translate(693.408203 0)"/>
      <use xlink:href="#Inter-Regular-20" transform="translate(746.191406 0)"/>
      <use xlink:href="#Inter-Regular-70" transform="translate(774.316406 0)"/>
      <use xlink:href="#Inter-Regular-61" transform="translate(835.546875 0)"/>
      <use xlink:href="#Inter-Regular-72" transform="translate(891.699219 0)"/>
      <use xlink:href="#Inter-Regular-20" transform="translate(929.345703 0)"/>
      <use xlink:href="#Inter-Regular-61" transform="translate(957.470703 0)"/>
      <use xlink:href="#Inter-Regular-6e" transform="translate(1013.623047 0)"/>
     </g>
    </g>
   </g>
   <g id="patch_3">
    <path d="M 93.074574 416.034844 
L 186.247116 416.034844 
L 186.247116 268.866844 
L 93.074574 268.866844 
z
" clip-path="url(#p07ee9f4bd3)" style="fill: #d4a843; stroke: #ffffff; stroke-linejoin: miter"/>
   </g>
   <g id="patch_4">
    <path d="M 300.124667 416.034844 
L 393.297208 416.034844 
L 393.297208 109.434844 
L 300.124667 109.434844 
z
" clip-path="url(#p07ee9f4bd3)" style="fill: #c1554d; stroke: #ffffff; stroke-linejoin: miter"/>
   </g>
   <g id="patch_5">
    <path d="M 507.174759 416.034844 
L 600.347301 416.034844 
L 600.347301 412.560044 
L 507.174759 412.560044 
z
" clip-path="url(#p07ee9f4bd3)" style="fill: #2d6a4f; stroke: #ffffff; stroke-linejoin: miter"/>
   </g>
   <g id="patch_6">
    <path d="M 67.710938 416.034844 
L 67.710938 48.114844 
" style="fill: none; stroke: #e7e5e4; stroke-width: 0.6; stroke-linejoin: miter; stroke-linecap: square"/>
   </g>
   <g id="patch_7">
    <path d="M 67.710938 416.034844 
L 625.710938 416.034844 
" style="fill: none; stroke: #e7e5e4; stroke-width: 0.6; stroke-linejoin: miter; stroke-linecap: square"/>
   </g>
   <g id="text_15">
    <!-- 720 M€ -->
    <g style="fill: #1c1917" transform="translate(111.619048 262.734844) scale(0.15 -0.15)">
     <defs>
      <path id="Inter-Bold-37" d="M 553 0 
L 2491 3838 
L 2491 3869 
L 234 3869 
L 234 4656 
L 3488 4656 
L 3488 3856 
L 1544 0 
L 553 0 
z
" transform="scale(0.015625)"/>
      <path id="Inter-Bold-32" d="M 388 0 
L 388 688 
L 2038 2234 
Q 2353 2544 2523 2773 
Q 2694 3003 2694 3284 
Q 2694 3597 2489 3776 
Q 2284 3956 1972 3956 
Q 1647 3956 1451 3762 
Q 1256 3569 1256 3228 
L 344 3228 
Q 344 3681 551 4017 
Q 759 4353 1128 4536 
Q 1497 4719 1978 4719 
Q 2472 4719 2840 4542 
Q 3209 4366 3414 4056 
Q 3619 3747 3619 3344 
Q 3619 3084 3517 2831 
Q 3416 2578 3155 2264 
Q 2894 1950 2416 1513 
L 1713 819 
L 1713 784 
L 3681 784 
L 3681 0 
L 388 0 
z
" transform="scale(0.015625)"/>
      <path id="Inter-Bold-30" d="M 2156 -63 
Q 1275 -63 784 565 
Q 294 1194 294 2325 
Q 294 3456 786 4087 
Q 1278 4719 2156 4719 
Q 3038 4719 3530 4086 
Q 4022 3453 4022 2325 
Q 4022 1194 3531 565 
Q 3041 -63 2156 -63 
z
M 2156 728 
Q 2588 728 2819 1143 
Q 3050 1559 3050 2325 
Q 3050 3094 2819 3512 
Q 2588 3931 2156 3931 
Q 1728 3931 1497 3511 
Q 1266 3091 1266 2325 
Q 1266 1559 1495 1143 
Q 1725 728 2156 728 
z
" transform="scale(0.015625)"/>
      <path id="Inter-Bold-20" transform="scale(0.015625)"/>
      <path id="Inter-Bold-4d" d="M 422 0 
L 422 4656 
L 1884 4656 
L 2641 2519 
Q 2688 2372 2747 2134 
Q 2806 1897 2870 1623 
Q 2934 1350 2988 1097 
Q 3041 1347 3103 1620 
Q 3166 1894 3225 2131 
Q 3284 2369 3331 2519 
L 4075 4656 
L 5544 4656 
L 5544 0 
L 4584 0 
L 4584 2197 
Q 4584 2372 4592 2644 
Q 4600 2916 4608 3228 
Q 4616 3541 4619 3834 
Q 4541 3522 4455 3206 
Q 4369 2891 4291 2627 
Q 4213 2363 4156 2197 
L 3384 0 
L 2581 0 
L 1797 2197 
Q 1744 2356 1667 2612 
Q 1591 2869 1503 3176 
Q 1416 3484 1334 3797 
Q 1341 3516 1348 3211 
Q 1356 2906 1362 2639 
Q 1369 2372 1369 2197 
L 1369 0 
L 422 0 
z
" transform="scale(0.015625)"/>
      <path id="Inter-Bold-20ac" d="M 3441 3047 
L 3219 2556 
L 1734 2556 
Q 1725 2444 1725 2322 
Q 1725 2206 1731 2100 
L 3009 2100 
L 2769 1594 
L 1813 1594 
Q 1925 1178 2179 983 
Q 2434 788 2788 788 
Q 3091 788 3309 900 
Q 3528 1013 3656 1106 
L 4016 353 
Q 3769 144 3455 40 
Q 3141 -63 2788 -63 
Q 2053 -63 1533 370 
Q 1013 803 841 1594 
L 181 1594 
L 366 2100 
L 772 2100 
Q 766 2209 766 2322 
Q 766 2441 775 2556 
L 181 2556 
L 366 3047 
L 841 3047 
Q 1009 3844 1531 4281 
Q 2053 4719 2788 4719 
Q 3503 4719 4031 4294 
L 3675 3534 
Q 3534 3634 3312 3750 
Q 3091 3866 2788 3866 
Q 2434 3866 2179 3667 
Q 1925 3469 1813 3047 
L 3441 3047 
z
" transform="scale(0.015625)"/>
     </defs>
     <use xlink:href="#Inter-Bold-37"/>
     <use xlink:href="#Inter-Bold-32" transform="translate(58.154297 0)"/>
     <use xlink:href="#Inter-Bold-30" transform="translate(121.142578 0)"/>
     <use xlink:href="#Inter-Bold-20" transform="translate(188.574219 0)"/>
     <use xlink:href="#Inter-Bold-4d" transform="translate(212.255859 0)"/>
     <use xlink:href="#Inter-Bold-20ac" transform="translate(305.419922 0)"/>
    </g>
   </g>
   <g id="text_16">
    <!-- 1500 M€ -->
    <g style="fill: #1c1917" transform="translate(314.798437 103.302844) scale(0.15 -0.15)">
     <defs>
      <path id="Inter-Bold-31" d="M 2341 4656 
L 2341 0 
L 1388 0 
L 1388 3816 
L 1356 3816 
L 291 3063 
L 291 3934 
L 1319 4656 
L 2341 4656 
z
" transform="scale(0.015625)"/>
      <path id="Inter-Bold-35" d="M 1963 -63 
Q 1484 -63 1111 114 
Q 738 291 520 600 
Q 303 909 291 1306 
L 1222 1306 
Q 1234 1034 1450 864 
Q 1666 694 1963 694 
Q 2313 694 2538 925 
Q 2763 1156 2763 1525 
Q 2763 1897 2533 2133 
Q 2303 2369 1947 2369 
Q 1738 2369 1545 2284 
Q 1353 2200 1247 2063 
L 391 2213 
L 613 4656 
L 3431 4656 
L 3431 3869 
L 1403 3869 
L 1284 2691 
L 1309 2691 
Q 1434 2859 1679 2968 
Q 1925 3078 2225 3078 
Q 2647 3078 2976 2881 
Q 3306 2684 3497 2339 
Q 3688 1994 3688 1547 
Q 3688 1078 3470 715 
Q 3253 353 2864 145 
Q 2475 -63 1963 -63 
z
" transform="scale(0.015625)"/>
     </defs>
     <use xlink:href="#Inter-Bold-31"/>
     <use xlink:href="#Inter-Bold-35" transform="translate(43.115234 0)"/>
     <use xlink:href="#Inter-Bold-30" transform="translate(105.322266 0)"/>
     <use xlink:href="#Inter-Bold-30" transform="translate(172.753906 0)"/>
     <use xlink:href="#Inter-Bold-20" transform="translate(240.185547 0)"/>
     <use xlink:href="#Inter-Bold-4d" transform="translate(263.867188 0)"/>
     <use xlink:href="#Inter-Bold-20ac" transform="translate(357.03125 0)"/>
    </g>
   </g>
   <g id="text_17">
    <!-- 17 M€ -->
    <g style="fill: #1c1917" transform="translate(532.267671 406.428044) scale(0.15 -0.15)">
     <use xlink:href="#Inter-Bold-31"/>
     <use xlink:href="#Inter-Bold-37" transform="translate(43.115234 0)"/>
     <use xlink:href="#Inter-Bold-20" transform="translate(101.269531 0)"/>
     <use xlink:href="#Inter-Bold-4d" transform="translate(124.951172 0)"/>
     <use xlink:href="#Inter-Bold-20ac" transform="translate(218.115234 0)"/>
    </g>
   </g>
   <g id="text_18">
    <!-- On collecte plus, on répare plus, on prévient peu -->
    <g style="fill: #1c1917" transform="translate(169.419141 33.114844) scale(0.15 -0.15)">
     <defs>
      <path id="Inter-Bold-4f" d="M 2466 -63 
Q 1850 -63 1358 218 
Q 866 500 580 1034 
Q 294 1569 294 2325 
Q 294 3084 580 3620 
Q 866 4156 1358 4437 
Q 1850 4719 2466 4719 
Q 3084 4719 3575 4437 
Q 4066 4156 4352 3620 
Q 4638 3084 4638 2325 
Q 4638 1566 4352 1033 
Q 4066 500 3575 218 
Q 3084 -63 2466 -63 
z
M 2466 784 
Q 3009 784 3339 1179 
Q 3669 1575 3669 2325 
Q 3669 3078 3339 3475 
Q 3009 3872 2466 3872 
Q 1925 3872 1594 3473 
Q 1263 3075 1263 2325 
Q 1263 1578 1594 1181 
Q 1925 784 2466 784 
z
" transform="scale(0.015625)"/>
      <path id="Inter-Bold-6e" d="M 1338 2022 
L 1338 0 
L 400 0 
L 400 3494 
L 1284 3494 
L 1297 2772 
Q 1444 3138 1712 3338 
Q 1981 3538 2384 3538 
Q 2928 3538 3256 3188 
Q 3584 2838 3584 2222 
L 3584 0 
L 2647 0 
L 2647 2059 
Q 2647 2384 2480 2568 
Q 2313 2753 2016 2753 
Q 1716 2753 1527 2561 
Q 1338 2369 1338 2022 
z
" transform="scale(0.015625)"/>
      <path id="Inter-Bold-63" d="M 1963 -69 
Q 1434 -69 1051 157 
Q 669 384 461 789 
Q 253 1194 253 1731 
Q 253 2272 461 2678 
Q 669 3084 1051 3311 
Q 1434 3538 1963 3538 
Q 2584 3538 3000 3227 
Q 3416 2916 3516 2375 
L 2644 2213 
Q 2584 2484 2414 2642 
Q 2244 2800 1972 2800 
Q 1597 2800 1403 2504 
Q 1209 2209 1209 1734 
Q 1209 1266 1403 967 
Q 1597 669 1972 669 
Q 2244 669 2419 833 
Q 2594 997 2650 1278 
L 3522 1119 
Q 3422 566 3006 248 
Q 2591 -69 1963 -69 
z
" transform="scale(0.015625)"/>
      <path id="Inter-Bold-6f" d="M 1963 -69 
Q 1438 -69 1053 157 
Q 669 384 461 789 
Q 253 1194 253 1731 
Q 253 2272 461 2678 
Q 669 3084 1053 3311 
Q 1438 3538 1963 3538 
Q 2488 3538 2872 3311 
Q 3256 3084 3464 2678 
Q 3672 2272 3672 1731 
Q 3672 1194 3464 789 
Q 3256 384 2872 157 
Q 2488 -69 1963 -69 
z
M 1963 669 
Q 2338 669 2528 972 
Q 2719 1275 2719 1734 
Q 2719 2197 2528 2498 
Q 2338 2800 1963 2800 
Q 1588 2800 1398 2498 
Q 1209 2197 1209 1734 
Q 1209 1275 1398 972 
Q 1588 669 1963 669 
z
" transform="scale(0.015625)"/>
      <path id="Inter-Bold-6c" d="M 1338 4656 
L 1338 0 
L 400 0 
L 400 4656 
L 1338 4656 
z
" transform="scale(0.015625)"/>
      <path id="Inter-Bold-65" d="M 1978 -69 
Q 1444 -69 1056 150 
Q 669 369 461 772 
Q 253 1175 253 1728 
Q 253 2269 461 2675 
Q 669 3081 1045 3309 
Q 1422 3538 1931 3538 
Q 2388 3538 2759 3344 
Q 3131 3150 3351 2756 
Q 3572 2363 3572 1766 
L 3572 1503 
L 1181 1503 
Q 1197 1075 1419 856 
Q 1641 638 1994 638 
Q 2241 638 2417 742 
Q 2594 847 2669 1050 
L 3519 891 
Q 3391 456 2989 193 
Q 2588 -69 1978 -69 
z
M 1188 2091 
L 2669 2091 
Q 2634 2431 2450 2631 
Q 2266 2831 1941 2831 
Q 1603 2831 1409 2623 
Q 1216 2416 1188 2091 
z
" transform="scale(0.015625)"/>
      <path id="Inter-Bold-74" d="M 2134 3494 
L 2134 2778 
L 1481 2778 
L 1481 1022 
Q 1481 697 1800 697 
Q 1853 697 1948 711 
Q 2044 725 2097 738 
L 2231 34 
Q 2075 -13 1920 -31 
Q 1766 -50 1625 -50 
Q 1100 -50 822 204 
Q 544 459 544 941 
L 544 2778 
L 63 2778 
L 63 3494 
L 544 3494 
L 544 4325 
L 1481 4325 
L 1481 3494 
L 2134 3494 
z
" transform="scale(0.015625)"/>
      <path id="Inter-Bold-70" d="M 400 -1306 
L 400 3494 
L 1322 3494 
L 1322 2906 
L 1366 2906 
Q 1428 3044 1548 3191 
Q 1669 3338 1867 3438 
Q 2066 3538 2363 3538 
Q 2750 3538 3072 3338 
Q 3394 3138 3586 2738 
Q 3778 2338 3778 1741 
Q 3778 1159 3590 757 
Q 3403 356 3081 148 
Q 2759 -59 2356 -59 
Q 2072 -59 1875 37 
Q 1678 134 1554 276 
Q 1431 419 1366 559 
L 1338 559 
L 1338 -1306 
L 400 -1306 
z
M 2069 694 
Q 2434 694 2626 987 
Q 2819 1281 2819 1744 
Q 2819 2203 2628 2495 
Q 2438 2788 2069 2788 
Q 1706 2788 1511 2503 
Q 1316 2219 1316 1744 
Q 1316 1269 1512 981 
Q 1709 694 2069 694 
z
" transform="scale(0.015625)"/>
      <path id="Inter-Bold-75" d="M 1603 -44 
Q 1059 -44 729 306 
Q 400 656 400 1272 
L 400 3494 
L 1338 3494 
L 1338 1434 
Q 1338 1109 1506 925 
Q 1675 741 1969 741 
Q 2269 741 2458 933 
Q 2647 1125 2647 1472 
L 2647 3494 
L 3588 3494 
L 3588 0 
L 2700 0 
L 2688 725 
Q 2541 353 2270 154 
Q 2000 -44 1603 -44 
z
" transform="scale(0.015625)"/>
      <path id="Inter-Bold-73" d="M 1788 -69 
Q 1156 -69 745 200 
Q 334 469 244 956 
L 1116 1106 
Q 1250 619 1816 619 
Q 2084 619 2239 720 
Q 2394 822 2394 978 
Q 2394 1244 1944 1338 
L 1341 1463 
Q 334 1669 334 2453 
Q 334 2956 737 3247 
Q 1141 3538 1803 3538 
Q 2425 3538 2794 3284 
Q 3163 3031 3259 2606 
L 2428 2459 
Q 2372 2638 2222 2752 
Q 2072 2866 1816 2866 
Q 1584 2866 1428 2767 
Q 1272 2669 1272 2513 
Q 1272 2381 1373 2289 
Q 1475 2197 1722 2147 
L 2350 2022 
Q 3350 1819 3350 1078 
Q 3350 734 3150 476 
Q 2950 219 2597 75 
Q 2244 -69 1788 -69 
z
" transform="scale(0.015625)"/>
      <path id="Inter-Bold-2c" d="M 372 -1249 
L 647 688 
L 1584 688 
L 1009 -1249 
L 372 -1249 
z
" transform="scale(0.015625)"/>
      <path id="Inter-Bold-72" d="M 400 0 
L 400 3494 
L 1306 3494 
L 1306 2884 
L 1344 2884 
Q 1441 3206 1667 3373 
Q 1894 3541 2188 3541 
Q 2347 3541 2491 3509 
L 2491 2672 
Q 2428 2691 2308 2705 
Q 2188 2719 2084 2719 
Q 1759 2719 1548 2516 
Q 1338 2313 1338 1988 
L 1338 0 
L 400 0 
z
" transform="scale(0.015625)"/>
      <path id="Inter-Bold-e9" d="M 1978 -69 
Q 1444 -69 1056 150 
Q 669 369 461 772 
Q 253 1175 253 1728 
Q 253 2269 461 2675 
Q 669 3081 1045 3309 
Q 1422 3538 1931 3538 
Q 2388 3538 2759 3344 
Q 3131 3150 3351 2756 
Q 3572 2363 3572 1766 
L 3572 1503 
L 1181 1503 
Q 1197 1075 1419 856 
Q 1641 638 1994 638 
Q 2241 638 2417 742 
Q 2594 847 2669 1050 
L 3519 891 
Q 3391 456 2989 193 
Q 2588 -69 1978 -69 
z
M 1188 2091 
L 2669 2091 
Q 2634 2431 2450 2631 
Q 2266 2831 1941 2831 
Q 1603 2831 1409 2623 
Q 1216 2416 1188 2091 
z
M 1576 3938 
L 2011 4909 
L 2879 4909 
L 2232 3938 
L 1576 3938 
z
" transform="scale(0.015625)"/>
      <path id="Inter-Bold-61" d="M 1375 -69 
Q 875 -69 544 195 
Q 213 459 213 978 
Q 213 1369 400 1591 
Q 588 1813 888 1916 
Q 1188 2019 1531 2050 
Q 1981 2094 2179 2142 
Q 2378 2191 2378 2363 
L 2378 2378 
Q 2378 2600 2236 2722 
Q 2094 2844 1831 2844 
Q 1559 2844 1393 2726 
Q 1228 2609 1172 2441 
L 313 2584 
Q 447 3038 848 3288 
Q 1250 3538 1834 3538 
Q 2209 3538 2548 3419 
Q 2888 3300 3102 3039 
Q 3316 2778 3316 2353 
L 3316 0 
L 2428 0 
L 2428 484 
L 2397 484 
Q 2269 241 2016 86 
Q 1763 -69 1375 -69 
z
M 1641 591 
Q 1969 591 2176 781 
Q 2384 972 2384 1250 
L 2384 1628 
Q 2328 1588 2201 1558 
Q 2075 1528 1934 1504 
Q 1794 1481 1691 1469 
Q 1431 1431 1272 1322 
Q 1113 1213 1113 1003 
Q 1113 800 1261 695 
Q 1409 591 1641 591 
z
" transform="scale(0.015625)"/>
      <path id="Inter-Bold-76" d="M 1384 0 
L 97 3494 
L 1094 3494 
L 1681 1681 
Q 1753 1447 1814 1209 
Q 1875 972 1931 728 
Q 1984 972 2042 1208 
Q 2100 1444 2175 1681 
L 2756 3494 
L 3741 3494 
L 2450 0 
L 1384 0 
z
" transform="scale(0.015625)"/>
      <path id="Inter-Bold-69" d="M 400 0 
L 400 3494 
L 1338 3494 
L 1338 0 
L 400 0 
z
M 871 3950 
Q 658 3950 508 4090 
Q 358 4231 358 4431 
Q 358 4631 508 4772 
Q 658 4913 871 4913 
Q 1083 4913 1234 4772 
Q 1386 4631 1386 4431 
Q 1386 4231 1234 4090 
Q 1083 3950 871 3950 
z
" transform="scale(0.015625)"/>
     </defs>
     <use xlink:href="#Inter-Bold-4f"/>
     <use xlink:href="#Inter-Bold-6e" transform="translate(77.050781 0)"/>
     <use xlink:href="#Inter-Bold-20" transform="translate(139.306641 0)"/>
     <use xlink:href="#Inter-Bold-63" transform="translate(162.988281 0)"/>
     <use xlink:href="#Inter-Bold-6f" transform="translate(221.826172 0)"/>
     <use xlink:href="#Inter-Bold-6c" transform="translate(283.154297 0)"/>
     <use xlink:href="#Inter-Bold-6c" transform="translate(310.253906 0)"/>
     <use xlink:href="#Inter-Bold-65" transform="translate(337.353516 0)"/>
     <use xlink:href="#Inter-Bold-63" transform="translate(396.923828 0)"/>
     <use xlink:href="#Inter-Bold-74" transform="translate(455.761719 0)"/>
     <use xlink:href="#Inter-Bold-65" transform="translate(492.382812 0)"/>
     <use xlink:href="#Inter-Bold-20" transform="translate(551.953125 0)"/>
     <use xlink:href="#Inter-Bold-70" transform="translate(575.634766 0)"/>
     <use xlink:href="#Inter-Bold-6c" transform="translate(638.671875 0)"/>
     <use xlink:href="#Inter-Bold-75" transform="translate(665.771484 0)"/>
     <use xlink:href="#Inter-Bold-73" transform="translate(728.027344 0)"/>
     <use xlink:href="#Inter-Bold-2c" transform="translate(784.033203 0)"/>
     <use xlink:href="#Inter-Bold-20" transform="translate(817.431641 0)"/>
     <use xlink:href="#Inter-Bold-6f" transform="translate(841.113281 0)"/>
     <use xlink:href="#Inter-Bold-6e" transform="translate(902.441406 0)"/>
     <use xlink:href="#Inter-Bold-20" transform="translate(964.697266 0)"/>
     <use xlink:href="#Inter-Bold-72" transform="translate(988.378906 0)"/>
     <use xlink:href="#Inter-Bold-e9" transform="translate(1029.101562 0)"/>
     <use xlink:href="#Inter-Bold-70" transform="translate(1088.671875 0)"/>
     <use xlink:href="#Inter-Bold-61" transform="translate(1151.708984 0)"/>
     <use xlink:href="#Inter-Bold-72" transform="translate(1209.765625 0)"/>
     <use xlink:href="#Inter-Bold-65" transform="translate(1250.488281 0)"/>
     <use xlink:href="#Inter-Bold-20" transform="translate(1310.058594 0)"/>
     <use xlink:href="#Inter-Bold-70" transform="translate(1333.740234 0)"/>
     <use xlink:href="#Inter-Bold-6c" transform="translate(1396.777344 0)"/>
     <use xlink:href="#Inter-Bold-75" transform="translate(1423.876953 0)"/>
     <use xlink:href="#Inter-Bold-73" transform="translate(1486.132812 0)"/>
     <use xlink:href="#Inter-Bold-2c" transform="translate(1542.138672 0)"/>
     <use xlink:href="#Inter-Bold-20" transform="translate(1575.537109 0)"/>
     <use xlink:href="#Inter-Bold-6f" transform="translate(1599.21875 0)"/>
     <use xlink:href="#Inter-Bold-6e" transform="translate(1660.546875 0)"/>
     <use xlink:href="#Inter-Bold-20" transform="translate(1722.802734 0)"/>
     <use xlink:href="#Inter-Bold-70" transform="translate(1746.484375 0)"/>
     <use xlink:href="#Inter-Bold-72" transform="translate(1809.521484 0)"/>
     <use xlink:href="#Inter-Bold-e9" transform="translate(1850.244141 0)"/>
     <use xlink:href="#Inter-Bold-76" transform="translate(1909.814453 0)"/>
     <use xlink:href="#Inter-Bold-69" transform="translate(1969.775391 0)"/>
     <use xlink:href="#Inter-Bold-65" transform="translate(1996.875 0)"/>
     <use xlink:href="#Inter-Bold-6e" transform="translate(2056.445312 0)"/>
     <use xlink:href="#Inter-Bold-74" transform="translate(2118.701172 0)"/>
     <use xlink:href="#Inter-Bold-20" transform="translate(2155.322266 0)"/>
     <use xlink:href="#Inter-Bold-70" transform="translate(2179.003906 0)"/>
     <use xlink:href="#Inter-Bold-65" transform="translate(2242.041016 0)"/>
     <use xlink:href="#Inter-Bold-75" transform="translate(2301.611328 0)"/>
    </g>
   </g>
  </g>
  <g id="text_19">
   <!-- Sources : France Assureurs, CCR, Service-public.fr. Tawiza -->
   <g style="fill: #a8a29e" transform="translate(203.725313 481.554844) scale(0.095 -0.095)">
    <defs>
     <path id="Inter-Regular-3a" d="M 922 -41 
Q 747 -41 623 82 
Q 500 206 500 381 
Q 500 556 623 679 
Q 747 803 922 803 
Q 1097 803 1220 679 
Q 1344 556 1344 381 
Q 1344 206 1220 82 
Q 1097 -41 922 -41 
z
M 922 2519 
Q 747 2519 623 2642 
Q 500 2766 500 2941 
Q 500 3116 623 3239 
Q 747 3363 922 3363 
Q 1097 3363 1220 3239 
Q 1344 3116 1344 2941 
Q 1344 2766 1220 2642 
Q 1097 2519 922 2519 
z
" transform="scale(0.015625)"/>
     <path id="Inter-Regular-2c" d="M 404 -1148 
L 679 624 
L 1323 624 
L 835 -1148 
L 404 -1148 
z
" transform="scale(0.015625)"/>
     <path id="Inter-Regular-62" d="M 2116 -75 
Q 1784 -75 1581 39 
Q 1378 153 1268 298 
Q 1159 444 1100 541 
L 1038 541 
L 1038 0 
L 494 0 
L 494 4656 
L 1056 4656 
L 1056 2934 
L 1100 2934 
Q 1159 3028 1265 3170 
Q 1372 3313 1572 3425 
Q 1772 3538 2113 3538 
Q 2550 3538 2883 3319 
Q 3216 3100 3405 2695 
Q 3594 2291 3594 1738 
Q 3594 1181 3406 775 
Q 3219 369 2886 147 
Q 2553 -75 2116 -75 
z
M 2031 428 
Q 2359 428 2579 604 
Q 2800 781 2911 1079 
Q 3022 1378 3022 1744 
Q 3022 2106 2912 2398 
Q 2803 2691 2583 2862 
Q 2363 3034 2031 3034 
Q 1550 3034 1300 2678 
Q 1050 2322 1050 1744 
Q 1050 1159 1303 793 
Q 1556 428 2031 428 
z
" transform="scale(0.015625)"/>
     <path id="Inter-Regular-2e" d="M 922 -41 
Q 747 -41 623 82 
Q 500 206 500 381 
Q 500 556 623 679 
Q 747 803 922 803 
Q 1097 803 1220 679 
Q 1344 556 1344 381 
Q 1344 206 1220 82 
Q 1097 -41 922 -41 
z
" transform="scale(0.015625)"/>
     <path id="Inter-Regular-66" d="M 2119 3494 
L 2119 3013 
L 1313 3013 
L 1313 0 
L 750 0 
L 750 3013 
L 63 3013 
L 63 3494 
L 750 3494 
L 750 3959 
Q 750 4263 892 4466 
Q 1034 4669 1262 4772 
Q 1491 4875 1744 4875 
Q 1944 4875 2075 4842 
Q 2206 4809 2269 4781 
L 2113 4300 
Q 2069 4316 1998 4334 
Q 1928 4353 1809 4353 
Q 1550 4353 1431 4220 
Q 1313 4088 1313 3834 
L 1313 3494 
L 2119 3494 
z
" transform="scale(0.015625)"/>
     <path id="Inter-Regular-54" d="M 306 4131 
L 306 4656 
L 3825 4656 
L 3825 4131 
L 2366 4131 
L 2366 0 
L 1772 0 
L 1772 4131 
L 306 4131 
z
" transform="scale(0.015625)"/>
     <path id="Inter-Regular-77" d="M 1278 0 
L 219 3494 
L 816 3494 
L 1241 1969 
Q 1316 1697 1403 1358 
Q 1491 1019 1575 603 
Q 1659 1003 1742 1340 
Q 1825 1678 1906 1969 
L 2325 3494 
L 2925 3494 
L 3338 1969 
Q 3413 1688 3495 1352 
Q 3578 1016 3659 613 
Q 3747 1013 3833 1348 
Q 3919 1684 3997 1969 
L 4422 3494 
L 5019 3494 
L 3959 0 
L 3400 0 
L 2947 1581 
Q 2859 1881 2779 2200 
Q 2700 2519 2619 2853 
Q 2541 2519 2458 2197 
Q 2375 1875 2291 1581 
L 1838 0 
L 1278 0 
z
" transform="scale(0.015625)"/>
     <path id="Inter-Regular-7a" d="M 394 0 
L 394 419 
L 2353 2938 
L 2353 2972 
L 456 2972 
L 456 3494 
L 3078 3494 
L 3078 3047 
L 1175 556 
L 1175 522 
L 3141 522 
L 3141 0 
L 394 0 
z
" transform="scale(0.015625)"/>
    </defs>
    <use xlink:href="#Inter-Regular-53"/>
    <use xlink:href="#Inter-Regular-6f" transform="translate(64.160156 0)"/>
    <use xlink:href="#Inter-Regular-75" transform="translate(124.121094 0)"/>
    <use xlink:href="#Inter-Regular-72" transform="translate(183.251953 0)"/>
    <use xlink:href="#Inter-Regular-63" transform="translate(220.898438 0)"/>
    <use xlink:href="#Inter-Regular-65" transform="translate(278.027344 0)"/>
    <use xlink:href="#Inter-Regular-73" transform="translate(336.328125 0)"/>
    <use xlink:href="#Inter-Regular-20" transform="translate(389.111328 0)"/>
    <use xlink:href="#Inter-Regular-3a" transform="translate(417.236328 0)"/>
    <use xlink:href="#Inter-Regular-20" transform="translate(446.044922 0)"/>
    <use xlink:href="#Inter-Regular-46" transform="translate(474.169922 0)"/>
    <use xlink:href="#Inter-Regular-72" transform="translate(533.203125 0)"/>
    <use xlink:href="#Inter-Regular-61" transform="translate(570.849609 0)"/>
    <use xlink:href="#Inter-Regular-6e" transform="translate(627.001953 0)"/>
    <use xlink:href="#Inter-Regular-63" transform="translate(686.083984 0)"/>
    <use xlink:href="#Inter-Regular-65" transform="translate(743.212891 0)"/>
    <use xlink:href="#Inter-Regular-20" transform="translate(801.513672 0)"/>
    <use xlink:href="#Inter-Regular-41" transform="translate(829.638672 0)"/>
    <use xlink:href="#Inter-Regular-73" transform="translate(898.632812 0)"/>
    <use xlink:href="#Inter-Regular-73" transform="translate(951.416016 0)"/>
    <use xlink:href="#Inter-Regular-75" transform="translate(1004.199219 0)"/>
    <use xlink:href="#Inter-Regular-72" transform="translate(1063.330078 0)"/>
    <use xlink:href="#Inter-Regular-65" transform="translate(1100.976562 0)"/>
    <use xlink:href="#Inter-Regular-75" transform="translate(1159.277344 0)"/>
    <use xlink:href="#Inter-Regular-72" transform="translate(1218.408203 0)"/>
    <use xlink:href="#Inter-Regular-73" transform="translate(1256.054688 0)"/>
    <use xlink:href="#Inter-Regular-2c" transform="translate(1308.837891 0)"/>
    <use xlink:href="#Inter-Regular-20" transform="translate(1337.646484 0)"/>
    <use xlink:href="#Inter-Regular-43" transform="translate(1365.771484 0)"/>
    <use xlink:href="#Inter-Regular-43" transform="translate(1438.818359 0)"/>
    <use xlink:href="#Inter-Regular-52" transform="translate(1511.865234 0)"/>
    <use xlink:href="#Inter-Regular-2c" transform="translate(1576.220703 0)"/>
    <use xlink:href="#Inter-Regular-20" transform="translate(1605.029297 0)"/>
    <use xlink:href="#Inter-Regular-53" transform="translate(1633.154297 0)"/>
    <use xlink:href="#Inter-Regular-65" transform="translate(1697.314453 0)"/>
    <use xlink:href="#Inter-Regular-72" transform="translate(1755.615234 0)"/>
    <use xlink:href="#Inter-Regular-76" transform="translate(1793.261719 0)"/>
    <use xlink:href="#Inter-Regular-69" transform="translate(1849.462891 0)"/>
    <use xlink:href="#Inter-Regular-63" transform="translate(1873.681641 0)"/>
    <use xlink:href="#Inter-Regular-65" transform="translate(1930.810547 0)"/>
    <use xlink:href="#Inter-Regular-2d" transform="translate(1989.111328 0)"/>
    <use xlink:href="#Inter-Regular-70" transform="translate(2035.107422 0)"/>
    <use xlink:href="#Inter-Regular-75" transform="translate(2096.337891 0)"/>
    <use xlink:href="#Inter-Regular-62" transform="translate(2155.46875 0)"/>
    <use xlink:href="#Inter-Regular-6c" transform="translate(2216.699219 0)"/>
    <use xlink:href="#Inter-Regular-69" transform="translate(2240.917969 0)"/>
    <use xlink:href="#Inter-Regular-63" transform="translate(2265.136719 0)"/>
    <use xlink:href="#Inter-Regular-2e" transform="translate(2322.265625 0)"/>
    <use xlink:href="#Inter-Regular-66" transform="translate(2351.074219 0)"/>
    <use xlink:href="#Inter-Regular-72" transform="translate(2388.085938 0)"/>
    <use xlink:href="#Inter-Regular-2e" transform="translate(2425.732422 0)"/>
    <use xlink:href="#Inter-Regular-20" transform="translate(2454.541016 0)"/>
    <use xlink:href="#Inter-Regular-54" transform="translate(2482.666016 0)"/>
    <use xlink:href="#Inter-Regular-61" transform="translate(2547.216797 0)"/>
    <use xlink:href="#Inter-Regular-77" transform="translate(2603.369141 0)"/>
    <use xlink:href="#Inter-Regular-69" transform="translate(2685.205078 0)"/>
    <use xlink:href="#Inter-Regular-7a" transform="translate(2709.423828 0)"/>
    <use xlink:href="#Inter-Regular-61" transform="translate(2764.648438 0)"/>
   </g>
  </g>
 </g>
 <defs>
  <clipPath id="p07ee9f4bd3">
   <rect x="67.710938" y="48.114844" width="558" height="367.92"/>
  </clipPath>
 </defs>
</svg>
