<?xml version="1.0" encoding="utf-8" standalone="no"?>
<!DOCTYPE svg PUBLIC "-//W3C//DTD SVG 1.1//EN"
  "http://www.w3.org/Graphics/SVG/1.1/DTD/svg11.dtd">
<svg xmlns:xlink="http://www.w3.org/1999/xlink" width="749.796563pt" height="464.005781pt" viewBox="0 0 749.796563 464.005781" xmlns="http://www.w3.org/2000/svg" version="1.1">
 <metadata>
  <rdf:RDF xmlns:dc="http://purl.org/dc/elements/1.1/" xmlns:cc="http://creativecommons.org/ns#" xmlns:rdf="http://www.w3.org/1999/02/22-rdf-syntax-ns#">
   <cc:Work>
    <dc:type rdf:resource="http://purl.org/dc/dcmitype/StillImage"/>
    <dc:date>2026-04-11T13:40:04.521334</dc:date>
    <dc:format>image/svg+xml</dc:format>
    <dc:creator>
     <cc:Agent>
      <dc:title>Matplotlib v3.10.7, https://matplotlib.org/</dc:title>
     </cc:Agent>
    </dc:creator>
   </cc:Work>
  </rdf:RDF>
 </metadata>
 <defs>
  <style type="text/css">*{stroke-linejoin: round; stroke-linecap: butt}</style>
 </defs>
 <g id="figure_1">
  <g id="patch_1">
   <path d="M 0 464.005781 
L 749.796563 464.005781 
L 749.796563 0 
L 0 0 
z
" style="fill: #fafaf9"/>
  </g>
  <g id="axes_1">
   <g id="patch_2">
    <path d="M 62.867031 374.947188 
L 680.627031 374.947188 
L 680.627031 47.347188 
L 62.867031 47.347188 
z
" style="fill: #fafaf9"/>
   </g>
   <g id="matplotlib.axis_1">
    <g id="xtick_1">
     <g id="line2d_1">
      <path d="M 90.947031 374.947188 
L 90.947031 47.347188 
" clip-path="url(#pe154191174)" style="fill: none; stroke: #e7e5e4; stroke-opacity: 0.7; stroke-width: 0.4; stroke-linecap: square"/>
     </g>
     <g id="line2d_2"/>
     <g id="text_1">
      <!-- 2000 -->
      <g style="fill: #78716c" transform="translate(78.43375 385.722188) scale(0.1 -0.1)">
       <defs>
        <path id="Inter-Regular-32" d="M 481 0 
L 481 428 
L 2028 2106 
Q 2288 2388 2459 2600 
Q 2631 2813 2718 3005 
Q 2806 3197 2806 3413 
Q 2806 3778 2554 3990 
Q 2303 4203 1931 4203 
Q 1534 4203 1298 3965 
Q 1063 3728 1063 3334 
L 494 3334 
Q 494 3747 684 4059 
Q 875 4372 1203 4545 
Q 1531 4719 1947 4719 
Q 2363 4719 2683 4545 
Q 3003 4372 3186 4078 
Q 3369 3784 3369 3419 
Q 3369 3166 3278 2927 
Q 3188 2688 2959 2384 
Q 2731 2081 2319 1644 
L 1300 559 
L 1300 522 
L 3447 522 
L 3447 0 
L 481 0 
z
" transform="scale(0.015625)"/>
        <path id="Inter-Regular-30" d="M 2019 -63 
Q 1241 -63 811 562 
Q 381 1188 381 2325 
Q 381 3456 814 4087 
Q 1247 4719 2019 4719 
Q 2794 4719 3225 4087 
Q 3656 3456 3656 2325 
Q 3656 1188 3228 562 
Q 2800 -63 2019 -63 
z
M 2019 456 
Q 2531 456 2807 948 
Q 3084 1441 3084 2325 
Q 3084 3216 2807 3709 
Q 2531 4203 2019 4203 
Q 1509 4203 1231 3708 
Q 953 3213 953 2325 
Q 953 1441 1231 948 
Q 1509 456 2019 456 
z
" transform="scale(0.015625)"/>
       </defs>
       <use xlink:href="#Inter-Regular-32"/>
       <use xlink:href="#Inter-Regular-30" transform="translate(60.986328 0)"/>
       <use xlink:href="#Inter-Regular-30" transform="translate(124.072266 0)"/>
       <use xlink:href="#Inter-Regular-30" transform="translate(187.158203 0)"/>
      </g>
     </g>
    </g>
    <g id="xtick_2">
     <g id="line2d_3">
      <path d="M 213.033988 374.947188 
L 213.033988 47.347188 
" clip-path="url(#pe154191174)" style="fill: none; stroke: #e7e5e4; stroke-opacity: 0.7; stroke-width: 0.4; stroke-linecap: square"/>
     </g>
     <g id="line2d_4"/>
     <g id="text_2">
      <!-- 2005 -->
      <g style="fill: #78716c" transform="translate(200.708988 385.722188) scale(0.1 -0.1)">
       <defs>
        <path id="Inter-Regular-35" d="M 1863 -63 
Q 1453 -63 1128 98 
Q 803 259 609 539 
Q 416 819 400 1175 
L 975 1175 
Q 1003 863 1258 661 
Q 1513 459 1863 459 
Q 2144 459 2364 590 
Q 2584 722 2709 953 
Q 2834 1184 2834 1478 
Q 2834 1778 2703 2015 
Q 2572 2253 2345 2389 
Q 2119 2525 1825 2525 
Q 1609 2525 1387 2456 
Q 1166 2388 1028 2281 
L 472 2350 
L 747 4656 
L 3197 4656 
L 3197 4134 
L 1247 4134 
L 1088 2775 
L 1113 2775 
Q 1256 2894 1475 2970 
Q 1694 3047 1934 3047 
Q 2363 3047 2697 2845 
Q 3031 2644 3223 2291 
Q 3416 1938 3416 1488 
Q 3416 1041 3214 691 
Q 3013 341 2663 139 
Q 2313 -63 1863 -63 
z
" transform="scale(0.015625)"/>
       </defs>
       <use xlink:href="#Inter-Regular-32"/>
       <use xlink:href="#Inter-Regular-30" transform="translate(60.986328 0)"/>
       <use xlink:href="#Inter-Regular-30" transform="translate(124.072266 0)"/>
       <use xlink:href="#Inter-Regular-35" transform="translate(187.158203 0)"/>
      </g>
     </g>
    </g>
    <g id="xtick_3">
     <g id="line2d_5">
      <path d="M 335.120944 374.947188 
L 335.120944 47.347188 
" clip-path="url(#pe154191174)" style="fill: none; stroke: #e7e5e4; stroke-opacity: 0.7; stroke-width: 0.4; stroke-linecap: square"/>
     </g>
     <g id="line2d_6"/>
     <g id="text_3">
      <!-- 2010 -->
      <g style="fill: #78716c" transform="translate(323.728757 385.722188) scale(0.1 -0.1)">
       <defs>
        <path id="Inter-Regular-31" d="M 2041 4656 
L 2041 0 
L 1456 0 
L 1456 4106 
L 1425 4106 
L 300 3272 
L 300 3909 
L 1313 4656 
L 2041 4656 
z
" transform="scale(0.015625)"/>
       </defs>
       <use xlink:href="#Inter-Regular-32"/>
       <use xlink:href="#Inter-Regular-30" transform="translate(60.986328 0)"/>
       <use xlink:href="#Inter-Regular-31" transform="translate(124.072266 0)"/>
       <use xlink:href="#Inter-Regular-30" transform="translate(164.746094 0)"/>
      </g>
     </g>
    </g>
    <g id="xtick_4">
     <g id="line2d_7">
      <path d="M 457.207901 374.947188 
L 457.207901 47.347188 
" clip-path="url(#pe154191174)" style="fill: none; stroke: #e7e5e4; stroke-opacity: 0.7; stroke-width: 0.4; stroke-linecap: square"/>
     </g>
     <g id="line2d_8"/>
     <g id="text_4">
      <!-- 2015 -->
      <g style="fill: #78716c" transform="translate(446.003995 385.722188) scale(0.1 -0.1)">
       <use xlink:href="#Inter-Regular-32"/>
       <use xlink:href="#Inter-Regular-30" transform="translate(60.986328 0)"/>
       <use xlink:href="#Inter-Regular-31" transform="translate(124.072266 0)"/>
       <use xlink:href="#Inter-Regular-35" transform="translate(164.746094 0)"/>
      </g>
     </g>
    </g>
    <g id="xtick_5">
     <g id="line2d_9">
      <path d="M 579.294857 374.947188 
L 579.294857 47.347188 
" clip-path="url(#pe154191174)" style="fill: none; stroke: #e7e5e4; stroke-opacity: 0.7; stroke-width: 0.4; stroke-linecap: square"/>
     </g>
     <g id="line2d_10"/>
     <g id="text_5">
      <!-- 2020 -->
      <g style="fill: #78716c" transform="translate(566.887045 385.722188) scale(0.1 -0.1)">
       <use xlink:href="#Inter-Regular-32"/>
       <use xlink:href="#Inter-Regular-30" transform="translate(60.986328 0)"/>
       <use xlink:href="#Inter-Regular-32" transform="translate(124.072266 0)"/>
       <use xlink:href="#Inter-Regular-30" transform="translate(185.058594 0)"/>
      </g>
     </g>
    </g>
    <g id="text_6">
     <!-- Année -->
     <g style="fill: #78716c" transform="translate(355.040781 403.765313) scale(0.11 -0.11)">
      <defs>
       <path id="Inter-Regular-41" d="M 163 0 
L 1853 4656 
L 2541 4656 
L 4253 0 
L 3628 0 
L 3163 1300 
L 1244 1300 
L 794 0 
L 163 0 
z
M 1425 1819 
L 2978 1819 
L 2641 2763 
Q 2556 2997 2450 3336 
Q 2344 3675 2194 4181 
Q 2047 3666 1937 3322 
Q 1828 2978 1753 2763 
L 1425 1819 
z
" transform="scale(0.015625)"/>
       <path id="Inter-Regular-6e" d="M 1056 2094 
L 1056 0 
L 494 0 
L 494 3494 
L 1034 3494 
L 1038 2847 
Q 1206 3219 1479 3378 
Q 1753 3538 2106 3538 
Q 2638 3538 2963 3209 
Q 3288 2881 3288 2219 
L 3288 0 
L 2725 0 
L 2725 2172 
Q 2725 2575 2514 2803 
Q 2303 3031 1938 3031 
Q 1559 3031 1307 2786 
Q 1056 2541 1056 2094 
z
" transform="scale(0.015625)"/>
       <path id="Inter-Regular-e9" d="M 1963 -75 
Q 1456 -75 1089 150 
Q 722 375 523 778 
Q 325 1181 325 1719 
Q 325 2256 519 2665 
Q 713 3075 1067 3306 
Q 1422 3538 1897 3538 
Q 2175 3538 2445 3445 
Q 2716 3353 2936 3148 
Q 3156 2944 3287 2609 
Q 3419 2275 3419 1791 
L 3419 1556 
L 894 1556 
Q 916 1009 1208 717 
Q 1500 425 1966 425 
Q 2275 425 2498 561 
Q 2722 697 2819 963 
L 3363 813 
Q 3241 416 2870 170 
Q 2500 -75 1963 -75 
z
M 897 2031 
L 2847 2031 
Q 2806 2478 2567 2758 
Q 2328 3038 1897 3038 
Q 1597 3038 1380 2897 
Q 1163 2756 1038 2528 
Q 913 2300 897 2031 
z
M 1637 3950 
L 2075 4869 
L 2703 4869 
L 2096 3950 
L 1637 3950 
z
" transform="scale(0.015625)"/>
       <path id="Inter-Regular-65" d="M 1963 -75 
Q 1456 -75 1089 150 
Q 722 375 523 778 
Q 325 1181 325 1719 
Q 325 2256 519 2665 
Q 713 3075 1067 3306 
Q 1422 3538 1897 3538 
Q 2175 3538 2445 3445 
Q 2716 3353 2936 3148 
Q 3156 2944 3287 2609 
Q 3419 2275 3419 1791 
L 3419 1556 
L 894 1556 
Q 916 1009 1208 717 
Q 1500 425 1966 425 
Q 2275 425 2498 561 
Q 2722 697 2819 963 
L 3363 813 
Q 3241 416 2870 170 
Q 2500 -75 1963 -75 
z
M 897 2031 
L 2847 2031 
Q 2806 2478 2567 2758 
Q 2328 3038 1897 3038 
Q 1597 3038 1380 2897 
Q 1163 2756 1038 2528 
Q 913 2300 897 2031 
z
" transform="scale(0.015625)"/>
      </defs>
      <use xlink:href="#Inter-Regular-41"/>
      <use xlink:href="#Inter-Regular-6e" transform="translate(68.994141 0)"/>
      <use xlink:href="#Inter-Regular-6e" transform="translate(128.076172 0)"/>
      <use xlink:href="#Inter-Regular-e9" transform="translate(187.158203 0)"/>
      <use xlink:href="#Inter-Regular-65" transform="translate(245.458984 0)"/>
     </g>
    </g>
   </g>
   <g id="matplotlib.axis_2">
    <g id="ytick_1">
     <g id="line2d_11">
      <path d="M 62.867031 374.947188 
L 680.627031 374.947188 
" clip-path="url(#pe154191174)" style="fill: none; stroke: #e7e5e4; stroke-opacity: 0.7; stroke-width: 0.4; stroke-linecap: square"/>
     </g>
     <g id="line2d_12"/>
     <g id="text_7">
      <!-- 0 -->
      <g style="fill: #7c6f64" transform="translate(53.057656 378.584688) scale(0.1 -0.1)">
       <use xlink:href="#Inter-Regular-30"/>
      </g>
     </g>
    </g>
    <g id="ytick_2">
     <g id="line2d_13">
      <path d="M 62.867031 324.547188 
L 680.627031 324.547188 
" clip-path="url(#pe154191174)" style="fill: none; stroke: #e7e5e4; stroke-opacity: 0.7; stroke-width: 0.4; stroke-linecap: square"/>
     </g>
     <g id="line2d_14"/>
     <g id="text_8">
      <!-- 100 -->
      <g style="fill: #7c6f64" transform="translate(42.681094 328.184687) scale(0.1 -0.1)">
       <use xlink:href="#Inter-Regular-31"/>
       <use xlink:href="#Inter-Regular-30" transform="translate(40.673828 0)"/>
       <use xlink:href="#Inter-Regular-30" transform="translate(103.759766 0)"/>
      </g>
     </g>
    </g>
    <g id="ytick_3">
     <g id="line2d_15">
      <path d="M 62.867031 274.147188 
L 680.627031 274.147188 
" clip-path="url(#pe154191174)" style="fill: none; stroke: #e7e5e4; stroke-opacity: 0.7; stroke-width: 0.4; stroke-linecap: square"/>
     </g>
     <g id="line2d_16"/>
     <g id="text_9">
      <!-- 200 -->
      <g style="fill: #7c6f64" transform="translate(40.649844 277.784688) scale(0.1 -0.1)">
       <use xlink:href="#Inter-Regular-32"/>
       <use xlink:href="#Inter-Regular-30" transform="translate(60.986328 0)"/>
       <use xlink:href="#Inter-Regular-30" transform="translate(124.072266 0)"/>
      </g>
     </g>
    </g>
    <g id="ytick_4">
     <g id="line2d_17">
      <path d="M 62.867031 223.747188 
L 680.627031 223.747188 
" clip-path="url(#pe154191174)" style="fill: none; stroke: #e7e5e4; stroke-opacity: 0.7; stroke-width: 0.4; stroke-linecap: square"/>
     </g>
     <g id="line2d_18"/>
     <g id="text_10">
      <!-- 300 -->
      <g style="fill: #7c6f64" transform="translate(40.571719 227.384688) scale(0.1 -0.1)">
       <defs>
        <path id="Inter-Regular-33" d="M 1984 -63 
Q 1528 -63 1175 93 
Q 822 250 614 528 
Q 406 806 391 1175 
L 991 1175 
Q 1016 844 1297 651 
Q 1578 459 1975 459 
Q 2413 459 2698 684 
Q 2984 909 2984 1272 
Q 2984 1650 2703 1889 
Q 2422 2128 1903 2128 
L 1525 2128 
L 1525 2644 
L 1903 2644 
Q 2313 2644 2567 2861 
Q 2822 3078 2822 3438 
Q 2822 3784 2597 3993 
Q 2372 4203 1991 4203 
Q 1753 4203 1545 4117 
Q 1338 4031 1205 3872 
Q 1072 3713 1063 3484 
L 491 3484 
Q 503 3850 709 4128 
Q 916 4406 1255 4562 
Q 1594 4719 2003 4719 
Q 2438 4719 2752 4544 
Q 3066 4369 3234 4084 
Q 3403 3800 3403 3469 
Q 3403 3075 3195 2800 
Q 2988 2525 2631 2419 
L 2631 2381 
Q 3078 2309 3325 2007 
Q 3572 1706 3572 1266 
Q 3572 884 3365 584 
Q 3159 284 2800 110 
Q 2441 -63 1984 -63 
z
" transform="scale(0.015625)"/>
       </defs>
       <use xlink:href="#Inter-Regular-33"/>
       <use xlink:href="#Inter-Regular-30" transform="translate(61.767578 0)"/>
       <use xlink:href="#Inter-Regular-30" transform="translate(124.853516 0)"/>
      </g>
     </g>
    </g>
    <g id="ytick_5">
     <g id="line2d_19">
      <path d="M 62.867031 173.347188 
L 680.627031 173.347188 
" clip-path="url(#pe154191174)" style="fill: none; stroke: #e7e5e4; stroke-opacity: 0.7; stroke-width: 0.4; stroke-linecap: square"/>
     </g>
     <g id="line2d_20"/>
     <g id="text_11">
      <!-- 400 -->
      <g style="fill: #7c6f64" transform="translate(40.288906 176.984688) scale(0.1 -0.1)">
       <defs>
        <path id="Inter-Regular-34" d="M 375 947 
L 375 1431 
L 2413 4656 
L 3134 4656 
L 3134 1469 
L 3766 1469 
L 3766 947 
L 3134 947 
L 3134 0 
L 2566 0 
L 2566 947 
L 375 947 
z
M 2569 1469 
L 2569 3913 
L 2531 3913 
L 1009 1506 
L 1009 1469 
L 2569 1469 
z
" transform="scale(0.015625)"/>
       </defs>
       <use xlink:href="#Inter-Regular-34"/>
       <use xlink:href="#Inter-Regular-30" transform="translate(64.599609 0)"/>
       <use xlink:href="#Inter-Regular-30" transform="translate(127.685547 0)"/>
      </g>
     </g>
    </g>
    <g id="ytick_6">
     <g id="line2d_21">
      <path d="M 62.867031 122.947188 
L 680.627031 122.947188 
" clip-path="url(#pe154191174)" style="fill: none; stroke: #e7e5e4; stroke-opacity: 0.7; stroke-width: 0.4; stroke-linecap: square"/>
     </g>
     <g id="line2d_22"/>
     <g id="text_12">
      <!-- 500 -->
      <g style="fill: #7c6f64" transform="translate(40.815469 126.584688) scale(0.1 -0.1)">
       <use xlink:href="#Inter-Regular-35"/>
       <use xlink:href="#Inter-Regular-30" transform="translate(59.326172 0)"/>
       <use xlink:href="#Inter-Regular-30" transform="translate(122.412109 0)"/>
      </g>
     </g>
    </g>
    <g id="ytick_7">
     <g id="line2d_23">
      <path d="M 62.867031 72.547188 
L 680.627031 72.547188 
" clip-path="url(#pe154191174)" style="fill: none; stroke: #e7e5e4; stroke-opacity: 0.7; stroke-width: 0.4; stroke-linecap: square"/>
     </g>
     <g id="line2d_24"/>
     <g id="text_13">
      <!-- 600 -->
      <g style="fill: #7c6f64" transform="translate(40.546719 76.184688) scale(0.1 -0.1)">
       <defs>
        <path id="Inter-Regular-36" d="M 2019 -63 
Q 1728 -63 1437 43 
Q 1147 150 908 400 
Q 669 650 525 1078 
Q 381 1506 381 2150 
Q 381 3378 840 4048 
Q 1300 4719 2091 4719 
Q 2481 4719 2790 4562 
Q 3100 4406 3297 4128 
Q 3494 3850 3550 3484 
L 2969 3484 
Q 2891 3788 2672 3991 
Q 2453 4194 2091 4194 
Q 1553 4194 1248 3730 
Q 944 3266 944 2425 
L 981 2425 
Q 1169 2716 1467 2880 
Q 1766 3044 2128 3044 
Q 2528 3044 2859 2847 
Q 3191 2650 3389 2301 
Q 3588 1953 3588 1503 
Q 3588 1069 3394 714 
Q 3200 359 2847 148 
Q 2494 -63 2019 -63 
z
M 2019 459 
Q 2300 459 2525 600 
Q 2750 741 2881 977 
Q 3013 1213 3013 1503 
Q 3013 1788 2886 2020 
Q 2759 2253 2537 2390 
Q 2316 2528 2034 2528 
Q 1753 2528 1525 2384 
Q 1297 2241 1162 2005 
Q 1028 1769 1028 1497 
Q 1028 1222 1156 986 
Q 1284 750 1509 604 
Q 1734 459 2019 459 
z
" transform="scale(0.015625)"/>
       </defs>
       <use xlink:href="#Inter-Regular-36"/>
       <use xlink:href="#Inter-Regular-30" transform="translate(62.011719 0)"/>
       <use xlink:href="#Inter-Regular-30" transform="translate(125.097656 0)"/>
      </g>
     </g>
    </g>
    <g id="text_14">
     <!-- DICRIM publiés par an -->
     <g style="fill: #7c6f64" transform="translate(30.044219 270.132109) rotate(-90) scale(0.11 -0.11)">
      <defs>
       <path id="Inter-Bold-44" d="M 2059 0 
L 422 0 
L 422 4656 
L 2075 4656 
Q 2775 4656 3279 4376 
Q 3784 4097 4056 3576 
Q 4328 3056 4328 2331 
Q 4328 1603 4056 1081 
Q 3784 559 3275 279 
Q 2766 0 2059 0 
z
M 1375 822 
L 2013 822 
Q 2684 822 3031 1184 
Q 3378 1547 3378 2331 
Q 3378 3113 3033 3473 
Q 2688 3834 2019 3834 
L 1375 3834 
L 1375 822 
z
" transform="scale(0.015625)"/>
       <path id="Inter-Bold-49" d="M 1375 4656 
L 1375 0 
L 422 0 
L 422 4656 
L 1375 4656 
z
" transform="scale(0.015625)"/>
       <path id="Inter-Bold-43" d="M 2456 -63 
Q 1834 -63 1346 218 
Q 859 500 576 1034 
Q 294 1569 294 2325 
Q 294 3084 578 3620 
Q 863 4156 1353 4437 
Q 1844 4719 2456 4719 
Q 2984 4719 3412 4523 
Q 3841 4328 4116 3958 
Q 4391 3588 4459 3066 
L 3494 3066 
Q 3428 3444 3151 3658 
Q 2875 3872 2475 3872 
Q 1931 3872 1597 3469 
Q 1263 3066 1263 2325 
Q 1263 1569 1598 1176 
Q 1934 784 2472 784 
Q 2869 784 3148 998 
Q 3428 1213 3497 1594 
L 4463 1594 
Q 4409 1159 4156 782 
Q 3903 406 3473 171 
Q 3044 -63 2456 -63 
z
" transform="scale(0.015625)"/>
       <path id="Inter-Bold-52" d="M 422 0 
L 422 4656 
L 2238 4656 
Q 3031 4656 3467 4242 
Q 3903 3828 3903 3141 
Q 3903 2663 3690 2323 
Q 3478 1984 3078 1816 
L 4069 0 
L 3013 0 
L 2125 1663 
L 1375 1663 
L 1375 0 
L 422 0 
z
M 1375 2434 
L 2063 2434 
Q 2919 2434 2919 3141 
Q 2919 3494 2708 3681 
Q 2497 3869 2059 3869 
L 1375 3869 
L 1375 2434 
z
" transform="scale(0.015625)"/>
       <path id="Inter-Bold-4d" d="M 422 0 
L 422 4656 
L 1884 4656 
L 2641 2519 
Q 2688 2372 2747 2134 
Q 2806 1897 2870 1623 
Q 2934 1350 2988 1097 
Q 3041 1347 3103 1620 
Q 3166 1894 3225 2131 
Q 3284 2369 3331 2519 
L 4075 4656 
L 5544 4656 
L 5544 0 
L 4584 0 
L 4584 2197 
Q 4584 2372 4592 2644 
Q 4600 2916 4608 3228 
Q 4616 3541 4619 3834 
Q 4541 3522 4455 3206 
Q 4369 2891 4291 2627 
Q 4213 2363 4156 2197 
L 3384 0 
L 2581 0 
L 1797 2197 
Q 1744 2356 1667 2612 
Q 1591 2869 1503 3176 
Q 1416 3484 1334 3797 
Q 1341 3516 1348 3211 
Q 1356 2906 1362 2639 
Q 1369 2372 1369 2197 
L 1369 0 
L 422 0 
z
" transform="scale(0.015625)"/>
       <path id="Inter-Bold-20" transform="scale(0.015625)"/>
       <path id="Inter-Bold-70" d="M 400 -1306 
L 400 3494 
L 1322 3494 
L 1322 2906 
L 1366 2906 
Q 1428 3044 1548 3191 
Q 1669 3338 1867 3438 
Q 2066 3538 2363 3538 
Q 2750 3538 3072 3338 
Q 3394 3138 3586 2738 
Q 3778 2338 3778 1741 
Q 3778 1159 3590 757 
Q 3403 356 3081 148 
Q 2759 -59 2356 -59 
Q 2072 -59 1875 37 
Q 1678 134 1554 276 
Q 1431 419 1366 559 
L 1338 559 
L 1338 -1306 
L 400 -1306 
z
M 2069 694 
Q 2434 694 2626 987 
Q 2819 1281 2819 1744 
Q 2819 2203 2628 2495 
Q 2438 2788 2069 2788 
Q 1706 2788 1511 2503 
Q 1316 2219 1316 1744 
Q 1316 1269 1512 981 
Q 1709 694 2069 694 
z
" transform="scale(0.015625)"/>
       <path id="Inter-Bold-75" d="M 1603 -44 
Q 1059 -44 729 306 
Q 400 656 400 1272 
L 400 3494 
L 1338 3494 
L 1338 1434 
Q 1338 1109 1506 925 
Q 1675 741 1969 741 
Q 2269 741 2458 933 
Q 2647 1125 2647 1472 
L 2647 3494 
L 3588 3494 
L 3588 0 
L 2700 0 
L 2688 725 
Q 2541 353 2270 154 
Q 2000 -44 1603 -44 
z
" transform="scale(0.015625)"/>
       <path id="Inter-Bold-62" d="M 2356 -59 
Q 2072 -59 1875 37 
Q 1678 134 1554 276 
Q 1431 419 1366 559 
L 1322 559 
L 1322 0 
L 400 0 
L 400 4656 
L 1338 4656 
L 1338 2906 
L 1366 2906 
Q 1428 3044 1548 3191 
Q 1669 3338 1867 3438 
Q 2066 3538 2363 3538 
Q 2750 3538 3072 3338 
Q 3394 3138 3586 2738 
Q 3778 2338 3778 1741 
Q 3778 1159 3590 757 
Q 3403 356 3081 148 
Q 2759 -59 2356 -59 
z
M 2069 694 
Q 2434 694 2626 987 
Q 2819 1281 2819 1744 
Q 2819 2203 2628 2495 
Q 2438 2788 2069 2788 
Q 1706 2788 1511 2503 
Q 1316 2219 1316 1744 
Q 1316 1269 1512 981 
Q 1709 694 2069 694 
z
" transform="scale(0.015625)"/>
       <path id="Inter-Bold-6c" d="M 1338 4656 
L 1338 0 
L 400 0 
L 400 4656 
L 1338 4656 
z
" transform="scale(0.015625)"/>
       <path id="Inter-Bold-69" d="M 400 0 
L 400 3494 
L 1338 3494 
L 1338 0 
L 400 0 
z
M 871 3950 
Q 658 3950 508 4090 
Q 358 4231 358 4431 
Q 358 4631 508 4772 
Q 658 4913 871 4913 
Q 1083 4913 1234 4772 
Q 1386 4631 1386 4431 
Q 1386 4231 1234 4090 
Q 1083 3950 871 3950 
z
" transform="scale(0.015625)"/>
       <path id="Inter-Bold-e9" d="M 1978 -69 
Q 1444 -69 1056 150 
Q 669 369 461 772 
Q 253 1175 253 1728 
Q 253 2269 461 2675 
Q 669 3081 1045 3309 
Q 1422 3538 1931 3538 
Q 2388 3538 2759 3344 
Q 3131 3150 3351 2756 
Q 3572 2363 3572 1766 
L 3572 1503 
L 1181 1503 
Q 1197 1075 1419 856 
Q 1641 638 1994 638 
Q 2241 638 2417 742 
Q 2594 847 2669 1050 
L 3519 891 
Q 3391 456 2989 193 
Q 2588 -69 1978 -69 
z
M 1188 2091 
L 2669 2091 
Q 2634 2431 2450 2631 
Q 2266 2831 1941 2831 
Q 1603 2831 1409 2623 
Q 1216 2416 1188 2091 
z
M 1576 3938 
L 2011 4909 
L 2879 4909 
L 2232 3938 
L 1576 3938 
z
" transform="scale(0.015625)"/>
       <path id="Inter-Bold-73" d="M 1788 -69 
Q 1156 -69 745 200 
Q 334 469 244 956 
L 1116 1106 
Q 1250 619 1816 619 
Q 2084 619 2239 720 
Q 2394 822 2394 978 
Q 2394 1244 1944 1338 
L 1341 1463 
Q 334 1669 334 2453 
Q 334 2956 737 3247 
Q 1141 3538 1803 3538 
Q 2425 3538 2794 3284 
Q 3163 3031 3259 2606 
L 2428 2459 
Q 2372 2638 2222 2752 
Q 2072 2866 1816 2866 
Q 1584 2866 1428 2767 
Q 1272 2669 1272 2513 
Q 1272 2381 1373 2289 
Q 1475 2197 1722 2147 
L 2350 2022 
Q 3350 1819 3350 1078 
Q 3350 734 3150 476 
Q 2950 219 2597 75 
Q 2244 -69 1788 -69 
z
" transform="scale(0.015625)"/>
       <path id="Inter-Bold-61" d="M 1375 -69 
Q 875 -69 544 195 
Q 213 459 213 978 
Q 213 1369 400 1591 
Q 588 1813 888 1916 
Q 1188 2019 1531 2050 
Q 1981 2094 2179 2142 
Q 2378 2191 2378 2363 
L 2378 2378 
Q 2378 2600 2236 2722 
Q 2094 2844 1831 2844 
Q 1559 2844 1393 2726 
Q 1228 2609 1172 2441 
L 313 2584 
Q 447 3038 848 3288 
Q 1250 3538 1834 3538 
Q 2209 3538 2548 3419 
Q 2888 3300 3102 3039 
Q 3316 2778 3316 2353 
L 3316 0 
L 2428 0 
L 2428 484 
L 2397 484 
Q 2269 241 2016 86 
Q 1763 -69 1375 -69 
z
M 1641 591 
Q 1969 591 2176 781 
Q 2384 972 2384 1250 
L 2384 1628 
Q 2328 1588 2201 1558 
Q 2075 1528 1934 1504 
Q 1794 1481 1691 1469 
Q 1431 1431 1272 1322 
Q 1113 1213 1113 1003 
Q 1113 800 1261 695 
Q 1409 591 1641 591 
z
" transform="scale(0.015625)"/>
       <path id="Inter-Bold-72" d="M 400 0 
L 400 3494 
L 1306 3494 
L 1306 2884 
L 1344 2884 
Q 1441 3206 1667 3373 
Q 1894 3541 2188 3541 
Q 2347 3541 2491 3509 
L 2491 2672 
Q 2428 2691 2308 2705 
Q 2188 2719 2084 2719 
Q 1759 2719 1548 2516 
Q 1338 2313 1338 1988 
L 1338 0 
L 400 0 
z
" transform="scale(0.015625)"/>
       <path id="Inter-Bold-6e" d="M 1338 2022 
L 1338 0 
L 400 0 
L 400 3494 
L 1284 3494 
L 1297 2772 
Q 1444 3138 1712 3338 
Q 1981 3538 2384 3538 
Q 2928 3538 3256 3188 
Q 3584 2838 3584 2222 
L 3584 0 
L 2647 0 
L 2647 2059 
Q 2647 2384 2480 2568 
Q 2313 2753 2016 2753 
Q 1716 2753 1527 2561 
Q 1338 2369 1338 2022 
z
" transform="scale(0.015625)"/>
      </defs>
      <use xlink:href="#Inter-Bold-44"/>
      <use xlink:href="#Inter-Bold-49" transform="translate(72.216797 0)"/>
      <use xlink:href="#Inter-Bold-43" transform="translate(100.292969 0)"/>
      <use xlink:href="#Inter-Bold-52" transform="translate(174.267578 0)"/>
      <use xlink:href="#Inter-Bold-49" transform="translate(239.941406 0)"/>
      <use xlink:href="#Inter-Bold-4d" transform="translate(268.017578 0)"/>
      <use xlink:href="#Inter-Bold-20" transform="translate(361.181641 0)"/>
      <use xlink:href="#Inter-Bold-70" transform="translate(384.863281 0)"/>
      <use xlink:href="#Inter-Bold-75" transform="translate(447.900391 0)"/>
      <use xlink:href="#Inter-Bold-62" transform="translate(510.15625 0)"/>
      <use xlink:href="#Inter-Bold-6c" transform="translate(573.193359 0)"/>
      <use xlink:href="#Inter-Bold-69" transform="translate(600.292969 0)"/>
      <use xlink:href="#Inter-Bold-e9" transform="translate(627.392578 0)"/>
      <use xlink:href="#Inter-Bold-73" transform="translate(686.962891 0)"/>
      <use xlink:href="#Inter-Bold-20" transform="translate(742.96875 0)"/>
      <use xlink:href="#Inter-Bold-70" transform="translate(766.650391 0)"/>
      <use xlink:href="#Inter-Bold-61" transform="translate(829.6875 0)"/>
      <use xlink:href="#Inter-Bold-72" transform="translate(887.744141 0)"/>
      <use xlink:href="#Inter-Bold-20" transform="translate(928.466797 0)"/>
      <use xlink:href="#Inter-Bold-61" transform="translate(952.148438 0)"/>
      <use xlink:href="#Inter-Bold-6e" transform="translate(1010.205078 0)"/>
     </g>
    </g>
   </g>
   <g id="line2d_25">
    <path d="M 90.947031 342.187188 
L 115.364423 347.731188 
L 139.781814 333.115188 
L 164.199205 353.275188 
L 188.616596 361.843188 
L 213.033988 354.787188 
L 237.451379 353.779188 
L 261.86877 256.003188 
L 286.286162 334.627188 
L 310.703553 275.659188 
L 335.120944 238.867188 
L 359.538336 252.475188 
L 383.955727 226.267188 
L 408.373118 107.323188 
L 432.79051 275.155188 
L 457.207901 183.931188 
L 481.625292 274.651188 
L 506.042683 300.355188 
L 530.460075 309.931188 
L 554.877466 321.523188 
L 579.294857 286.243188 
L 603.712249 320.011188 
L 628.12964 321.523188 
L 652.547031 333.619188 
" clip-path="url(#pe154191174)" style="fill: none; stroke: #7c6f64; stroke-width: 3; stroke-linecap: square"/>
    <defs>
     <path id="me62ec0232d" d="M 0 3 
C 0.795609 3 1.55874 2.683901 2.12132 2.12132 
C 2.683901 1.55874 3 0.795609 3 0 
C 3 -0.795609 2.683901 -1.55874 2.12132 -2.12132 
C 1.55874 -2.683901 0.795609 -3 0 -3 
C -0.795609 -3 -1.55874 -2.683901 -2.12132 -2.12132 
C -2.683901 -1.55874 -3 -0.795609 -3 0 
C -3 0.795609 -2.683901 1.55874 -2.12132 2.12132 
C -1.55874 2.683901 -0.795609 3 0 3 
z
" style="stroke: #7c6f64"/>
    </defs>
    <g clip-path="url(#pe154191174)">
     <use xlink:href="#me62ec0232d" x="90.947031" y="342.187188" style="fill: #7c6f64; stroke: #7c6f64"/>
     <use xlink:href="#me62ec0232d" x="115.364423" y="347.731188" style="fill: #7c6f64; stroke: #7c6f64"/>
     <use xlink:href="#me62ec0232d" x="139.781814" y="333.115188" style="fill: #7c6f64; stroke: #7c6f64"/>
     <use xlink:href="#me62ec0232d" x="164.199205" y="353.275188" style="fill: #7c6f64; stroke: #7c6f64"/>
     <use xlink:href="#me62ec0232d" x="188.616596" y="361.843188" style="fill: #7c6f64; stroke: #7c6f64"/>
     <use xlink:href="#me62ec0232d" x="213.033988" y="354.787188" style="fill: #7c6f64; stroke: #7c6f64"/>
     <use xlink:href="#me62ec0232d" x="237.451379" y="353.779188" style="fill: #7c6f64; stroke: #7c6f64"/>
     <use xlink:href="#me62ec0232d" x="261.86877" y="256.003188" style="fill: #7c6f64; stroke: #7c6f64"/>
     <use xlink:href="#me62ec0232d" x="286.286162" y="334.627188" style="fill: #7c6f64; stroke: #7c6f64"/>
     <use xlink:href="#me62ec0232d" x="310.703553" y="275.659188" style="fill: #7c6f64; stroke: #7c6f64"/>
     <use xlink:href="#me62ec0232d" x="335.120944" y="238.867188" style="fill: #7c6f64; stroke: #7c6f64"/>
     <use xlink:href="#me62ec0232d" x="359.538336" y="252.475188" style="fill: #7c6f64; stroke: #7c6f64"/>
     <use xlink:href="#me62ec0232d" x="383.955727" y="226.267188" style="fill: #7c6f64; stroke: #7c6f64"/>
     <use xlink:href="#me62ec0232d" x="408.373118" y="107.323188" style="fill: #7c6f64; stroke: #7c6f64"/>
     <use xlink:href="#me62ec0232d" x="432.79051" y="275.155188" style="fill: #7c6f64; stroke: #7c6f64"/>
     <use xlink:href="#me62ec0232d" x="457.207901" y="183.931188" style="fill: #7c6f64; stroke: #7c6f64"/>
     <use xlink:href="#me62ec0232d" x="481.625292" y="274.651188" style="fill: #7c6f64; stroke: #7c6f64"/>
     <use xlink:href="#me62ec0232d" x="506.042683" y="300.355188" style="fill: #7c6f64; stroke: #7c6f64"/>
     <use xlink:href="#me62ec0232d" x="530.460075" y="309.931188" style="fill: #7c6f64; stroke: #7c6f64"/>
     <use xlink:href="#me62ec0232d" x="554.877466" y="321.523188" style="fill: #7c6f64; stroke: #7c6f64"/>
     <use xlink:href="#me62ec0232d" x="579.294857" y="286.243188" style="fill: #7c6f64; stroke: #7c6f64"/>
     <use xlink:href="#me62ec0232d" x="603.712249" y="320.011188" style="fill: #7c6f64; stroke: #7c6f64"/>
     <use xlink:href="#me62ec0232d" x="628.12964" y="321.523188" style="fill: #7c6f64; stroke: #7c6f64"/>
     <use xlink:href="#me62ec0232d" x="652.547031" y="333.619188" style="fill: #7c6f64; stroke: #7c6f64"/>
    </g>
   </g>
   <g id="patch_3">
    <path d="M 62.867031 374.947188 
L 62.867031 47.347188 
" style="fill: none; stroke: #e7e5e4; stroke-width: 0.6; stroke-linejoin: miter; stroke-linecap: square"/>
   </g>
   <g id="patch_4">
    <path d="M 62.867031 374.947188 
L 680.627031 374.947188 
" style="fill: none; stroke: #e7e5e4; stroke-width: 0.6; stroke-linejoin: miter; stroke-linecap: square"/>
   </g>
   <g id="patch_5">
    <path d="M 299.035717 72.064321 
Q 352.751786 89.386552 405.190966 106.297015 
" style="fill: none; stroke: #7c6f64; stroke-width: 1.2; stroke-linecap: round"/>
    <path d="M 402.317157 103.478997 
L 405.190966 106.297015 
L 401.212266 106.905251 
" style="fill: none; stroke: #7c6f64; stroke-width: 1.2; stroke-linecap: round"/>
   </g>
   <g id="text_15">
    <!-- pic 2013 : 531 DICRIM publiés -->
    <g style="fill: #7c6f64" transform="translate(199.092364 57.555438) scale(0.09 -0.09)">
     <defs>
      <path id="Inter-Regular-70" d="M 494 -1306 
L 494 3494 
L 1038 3494 
L 1038 2934 
L 1100 2934 
Q 1159 3028 1265 3170 
Q 1372 3313 1572 3425 
Q 1772 3538 2113 3538 
Q 2550 3538 2883 3319 
Q 3216 3100 3405 2695 
Q 3594 2291 3594 1738 
Q 3594 1181 3406 775 
Q 3219 369 2886 147 
Q 2553 -75 2116 -75 
Q 1784 -75 1581 39 
Q 1378 153 1268 298 
Q 1159 444 1100 541 
L 1056 541 
L 1056 -1306 
L 494 -1306 
z
M 2031 428 
Q 2359 428 2579 604 
Q 2800 781 2911 1079 
Q 3022 1378 3022 1744 
Q 3022 2106 2912 2398 
Q 2803 2691 2583 2862 
Q 2363 3034 2031 3034 
Q 1550 3034 1300 2678 
Q 1050 2322 1050 1744 
Q 1050 1159 1303 793 
Q 1556 428 2031 428 
z
" transform="scale(0.015625)"/>
      <path id="Inter-Regular-69" d="M 494 0 
L 494 3494 
L 1056 3494 
L 1056 0 
L 494 0 
z
M 780 4066 
Q 621 4066 505 4175 
Q 389 4284 389 4438 
Q 389 4594 505 4701 
Q 621 4809 780 4809 
Q 942 4809 1058 4701 
Q 1174 4594 1174 4438 
Q 1174 4284 1058 4175 
Q 942 4066 780 4066 
z
" transform="scale(0.015625)"/>
      <path id="Inter-Regular-63" d="M 1916 -75 
Q 1441 -75 1083 150 
Q 725 375 525 781 
Q 325 1188 325 1725 
Q 325 2272 525 2680 
Q 725 3088 1083 3313 
Q 1441 3538 1916 3538 
Q 2422 3538 2805 3283 
Q 3188 3028 3331 2572 
L 2791 2419 
Q 2713 2688 2486 2861 
Q 2259 3034 1916 3034 
Q 1566 3034 1341 2851 
Q 1116 2669 1006 2372 
Q 897 2075 897 1725 
Q 897 1381 1006 1086 
Q 1116 791 1341 609 
Q 1566 428 1916 428 
Q 2269 428 2498 608 
Q 2728 788 2806 1072 
L 3344 919 
Q 3203 453 2815 189 
Q 2428 -75 1916 -75 
z
" transform="scale(0.015625)"/>
      <path id="Inter-Regular-20" transform="scale(0.015625)"/>
      <path id="Inter-Regular-3a" d="M 922 -41 
Q 747 -41 623 82 
Q 500 206 500 381 
Q 500 556 623 679 
Q 747 803 922 803 
Q 1097 803 1220 679 
Q 1344 556 1344 381 
Q 1344 206 1220 82 
Q 1097 -41 922 -41 
z
M 922 2519 
Q 747 2519 623 2642 
Q 500 2766 500 2941 
Q 500 3116 623 3239 
Q 747 3363 922 3363 
Q 1097 3363 1220 3239 
Q 1344 3116 1344 2941 
Q 1344 2766 1220 2642 
Q 1097 2519 922 2519 
z
" transform="scale(0.015625)"/>
      <path id="Inter-Regular-44" d="M 2016 0 
L 563 0 
L 563 4656 
L 2075 4656 
Q 2756 4656 3239 4378 
Q 3722 4100 3980 3579 
Q 4238 3059 4238 2338 
Q 4238 1609 3978 1086 
Q 3719 563 3222 281 
Q 2725 0 2016 0 
z
M 1156 525 
L 1978 525 
Q 2828 525 3245 1008 
Q 3663 1491 3663 2338 
Q 3663 3178 3253 3654 
Q 2844 4131 2034 4131 
L 1156 4131 
L 1156 525 
z
" transform="scale(0.015625)"/>
      <path id="Inter-Regular-49" d="M 1156 4656 
L 1156 0 
L 563 0 
L 563 4656 
L 1156 4656 
z
" transform="scale(0.015625)"/>
      <path id="Inter-Regular-43" d="M 2447 -63 
Q 1850 -63 1383 226 
Q 916 516 648 1052 
Q 381 1588 381 2325 
Q 381 3066 648 3602 
Q 916 4138 1383 4428 
Q 1850 4719 2447 4719 
Q 2919 4719 3314 4536 
Q 3709 4353 3976 4012 
Q 4244 3672 4325 3191 
L 3731 3191 
Q 3666 3509 3477 3728 
Q 3288 3947 3019 4058 
Q 2750 4169 2447 4169 
Q 2028 4169 1690 3956 
Q 1353 3744 1156 3333 
Q 959 2922 959 2325 
Q 959 1731 1157 1320 
Q 1356 909 1693 698 
Q 2031 488 2447 488 
Q 2753 488 3020 600 
Q 3288 713 3477 931 
Q 3666 1150 3731 1466 
L 4325 1466 
Q 4244 994 3980 650 
Q 3716 306 3320 121 
Q 2925 -63 2447 -63 
z
" transform="scale(0.015625)"/>
      <path id="Inter-Regular-52" d="M 563 0 
L 563 4656 
L 2156 4656 
Q 2700 4656 3051 4470 
Q 3403 4284 3573 3959 
Q 3744 3634 3744 3219 
Q 3744 2756 3533 2412 
Q 3322 2069 2881 1916 
L 3925 0 
L 3238 0 
L 2269 1809 
Q 2216 1806 2159 1806 
L 1156 1806 
L 1156 0 
L 563 0 
z
M 1156 2334 
L 2131 2334 
Q 2681 2334 2917 2571 
Q 3153 2809 3153 3219 
Q 3153 3634 2917 3884 
Q 2681 4134 2125 4134 
L 1156 4134 
L 1156 2334 
z
" transform="scale(0.015625)"/>
      <path id="Inter-Regular-4d" d="M 563 0 
L 563 4656 
L 1406 4656 
L 2553 1719 
Q 2619 1550 2716 1247 
Q 2813 944 2897 659 
Q 2978 934 3075 1239 
Q 3172 1544 3241 1719 
L 4372 4656 
L 5219 4656 
L 5219 0 
L 4634 0 
L 4634 2659 
Q 4634 2916 4640 3287 
Q 4647 3659 4656 4022 
Q 4528 3622 4398 3244 
Q 4269 2866 4188 2659 
L 3147 0 
L 2631 0 
L 1575 2659 
Q 1497 2856 1370 3229 
Q 1244 3603 1106 4013 
Q 1113 3681 1120 3304 
Q 1128 2928 1128 2659 
L 1128 0 
L 563 0 
z
" transform="scale(0.015625)"/>
      <path id="Inter-Regular-75" d="M 1678 -44 
Q 1150 -44 822 284 
Q 494 613 494 1275 
L 494 3494 
L 1056 3494 
L 1056 1322 
Q 1056 919 1268 691 
Q 1481 463 1847 463 
Q 2222 463 2473 708 
Q 2725 953 2725 1400 
L 2725 3494 
L 3291 3494 
L 3291 0 
L 2747 0 
L 2747 653 
Q 2575 272 2298 114 
Q 2022 -44 1678 -44 
z
" transform="scale(0.015625)"/>
      <path id="Inter-Regular-62" d="M 2116 -75 
Q 1784 -75 1581 39 
Q 1378 153 1268 298 
Q 1159 444 1100 541 
L 1038 541 
L 1038 0 
L 494 0 
L 494 4656 
L 1056 4656 
L 1056 2934 
L 1100 2934 
Q 1159 3028 1265 3170 
Q 1372 3313 1572 3425 
Q 1772 3538 2113 3538 
Q 2550 3538 2883 3319 
Q 3216 3100 3405 2695 
Q 3594 2291 3594 1738 
Q 3594 1181 3406 775 
Q 3219 369 2886 147 
Q 2553 -75 2116 -75 
z
M 2031 428 
Q 2359 428 2579 604 
Q 2800 781 2911 1079 
Q 3022 1378 3022 1744 
Q 3022 2106 2912 2398 
Q 2803 2691 2583 2862 
Q 2363 3034 2031 3034 
Q 1550 3034 1300 2678 
Q 1050 2322 1050 1744 
Q 1050 1159 1303 793 
Q 1556 428 2031 428 
z
" transform="scale(0.015625)"/>
      <path id="Inter-Regular-6c" d="M 1056 4656 
L 1056 0 
L 494 0 
L 494 4656 
L 1056 4656 
z
" transform="scale(0.015625)"/>
      <path id="Inter-Regular-73" d="M 1681 -75 
Q 1144 -75 787 159 
Q 431 394 338 847 
L 872 975 
Q 947 688 1155 553 
Q 1363 419 1675 419 
Q 2041 419 2258 575 
Q 2475 731 2475 947 
Q 2475 1306 1963 1428 
L 1381 1566 
Q 444 1788 444 2519 
Q 444 2819 612 3048 
Q 781 3278 1073 3408 
Q 1366 3538 1738 3538 
Q 2278 3538 2576 3302 
Q 2875 3066 2994 2697 
L 2484 2566 
Q 2413 2753 2245 2906 
Q 2078 3059 1741 3059 
Q 1428 3059 1220 2915 
Q 1013 2772 1013 2553 
Q 1013 2359 1153 2242 
Q 1294 2125 1600 2053 
L 2128 1928 
Q 2603 1816 2831 1580 
Q 3059 1344 3059 984 
Q 3059 678 2886 439 
Q 2713 200 2402 62 
Q 2091 -75 1681 -75 
z
" transform="scale(0.015625)"/>
     </defs>
     <use xlink:href="#Inter-Regular-70"/>
     <use xlink:href="#Inter-Regular-69" transform="translate(61.230469 0)"/>
     <use xlink:href="#Inter-Regular-63" transform="translate(85.449219 0)"/>
     <use xlink:href="#Inter-Regular-20" transform="translate(142.578125 0)"/>
     <use xlink:href="#Inter-Regular-32" transform="translate(170.703125 0)"/>
     <use xlink:href="#Inter-Regular-30" transform="translate(231.689453 0)"/>
     <use xlink:href="#Inter-Regular-31" transform="translate(294.775391 0)"/>
     <use xlink:href="#Inter-Regular-33" transform="translate(335.449219 0)"/>
     <use xlink:href="#Inter-Regular-20" transform="translate(397.216797 0)"/>
     <use xlink:href="#Inter-Regular-3a" transform="translate(425.341797 0)"/>
     <use xlink:href="#Inter-Regular-20" transform="translate(454.150391 0)"/>
     <use xlink:href="#Inter-Regular-35" transform="translate(482.275391 0)"/>
     <use xlink:href="#Inter-Regular-33" transform="translate(541.601562 0)"/>
     <use xlink:href="#Inter-Regular-31" transform="translate(603.369141 0)"/>
     <use xlink:href="#Inter-Regular-20" transform="translate(644.042969 0)"/>
     <use xlink:href="#Inter-Regular-44" transform="translate(672.167969 0)"/>
     <use xlink:href="#Inter-Regular-49" transform="translate(744.335938 0)"/>
     <use xlink:href="#Inter-Regular-43" transform="translate(771.191406 0)"/>
     <use xlink:href="#Inter-Regular-52" transform="translate(844.238281 0)"/>
     <use xlink:href="#Inter-Regular-49" transform="translate(908.59375 0)"/>
     <use xlink:href="#Inter-Regular-4d" transform="translate(935.449219 0)"/>
     <use xlink:href="#Inter-Regular-20" transform="translate(1025.78125 0)"/>
     <use xlink:href="#Inter-Regular-70" transform="translate(1053.90625 0)"/>
     <use xlink:href="#Inter-Regular-75" transform="translate(1115.136719 0)"/>
     <use xlink:href="#Inter-Regular-62" transform="translate(1174.267578 0)"/>
     <use xlink:href="#Inter-Regular-6c" transform="translate(1235.498047 0)"/>
     <use xlink:href="#Inter-Regular-69" transform="translate(1259.716797 0)"/>
     <use xlink:href="#Inter-Regular-e9" transform="translate(1283.935547 0)"/>
     <use xlink:href="#Inter-Regular-73" transform="translate(1342.236328 0)"/>
    </g>
    <!-- dans des communes argile -->
    <g style="fill: #7c6f64" transform="translate(204.747599 67.507188) scale(0.09 -0.09)">
     <defs>
      <path id="Inter-Regular-64" d="M 1803 -75 
Q 1369 -75 1034 147 
Q 700 369 512 775 
Q 325 1181 325 1738 
Q 325 2291 514 2695 
Q 703 3100 1037 3319 
Q 1372 3538 1806 3538 
Q 2147 3538 2347 3425 
Q 2547 3313 2655 3170 
Q 2763 3028 2819 2934 
L 2863 2934 
L 2863 4656 
L 3425 4656 
L 3425 0 
L 2881 0 
L 2881 541 
L 2819 541 
Q 2763 444 2652 298 
Q 2541 153 2339 39 
Q 2138 -75 1803 -75 
z
M 1888 428 
Q 2363 428 2616 793 
Q 2869 1159 2869 1744 
Q 2869 2322 2620 2678 
Q 2372 3034 1888 3034 
Q 1556 3034 1336 2862 
Q 1116 2691 1006 2398 
Q 897 2106 897 1744 
Q 897 1378 1008 1079 
Q 1119 781 1341 604 
Q 1563 428 1888 428 
z
" transform="scale(0.015625)"/>
      <path id="Inter-Regular-61" d="M 1472 -81 
Q 1141 -81 870 44 
Q 600 169 440 409 
Q 281 650 281 994 
Q 281 1294 400 1481 
Q 519 1669 717 1776 
Q 916 1884 1156 1937 
Q 1397 1991 1641 2022 
Q 1953 2063 2150 2084 
Q 2347 2106 2442 2159 
Q 2538 2213 2538 2341 
L 2538 2359 
Q 2538 2684 2353 2864 
Q 2169 3044 1806 3044 
Q 1428 3044 1215 2880 
Q 1003 2716 922 2531 
L 381 2709 
Q 516 3028 744 3208 
Q 972 3388 1247 3463 
Q 1522 3538 1791 3538 
Q 1966 3538 2189 3495 
Q 2413 3453 2620 3328 
Q 2828 3203 2964 2958 
Q 3100 2713 3100 2303 
L 3100 0 
L 2547 0 
L 2547 475 
L 2509 475 
Q 2450 353 2319 223 
Q 2188 94 1978 6 
Q 1769 -81 1472 -81 
z
M 1569 416 
Q 1881 416 2097 537 
Q 2313 659 2425 854 
Q 2538 1050 2538 1263 
L 2538 1747 
Q 2503 1706 2387 1673 
Q 2272 1641 2123 1616 
Q 1975 1591 1836 1573 
Q 1697 1556 1616 1547 
Q 1413 1522 1236 1461 
Q 1059 1400 953 1283 
Q 847 1166 847 966 
Q 847 694 1051 555 
Q 1256 416 1569 416 
z
" transform="scale(0.015625)"/>
      <path id="Inter-Regular-6f" d="M 1916 -75 
Q 1441 -75 1083 150 
Q 725 375 525 781 
Q 325 1188 325 1725 
Q 325 2272 525 2680 
Q 725 3088 1083 3313 
Q 1441 3538 1916 3538 
Q 2394 3538 2753 3313 
Q 3113 3088 3313 2680 
Q 3513 2272 3513 1725 
Q 3513 1188 3313 781 
Q 3113 375 2753 150 
Q 2394 -75 1916 -75 
z
M 1916 428 
Q 2269 428 2497 609 
Q 2725 791 2834 1086 
Q 2944 1381 2944 1725 
Q 2944 2072 2834 2370 
Q 2725 2669 2497 2851 
Q 2269 3034 1916 3034 
Q 1566 3034 1341 2851 
Q 1116 2669 1006 2372 
Q 897 2075 897 1725 
Q 897 1381 1006 1086 
Q 1116 791 1341 609 
Q 1566 428 1916 428 
z
" transform="scale(0.015625)"/>
      <path id="Inter-Regular-6d" d="M 494 0 
L 494 3494 
L 1041 3494 
L 1044 2853 
Q 1172 3206 1442 3381 
Q 1713 3556 2022 3556 
Q 2366 3556 2592 3361 
Q 2819 3166 2913 2844 
Q 3038 3175 3336 3365 
Q 3634 3556 4013 3556 
Q 4316 3556 4566 3425 
Q 4816 3294 4964 3028 
Q 5113 2763 5113 2356 
L 5113 0 
L 4550 0 
L 4550 2341 
Q 4550 2719 4337 2881 
Q 4125 3044 3844 3044 
Q 3491 3044 3287 2828 
Q 3084 2613 3084 2281 
L 3084 0 
L 2522 0 
L 2522 2397 
Q 2522 2688 2328 2866 
Q 2134 3044 1838 3044 
Q 1531 3044 1293 2831 
Q 1056 2619 1056 2200 
L 1056 0 
L 494 0 
z
" transform="scale(0.015625)"/>
      <path id="Inter-Regular-72" d="M 494 0 
L 494 3494 
L 1038 3494 
L 1038 2956 
L 1075 2956 
Q 1172 3222 1420 3383 
Q 1669 3544 1981 3544 
Q 2044 3544 2130 3541 
Q 2216 3538 2266 3534 
L 2266 2969 
Q 2241 2975 2141 2987 
Q 2041 3000 1928 3000 
Q 1550 3000 1303 2770 
Q 1056 2541 1056 2188 
L 1056 0 
L 494 0 
z
" transform="scale(0.015625)"/>
      <path id="Inter-Regular-67" d="M 1909 -1381 
Q 1328 -1381 981 -1168 
Q 634 -956 472 -669 
L 928 -375 
Q 1003 -475 1114 -597 
Q 1225 -719 1414 -805 
Q 1603 -891 1909 -891 
Q 2328 -891 2598 -691 
Q 2869 -491 2869 -59 
L 2869 641 
L 2816 641 
Q 2756 541 2648 403 
Q 2541 266 2339 161 
Q 2138 56 1800 56 
Q 1381 56 1047 254 
Q 713 453 519 834 
Q 325 1216 325 1763 
Q 325 2303 515 2701 
Q 706 3100 1042 3319 
Q 1378 3538 1813 3538 
Q 2150 3538 2351 3427 
Q 2553 3316 2662 3172 
Q 2772 3028 2831 2934 
L 2884 2934 
L 2884 3494 
L 3431 3494 
L 3431 -91 
Q 3431 -541 3228 -827 
Q 3025 -1113 2679 -1247 
Q 2334 -1381 1909 -1381 
z
M 1894 556 
Q 2369 556 2622 879 
Q 2875 1203 2875 1775 
Q 2875 2331 2626 2682 
Q 2378 3034 1894 3034 
Q 1563 3034 1341 2864 
Q 1119 2694 1008 2409 
Q 897 2125 897 1775 
Q 897 1238 1150 897 
Q 1403 556 1894 556 
z
" transform="scale(0.015625)"/>
     </defs>
     <use xlink:href="#Inter-Regular-64"/>
     <use xlink:href="#Inter-Regular-61" transform="translate(61.230469 0)"/>
     <use xlink:href="#Inter-Regular-6e" transform="translate(117.382812 0)"/>
     <use xlink:href="#Inter-Regular-73" transform="translate(176.464844 0)"/>
     <use xlink:href="#Inter-Regular-20" transform="translate(229.248047 0)"/>
     <use xlink:href="#Inter-Regular-64" transform="translate(257.373047 0)"/>
     <use xlink:href="#Inter-Regular-65" transform="translate(318.603516 0)"/>
     <use xlink:href="#Inter-Regular-73" transform="translate(376.904297 0)"/>
     <use xlink:href="#Inter-Regular-20" transform="translate(429.6875 0)"/>
     <use xlink:href="#Inter-Regular-63" transform="translate(457.8125 0)"/>
     <use xlink:href="#Inter-Regular-6f" transform="translate(514.941406 0)"/>
     <use xlink:href="#Inter-Regular-6d" transform="translate(574.902344 0)"/>
     <use xlink:href="#Inter-Regular-6d" transform="translate(662.5 0)"/>
     <use xlink:href="#Inter-Regular-75" transform="translate(750.097656 0)"/>
     <use xlink:href="#Inter-Regular-6e" transform="translate(809.228516 0)"/>
     <use xlink:href="#Inter-Regular-65" transform="translate(868.310547 0)"/>
     <use xlink:href="#Inter-Regular-73" transform="translate(926.611328 0)"/>
     <use xlink:href="#Inter-Regular-20" transform="translate(979.394531 0)"/>
     <use xlink:href="#Inter-Regular-61" transform="translate(1007.519531 0)"/>
     <use xlink:href="#Inter-Regular-72" transform="translate(1063.671875 0)"/>
     <use xlink:href="#Inter-Regular-67" transform="translate(1101.318359 0)"/>
     <use xlink:href="#Inter-Regular-69" transform="translate(1162.646484 0)"/>
     <use xlink:href="#Inter-Regular-6c" transform="translate(1186.865234 0)"/>
     <use xlink:href="#Inter-Regular-65" transform="translate(1211.083984 0)"/>
    </g>
   </g>
   <g id="patch_6">
    <path d="M 597.307708 259.427276 
Q 624.329764 295.720588 650.550596 330.937777 
" style="fill: none; stroke: #7c6f64; stroke-width: 1.2; stroke-linecap: round"/>
    <path d="M 649.844459 326.975282 
L 650.550596 330.937777 
L 646.956917 329.12519 
" style="fill: none; stroke: #7c6f64; stroke-width: 1.2; stroke-linecap: round"/>
   </g>
   <g id="text_16">
    <!-- 82 en 2023 -->
    <g style="fill: #7c6f64" transform="translate(567.055194 253.987188) scale(0.09 -0.09)">
     <defs>
      <path id="Inter-Regular-38" d="M 1978 -63 
Q 1506 -63 1145 104 
Q 784 272 582 565 
Q 381 859 381 1238 
Q 381 1531 500 1782 
Q 619 2034 825 2203 
Q 1031 2372 1291 2419 
L 1291 2444 
Q 950 2531 750 2822 
Q 550 3113 550 3481 
Q 550 3838 734 4117 
Q 919 4397 1241 4558 
Q 1563 4719 1978 4719 
Q 2388 4719 2709 4558 
Q 3031 4397 3217 4117 
Q 3403 3838 3403 3481 
Q 3403 3113 3201 2822 
Q 3000 2531 2669 2444 
L 2669 2419 
Q 2922 2372 3128 2203 
Q 3334 2034 3456 1782 
Q 3578 1531 3578 1238 
Q 3578 859 3373 565 
Q 3169 272 2808 104 
Q 2447 -63 1978 -63 
z
M 1978 453 
Q 2441 453 2712 676 
Q 2984 900 2984 1269 
Q 2984 1528 2853 1726 
Q 2722 1925 2494 2039 
Q 2266 2153 1978 2153 
Q 1538 2153 1252 1904 
Q 966 1656 966 1269 
Q 966 900 1236 676 
Q 1506 453 1978 453 
z
M 1978 2650 
Q 2347 2650 2587 2867 
Q 2828 3084 2828 3438 
Q 2828 3788 2593 3997 
Q 2359 4206 1978 4206 
Q 1591 4206 1358 3997 
Q 1125 3788 1125 3438 
Q 1125 3084 1362 2867 
Q 1600 2650 1978 2650 
z
" transform="scale(0.015625)"/>
     </defs>
     <use xlink:href="#Inter-Regular-38"/>
     <use xlink:href="#Inter-Regular-32" transform="translate(61.865234 0)"/>
     <use xlink:href="#Inter-Regular-20" transform="translate(122.851562 0)"/>
     <use xlink:href="#Inter-Regular-65" transform="translate(150.976562 0)"/>
     <use xlink:href="#Inter-Regular-6e" transform="translate(209.277344 0)"/>
     <use xlink:href="#Inter-Regular-20" transform="translate(268.359375 0)"/>
     <use xlink:href="#Inter-Regular-32" transform="translate(296.484375 0)"/>
     <use xlink:href="#Inter-Regular-30" transform="translate(357.470703 0)"/>
     <use xlink:href="#Inter-Regular-32" transform="translate(420.556641 0)"/>
     <use xlink:href="#Inter-Regular-33" transform="translate(481.542969 0)"/>
    </g>
   </g>
   <g id="text_17">
    <!-- L'effet ciseaux : quand le risque montait, l'information s'arrêtait -->
    <g style="fill: #1c1917" transform="translate(153.671875 32.347188) scale(0.14 -0.14)">
     <defs>
      <path id="Inter-Bold-4c" d="M 422 0 
L 422 4656 
L 1375 4656 
L 1375 791 
L 3384 791 
L 3384 0 
L 422 0 
z
" transform="scale(0.015625)"/>
      <path id="Inter-Bold-27" d="M 728 2719 
L 631 4656 
L 1534 4656 
L 1441 2719 
L 728 2719 
z
" transform="scale(0.015625)"/>
      <path id="Inter-Bold-65" d="M 1978 -69 
Q 1444 -69 1056 150 
Q 669 369 461 772 
Q 253 1175 253 1728 
Q 253 2269 461 2675 
Q 669 3081 1045 3309 
Q 1422 3538 1931 3538 
Q 2388 3538 2759 3344 
Q 3131 3150 3351 2756 
Q 3572 2363 3572 1766 
L 3572 1503 
L 1181 1503 
Q 1197 1075 1419 856 
Q 1641 638 1994 638 
Q 2241 638 2417 742 
Q 2594 847 2669 1050 
L 3519 891 
Q 3391 456 2989 193 
Q 2588 -69 1978 -69 
z
M 1188 2091 
L 2669 2091 
Q 2634 2431 2450 2631 
Q 2266 2831 1941 2831 
Q 1603 2831 1409 2623 
Q 1216 2416 1188 2091 
z
" transform="scale(0.015625)"/>
      <path id="Inter-Bold-66" d="M 2344 3494 
L 2344 2778 
L 1613 2778 
L 1613 0 
L 678 0 
L 678 2778 
L 63 2778 
L 63 3494 
L 678 3494 
L 678 3763 
Q 678 4319 1003 4597 
Q 1328 4875 1813 4875 
Q 2034 4875 2215 4840 
Q 2397 4806 2484 4778 
L 2316 4072 
Q 2259 4088 2176 4103 
Q 2094 4119 2003 4119 
Q 1788 4119 1700 4017 
Q 1613 3916 1613 3731 
L 1613 3494 
L 2344 3494 
z
" transform="scale(0.015625)"/>
      <path id="Inter-Bold-74" d="M 2134 3494 
L 2134 2778 
L 1481 2778 
L 1481 1022 
Q 1481 697 1800 697 
Q 1853 697 1948 711 
Q 2044 725 2097 738 
L 2231 34 
Q 2075 -13 1920 -31 
Q 1766 -50 1625 -50 
Q 1100 -50 822 204 
Q 544 459 544 941 
L 544 2778 
L 63 2778 
L 63 3494 
L 544 3494 
L 544 4325 
L 1481 4325 
L 1481 3494 
L 2134 3494 
z
" transform="scale(0.015625)"/>
      <path id="Inter-Bold-63" d="M 1963 -69 
Q 1434 -69 1051 157 
Q 669 384 461 789 
Q 253 1194 253 1731 
Q 253 2272 461 2678 
Q 669 3084 1051 3311 
Q 1434 3538 1963 3538 
Q 2584 3538 3000 3227 
Q 3416 2916 3516 2375 
L 2644 2213 
Q 2584 2484 2414 2642 
Q 2244 2800 1972 2800 
Q 1597 2800 1403 2504 
Q 1209 2209 1209 1734 
Q 1209 1266 1403 967 
Q 1597 669 1972 669 
Q 2244 669 2419 833 
Q 2594 997 2650 1278 
L 3522 1119 
Q 3422 566 3006 248 
Q 2591 -69 1963 -69 
z
" transform="scale(0.015625)"/>
      <path id="Inter-Bold-78" d="M 131 0 
L 1256 1794 
L 200 3494 
L 1213 3494 
L 1528 2944 
Q 1622 2769 1705 2598 
Q 1788 2428 1866 2263 
Q 1944 2428 2026 2600 
Q 2109 2772 2209 2944 
L 2538 3494 
L 3531 3494 
L 2453 1781 
L 3581 0 
L 2575 0 
L 2188 659 
Q 2091 828 2006 997 
Q 1922 1166 1844 1328 
Q 1769 1166 1689 997 
Q 1609 828 1513 659 
L 1125 0 
L 131 0 
z
" transform="scale(0.015625)"/>
      <path id="Inter-Bold-3a" d="M 1069 -59 
Q 841 -59 684 95 
Q 528 250 528 478 
Q 528 706 684 861 
Q 841 1016 1069 1016 
Q 1297 1016 1453 861 
Q 1609 706 1609 478 
Q 1609 250 1453 95 
Q 1297 -59 1069 -59 
z
M 1069 2245 
Q 841 2245 684 2399 
Q 528 2554 528 2782 
Q 528 3010 684 3165 
Q 841 3320 1069 3320 
Q 1297 3320 1453 3165 
Q 1609 3010 1609 2782 
Q 1609 2554 1453 2399 
Q 1297 2245 1069 2245 
z
" transform="scale(0.015625)"/>
      <path id="Inter-Bold-71" d="M 3634 -1306 
L 2697 -1306 
L 2697 559 
L 2666 559 
Q 2600 419 2478 276 
Q 2356 134 2159 37 
Q 1963 -59 1678 -59 
Q 1275 -59 953 148 
Q 631 356 442 757 
Q 253 1159 253 1741 
Q 253 2338 447 2738 
Q 641 3138 962 3338 
Q 1284 3538 1672 3538 
Q 1969 3538 2166 3438 
Q 2363 3338 2483 3191 
Q 2603 3044 2666 2906 
L 2713 2906 
L 2713 3494 
L 3634 3494 
L 3634 -1306 
z
M 1966 694 
Q 2322 694 2519 981 
Q 2716 1269 2716 1744 
Q 2716 2219 2520 2503 
Q 2325 2788 1966 2788 
Q 1597 2788 1406 2495 
Q 1216 2203 1216 1744 
Q 1216 1281 1408 987 
Q 1600 694 1966 694 
z
" transform="scale(0.015625)"/>
      <path id="Inter-Bold-64" d="M 1678 -59 
Q 1275 -59 953 148 
Q 631 356 442 757 
Q 253 1159 253 1741 
Q 253 2338 447 2738 
Q 641 3138 962 3338 
Q 1284 3538 1672 3538 
Q 1969 3538 2166 3438 
Q 2363 3338 2483 3191 
Q 2603 3044 2666 2906 
L 2697 2906 
L 2697 4656 
L 3634 4656 
L 3634 0 
L 2713 0 
L 2713 559 
L 2666 559 
Q 2600 419 2478 276 
Q 2356 134 2159 37 
Q 1963 -59 1678 -59 
z
M 1966 694 
Q 2322 694 2519 981 
Q 2716 1269 2716 1744 
Q 2716 2219 2520 2503 
Q 2325 2788 1966 2788 
Q 1597 2788 1406 2495 
Q 1216 2203 1216 1744 
Q 1216 1281 1408 987 
Q 1600 694 1966 694 
z
" transform="scale(0.015625)"/>
      <path id="Inter-Bold-6d" d="M 400 0 
L 400 3494 
L 1269 3494 
L 1306 2816 
Q 1447 3197 1719 3372 
Q 1991 3547 2303 3547 
Q 2966 3547 3203 2763 
Q 3350 3166 3658 3356 
Q 3966 3547 4325 3547 
Q 4806 3547 5123 3236 
Q 5441 2925 5441 2356 
L 5441 0 
L 4503 0 
L 4503 2178 
Q 4503 2472 4342 2617 
Q 4181 2763 3947 2763 
Q 3681 2763 3526 2594 
Q 3372 2425 3372 2150 
L 3372 0 
L 2466 0 
L 2466 2203 
Q 2466 2459 2314 2611 
Q 2163 2763 1922 2763 
Q 1675 2763 1506 2595 
Q 1338 2428 1338 2113 
L 1338 0 
L 400 0 
z
" transform="scale(0.015625)"/>
      <path id="Inter-Bold-6f" d="M 1963 -69 
Q 1438 -69 1053 157 
Q 669 384 461 789 
Q 253 1194 253 1731 
Q 253 2272 461 2678 
Q 669 3084 1053 3311 
Q 1438 3538 1963 3538 
Q 2488 3538 2872 3311 
Q 3256 3084 3464 2678 
Q 3672 2272 3672 1731 
Q 3672 1194 3464 789 
Q 3256 384 2872 157 
Q 2488 -69 1963 -69 
z
M 1963 669 
Q 2338 669 2528 972 
Q 2719 1275 2719 1734 
Q 2719 2197 2528 2498 
Q 2338 2800 1963 2800 
Q 1588 2800 1398 2498 
Q 1209 2197 1209 1734 
Q 1209 1275 1398 972 
Q 1588 669 1963 669 
z
" transform="scale(0.015625)"/>
      <path id="Inter-Bold-2c" d="M 372 -1249 
L 647 688 
L 1584 688 
L 1009 -1249 
L 372 -1249 
z
" transform="scale(0.015625)"/>
      <path id="Inter-Bold-ea" d="M 1978 -69 
Q 1444 -69 1056 150 
Q 669 369 461 772 
Q 253 1175 253 1728 
Q 253 2269 461 2675 
Q 669 3081 1045 3309 
Q 1422 3538 1931 3538 
Q 2388 3538 2759 3344 
Q 3131 3150 3351 2756 
Q 3572 2363 3572 1766 
L 3572 1503 
L 1181 1503 
Q 1197 1075 1419 856 
Q 1641 638 1994 638 
Q 2241 638 2417 742 
Q 2594 847 2669 1050 
L 3519 891 
Q 3391 456 2989 193 
Q 2588 -69 1978 -69 
z
M 1188 2091 
L 2669 2091 
Q 2634 2431 2450 2631 
Q 2266 2831 1941 2831 
Q 1603 2831 1409 2623 
Q 1216 2416 1188 2091 
z
M 1465 3963 
L 649 3963 
L 649 3984 
L 1553 4909 
L 2271 4909 
L 3174 3984 
L 3174 3963 
L 2356 3963 
L 1912 4494 
L 1465 3963 
z
" transform="scale(0.015625)"/>
     </defs>
     <use xlink:href="#Inter-Bold-4c"/>
     <use xlink:href="#Inter-Bold-27" transform="translate(56.542969 0)"/>
     <use xlink:href="#Inter-Bold-65" transform="translate(90.429688 0)"/>
     <use xlink:href="#Inter-Bold-66" transform="translate(150 0)"/>
     <use xlink:href="#Inter-Bold-66" transform="translate(189.794922 0)"/>
     <use xlink:href="#Inter-Bold-65" transform="translate(229.589844 0)"/>
     <use xlink:href="#Inter-Bold-74" transform="translate(289.160156 0)"/>
     <use xlink:href="#Inter-Bold-20" transform="translate(325.78125 0)"/>
     <use xlink:href="#Inter-Bold-63" transform="translate(349.462891 0)"/>
     <use xlink:href="#Inter-Bold-69" transform="translate(408.300781 0)"/>
     <use xlink:href="#Inter-Bold-73" transform="translate(435.400391 0)"/>
     <use xlink:href="#Inter-Bold-65" transform="translate(491.40625 0)"/>
     <use xlink:href="#Inter-Bold-61" transform="translate(550.976562 0)"/>
     <use xlink:href="#Inter-Bold-75" transform="translate(609.033203 0)"/>
     <use xlink:href="#Inter-Bold-78" transform="translate(671.289062 0)"/>
     <use xlink:href="#Inter-Bold-20" transform="translate(729.296875 0)"/>
     <use xlink:href="#Inter-Bold-3a" transform="translate(752.978516 0)"/>
     <use xlink:href="#Inter-Bold-20" transform="translate(786.376953 0)"/>
     <use xlink:href="#Inter-Bold-71" transform="translate(810.058594 0)"/>
     <use xlink:href="#Inter-Bold-75" transform="translate(873.095703 0)"/>
     <use xlink:href="#Inter-Bold-61" transform="translate(935.351562 0)"/>
     <use xlink:href="#Inter-Bold-6e" transform="translate(993.408203 0)"/>
     <use xlink:href="#Inter-Bold-64" transform="translate(1055.664062 0)"/>
     <use xlink:href="#Inter-Bold-20" transform="translate(1118.701172 0)"/>
     <use xlink:href="#Inter-Bold-6c" transform="translate(1142.382812 0)"/>
     <use xlink:href="#Inter-Bold-65" transform="translate(1169.482422 0)"/>
     <use xlink:href="#Inter-Bold-20" transform="translate(1229.052734 0)"/>
     <use xlink:href="#Inter-Bold-72" transform="translate(1252.734375 0)"/>
     <use xlink:href="#Inter-Bold-69" transform="translate(1293.457031 0)"/>
     <use xlink:href="#Inter-Bold-73" transform="translate(1320.556641 0)"/>
     <use xlink:href="#Inter-Bold-71" transform="translate(1376.5625 0)"/>
     <use xlink:href="#Inter-Bold-75" transform="translate(1439.599609 0)"/>
     <use xlink:href="#Inter-Bold-65" transform="translate(1501.855469 0)"/>
     <use xlink:href="#Inter-Bold-20" transform="translate(1561.425781 0)"/>
     <use xlink:href="#Inter-Bold-6d" transform="translate(1585.107422 0)"/>
     <use xlink:href="#Inter-Bold-6f" transform="translate(1676.367188 0)"/>
     <use xlink:href="#Inter-Bold-6e" transform="translate(1737.695312 0)"/>
     <use xlink:href="#Inter-Bold-74" transform="translate(1799.951172 0)"/>
     <use xlink:href="#Inter-Bold-61" transform="translate(1836.572266 0)"/>
     <use xlink:href="#Inter-Bold-69" transform="translate(1894.628906 0)"/>
     <use xlink:href="#Inter-Bold-74" transform="translate(1921.728516 0)"/>
     <use xlink:href="#Inter-Bold-2c" transform="translate(1958.349609 0)"/>
     <use xlink:href="#Inter-Bold-20" transform="translate(1991.748047 0)"/>
     <use xlink:href="#Inter-Bold-6c" transform="translate(2015.429688 0)"/>
     <use xlink:href="#Inter-Bold-27" transform="translate(2042.529297 0)"/>
     <use xlink:href="#Inter-Bold-69" transform="translate(2076.416016 0)"/>
     <use xlink:href="#Inter-Bold-6e" transform="translate(2103.515625 0)"/>
     <use xlink:href="#Inter-Bold-66" transform="translate(2165.771484 0)"/>
     <use xlink:href="#Inter-Bold-6f" transform="translate(2205.566406 0)"/>
     <use xlink:href="#Inter-Bold-72" transform="translate(2266.894531 0)"/>
     <use xlink:href="#Inter-Bold-6d" transform="translate(2307.617188 0)"/>
     <use xlink:href="#Inter-Bold-61" transform="translate(2398.876953 0)"/>
     <use xlink:href="#Inter-Bold-74" transform="translate(2456.933594 0)"/>
     <use xlink:href="#Inter-Bold-69" transform="translate(2493.554688 0)"/>
     <use xlink:href="#Inter-Bold-6f" transform="translate(2520.654297 0)"/>
     <use xlink:href="#Inter-Bold-6e" transform="translate(2581.982422 0)"/>
     <use xlink:href="#Inter-Bold-20" transform="translate(2644.238281 0)"/>
     <use xlink:href="#Inter-Bold-73" transform="translate(2667.919922 0)"/>
     <use xlink:href="#Inter-Bold-27" transform="translate(2723.925781 0)"/>
     <use xlink:href="#Inter-Bold-61" transform="translate(2757.8125 0)"/>
     <use xlink:href="#Inter-Bold-72" transform="translate(2815.869141 0)"/>
     <use xlink:href="#Inter-Bold-72" transform="translate(2856.591797 0)"/>
     <use xlink:href="#Inter-Bold-ea" transform="translate(2897.314453 0)"/>
     <use xlink:href="#Inter-Bold-74" transform="translate(2956.884766 0)"/>
     <use xlink:href="#Inter-Bold-61" transform="translate(2993.505859 0)"/>
     <use xlink:href="#Inter-Bold-69" transform="translate(3051.5625 0)"/>
     <use xlink:href="#Inter-Bold-74" transform="translate(3078.662109 0)"/>
    </g>
   </g>
  </g>
  <g id="axes_2">
   <g id="matplotlib.axis_3">
    <g id="ytick_8">
     <g id="line2d_26">
      <path d="M 62.867031 374.947188 
L 680.627031 374.947188 
" clip-path="url(#pe154191174)" style="fill: none; stroke: #e7e5e4; stroke-opacity: 0.7; stroke-width: 0.4; stroke-linecap: square"/>
     </g>
     <g id="line2d_27"/>
     <g id="text_18">
      <!-- 0 -->
      <g style="fill: #c1554d" transform="translate(684.127031 378.584688) scale(0.1 -0.1)">
       <use xlink:href="#Inter-Regular-30"/>
      </g>
     </g>
    </g>
    <g id="ytick_9">
     <g id="line2d_28">
      <path d="M 62.867031 338.547188 
L 680.627031 338.547188 
" clip-path="url(#pe154191174)" style="fill: none; stroke: #e7e5e4; stroke-opacity: 0.7; stroke-width: 0.4; stroke-linecap: square"/>
     </g>
     <g id="line2d_29"/>
     <g id="text_19">
      <!-- 1000 -->
      <g style="fill: #c1554d" transform="translate(684.127031 342.184688) scale(0.1 -0.1)">
       <use xlink:href="#Inter-Regular-31"/>
       <use xlink:href="#Inter-Regular-30" transform="translate(40.673828 0)"/>
       <use xlink:href="#Inter-Regular-30" transform="translate(103.759766 0)"/>
       <use xlink:href="#Inter-Regular-30" transform="translate(166.845703 0)"/>
      </g>
     </g>
    </g>
    <g id="ytick_10">
     <g id="line2d_30">
      <path d="M 62.867031 302.147188 
L 680.627031 302.147188 
" clip-path="url(#pe154191174)" style="fill: none; stroke: #e7e5e4; stroke-opacity: 0.7; stroke-width: 0.4; stroke-linecap: square"/>
     </g>
     <g id="line2d_31"/>
     <g id="text_20">
      <!-- 2000 -->
      <g style="fill: #c1554d" transform="translate(684.127031 305.784688) scale(0.1 -0.1)">
       <use xlink:href="#Inter-Regular-32"/>
       <use xlink:href="#Inter-Regular-30" transform="translate(60.986328 0)"/>
       <use xlink:href="#Inter-Regular-30" transform="translate(124.072266 0)"/>
       <use xlink:href="#Inter-Regular-30" transform="translate(187.158203 0)"/>
      </g>
     </g>
    </g>
    <g id="ytick_11">
     <g id="line2d_32">
      <path d="M 62.867031 265.747188 
L 680.627031 265.747188 
" clip-path="url(#pe154191174)" style="fill: none; stroke: #e7e5e4; stroke-opacity: 0.7; stroke-width: 0.4; stroke-linecap: square"/>
     </g>
     <g id="line2d_33"/>
     <g id="text_21">
      <!-- 3000 -->
      <g style="fill: #c1554d" transform="translate(684.127031 269.384688) scale(0.1 -0.1)">
       <use xlink:href="#Inter-Regular-33"/>
       <use xlink:href="#Inter-Regular-30" transform="translate(61.767578 0)"/>
       <use xlink:href="#Inter-Regular-30" transform="translate(124.853516 0)"/>
       <use xlink:href="#Inter-Regular-30" transform="translate(187.939453 0)"/>
      </g>
     </g>
    </g>
    <g id="ytick_12">
     <g id="line2d_34">
      <path d="M 62.867031 229.347188 
L 680.627031 229.347188 
" clip-path="url(#pe154191174)" style="fill: none; stroke: #e7e5e4; stroke-opacity: 0.7; stroke-width: 0.4; stroke-linecap: square"/>
     </g>
     <g id="line2d_35"/>
     <g id="text_22">
      <!-- 4000 -->
      <g style="fill: #c1554d" transform="translate(684.127031 232.984688) scale(0.1 -0.1)">
       <use xlink:href="#Inter-Regular-34"/>
       <use xlink:href="#Inter-Regular-30" transform="translate(64.599609 0)"/>
       <use xlink:href="#Inter-Regular-30" transform="translate(127.685547 0)"/>
       <use xlink:href="#Inter-Regular-30" transform="translate(190.771484 0)"/>
      </g>
     </g>
    </g>
    <g id="ytick_13">
     <g id="line2d_36">
      <path d="M 62.867031 192.947188 
L 680.627031 192.947188 
" clip-path="url(#pe154191174)" style="fill: none; stroke: #e7e5e4; stroke-opacity: 0.7; stroke-width: 0.4; stroke-linecap: square"/>
     </g>
     <g id="line2d_37"/>
     <g id="text_23">
      <!-- 5000 -->
      <g style="fill: #c1554d" transform="translate(684.127031 196.584688) scale(0.1 -0.1)">
       <use xlink:href="#Inter-Regular-35"/>
       <use xlink:href="#Inter-Regular-30" transform="translate(59.326172 0)"/>
       <use xlink:href="#Inter-Regular-30" transform="translate(122.412109 0)"/>
       <use xlink:href="#Inter-Regular-30" transform="translate(185.498047 0)"/>
      </g>
     </g>
    </g>
    <g id="ytick_14">
     <g id="line2d_38">
      <path d="M 62.867031 156.547188 
L 680.627031 156.547188 
" clip-path="url(#pe154191174)" style="fill: none; stroke: #e7e5e4; stroke-opacity: 0.7; stroke-width: 0.4; stroke-linecap: square"/>
     </g>
     <g id="line2d_39"/>
     <g id="text_24">
      <!-- 6000 -->
      <g style="fill: #c1554d" transform="translate(684.127031 160.184687) scale(0.1 -0.1)">
       <use xlink:href="#Inter-Regular-36"/>
       <use xlink:href="#Inter-Regular-30" transform="translate(62.011719 0)"/>
       <use xlink:href="#Inter-Regular-30" transform="translate(125.097656 0)"/>
       <use xlink:href="#Inter-Regular-30" transform="translate(188.183594 0)"/>
      </g>
     </g>
    </g>
    <g id="ytick_15">
     <g id="line2d_40">
      <path d="M 62.867031 120.147188 
L 680.627031 120.147188 
" clip-path="url(#pe154191174)" style="fill: none; stroke: #e7e5e4; stroke-opacity: 0.7; stroke-width: 0.4; stroke-linecap: square"/>
     </g>
     <g id="line2d_41"/>
     <g id="text_25">
      <!-- 7000 -->
      <g style="fill: #c1554d" transform="translate(684.127031 123.784688) scale(0.1 -0.1)">
       <defs>
        <path id="Inter-Regular-37" d="M 625 0 
L 2694 4097 
L 2694 4134 
L 306 4134 
L 306 4656 
L 3316 4656 
L 3316 4103 
L 1250 0 
L 625 0 
z
" transform="scale(0.015625)"/>
       </defs>
       <use xlink:href="#Inter-Regular-37"/>
       <use xlink:href="#Inter-Regular-30" transform="translate(56.591797 0)"/>
       <use xlink:href="#Inter-Regular-30" transform="translate(119.677734 0)"/>
       <use xlink:href="#Inter-Regular-30" transform="translate(182.763672 0)"/>
      </g>
     </g>
    </g>
    <g id="ytick_16">
     <g id="line2d_42">
      <path d="M 62.867031 83.747188 
L 680.627031 83.747188 
" clip-path="url(#pe154191174)" style="fill: none; stroke: #e7e5e4; stroke-opacity: 0.7; stroke-width: 0.4; stroke-linecap: square"/>
     </g>
     <g id="line2d_43"/>
     <g id="text_26">
      <!-- 8000 -->
      <g style="fill: #c1554d" transform="translate(684.127031 87.384688) scale(0.1 -0.1)">
       <use xlink:href="#Inter-Regular-38"/>
       <use xlink:href="#Inter-Regular-30" transform="translate(61.865234 0)"/>
       <use xlink:href="#Inter-Regular-30" transform="translate(124.951172 0)"/>
       <use xlink:href="#Inter-Regular-30" transform="translate(188.037109 0)"/>
      </g>
     </g>
    </g>
    <g id="ytick_17">
     <g id="line2d_44">
      <path d="M 62.867031 47.347188 
L 680.627031 47.347188 
" clip-path="url(#pe154191174)" style="fill: none; stroke: #e7e5e4; stroke-opacity: 0.7; stroke-width: 0.4; stroke-linecap: square"/>
     </g>
     <g id="line2d_45"/>
     <g id="text_27">
      <!-- 9000 -->
      <g style="fill: #c1554d" transform="translate(684.127031 50.984688) scale(0.1 -0.1)">
       <defs>
        <path id="Inter-Regular-39" d="M 1884 -63 
Q 1488 -63 1178 93 
Q 869 250 672 531 
Q 475 813 419 1184 
L 1006 1184 
Q 1078 875 1297 669 
Q 1516 463 1884 463 
Q 2416 463 2723 927 
Q 3031 1391 3031 2238 
L 2994 2238 
Q 2806 1953 2509 1784 
Q 2213 1616 1847 1616 
Q 1447 1616 1112 1814 
Q 778 2013 579 2361 
Q 381 2709 381 3156 
Q 381 3591 578 3948 
Q 775 4306 1129 4517 
Q 1484 4728 1963 4719 
Q 2250 4716 2537 4608 
Q 2825 4500 3062 4253 
Q 3300 4006 3444 3581 
Q 3588 3156 3588 2513 
Q 3588 1278 3131 607 
Q 2675 -63 1884 -63 
z
M 1934 2134 
Q 2219 2134 2447 2279 
Q 2675 2425 2811 2662 
Q 2947 2900 2947 3172 
Q 2947 3441 2817 3673 
Q 2688 3906 2464 4051 
Q 2241 4197 1953 4197 
Q 1672 4197 1448 4058 
Q 1225 3919 1094 3683 
Q 963 3447 963 3159 
Q 963 2875 1089 2642 
Q 1216 2409 1434 2271 
Q 1653 2134 1934 2134 
z
" transform="scale(0.015625)"/>
       </defs>
       <use xlink:href="#Inter-Regular-39"/>
       <use xlink:href="#Inter-Regular-30" transform="translate(62.011719 0)"/>
       <use xlink:href="#Inter-Regular-30" transform="translate(125.097656 0)"/>
       <use xlink:href="#Inter-Regular-30" transform="translate(188.183594 0)"/>
      </g>
     </g>
    </g>
    <g id="text_28">
     <!-- Arrêtés CatNat sécheresse par an -->
     <g style="fill: #c1554d" transform="translate(725.951875 302.03125) rotate(-90) scale(0.11 -0.11)">
      <defs>
       <path id="Inter-Bold-41" d="M 153 0 
L 1744 4656 
L 2994 4656 
L 4625 0 
L 3566 0 
L 3206 1081 
L 1553 1081 
L 1206 0 
L 153 0 
z
M 1791 1828 
L 2959 1828 
L 2819 2247 
Q 2706 2603 2593 3018 
Q 2481 3434 2359 3909 
Q 2244 3428 2137 3012 
Q 2031 2597 1925 2247 
L 1791 1828 
z
" transform="scale(0.015625)"/>
       <path id="Inter-Bold-4e" d="M 422 0 
L 422 4656 
L 1484 4656 
L 2956 2300 
Q 3094 2072 3241 1798 
Q 3388 1525 3541 1159 
Q 3516 1503 3498 1848 
Q 3481 2194 3481 2422 
L 3481 4656 
L 4456 4656 
L 4456 0 
L 3391 0 
L 2053 2138 
Q 1925 2347 1815 2544 
Q 1706 2741 1592 2964 
Q 1478 3188 1334 3478 
Q 1359 3056 1378 2701 
Q 1397 2347 1397 2141 
L 1397 0 
L 422 0 
z
" transform="scale(0.015625)"/>
       <path id="Inter-Bold-68" d="M 1338 2022 
L 1338 0 
L 400 0 
L 400 4656 
L 1319 4656 
L 1319 2825 
Q 1472 3166 1734 3352 
Q 1997 3538 2384 3538 
Q 2928 3538 3258 3188 
Q 3588 2838 3588 2222 
L 3588 0 
L 2647 0 
L 2647 2059 
Q 2647 2384 2480 2568 
Q 2313 2753 2016 2753 
Q 1716 2753 1527 2561 
Q 1338 2369 1338 2022 
z
" transform="scale(0.015625)"/>
      </defs>
      <use xlink:href="#Inter-Bold-41"/>
      <use xlink:href="#Inter-Bold-72" transform="translate(74.658203 0)"/>
      <use xlink:href="#Inter-Bold-72" transform="translate(115.380859 0)"/>
      <use xlink:href="#Inter-Bold-ea" transform="translate(156.103516 0)"/>
      <use xlink:href="#Inter-Bold-74" transform="translate(215.673828 0)"/>
      <use xlink:href="#Inter-Bold-e9" transform="translate(252.294922 0)"/>
      <use xlink:href="#Inter-Bold-73" transform="translate(311.865234 0)"/>
      <use xlink:href="#Inter-Bold-20" transform="translate(367.871094 0)"/>
      <use xlink:href="#Inter-Bold-43" transform="translate(391.552734 0)"/>
      <use xlink:href="#Inter-Bold-61" transform="translate(465.527344 0)"/>
      <use xlink:href="#Inter-Bold-74" transform="translate(523.583984 0)"/>
      <use xlink:href="#Inter-Bold-4e" transform="translate(560.205078 0)"/>
      <use xlink:href="#Inter-Bold-61" transform="translate(636.425781 0)"/>
      <use xlink:href="#Inter-Bold-74" transform="translate(694.482422 0)"/>
      <use xlink:href="#Inter-Bold-20" transform="translate(731.103516 0)"/>
      <use xlink:href="#Inter-Bold-73" transform="translate(754.785156 0)"/>
      <use xlink:href="#Inter-Bold-e9" transform="translate(810.791016 0)"/>
      <use xlink:href="#Inter-Bold-63" transform="translate(870.361328 0)"/>
      <use xlink:href="#Inter-Bold-68" transform="translate(929.199219 0)"/>
      <use xlink:href="#Inter-Bold-65" transform="translate(991.455078 0)"/>
      <use xlink:href="#Inter-Bold-72" transform="translate(1051.025391 0)"/>
      <use xlink:href="#Inter-Bold-65" transform="translate(1091.748047 0)"/>
      <use xlink:href="#Inter-Bold-73" transform="translate(1151.318359 0)"/>
      <use xlink:href="#Inter-Bold-73" transform="translate(1207.324219 0)"/>
      <use xlink:href="#Inter-Bold-65" transform="translate(1263.330078 0)"/>
      <use xlink:href="#Inter-Bold-20" transform="translate(1322.900391 0)"/>
      <use xlink:href="#Inter-Bold-70" transform="translate(1346.582031 0)"/>
      <use xlink:href="#Inter-Bold-61" transform="translate(1409.619141 0)"/>
      <use xlink:href="#Inter-Bold-72" transform="translate(1467.675781 0)"/>
      <use xlink:href="#Inter-Bold-20" transform="translate(1508.398438 0)"/>
      <use xlink:href="#Inter-Bold-61" transform="translate(1532.080078 0)"/>
      <use xlink:href="#Inter-Bold-6e" transform="translate(1590.136719 0)"/>
     </g>
    </g>
   </g>
   <g id="line2d_46">
    <path d="M 90.947031 370.651988 
L 115.364423 374.073588 
L 139.781814 343.024388 
L 164.199205 212.129988 
L 188.616596 364.500388 
L 213.033988 257.156788 
L 237.451379 357.729988 
L 261.86877 358.239588 
L 286.286162 369.013988 
L 310.703553 352.561188 
L 335.120944 371.125188 
L 359.538336 290.790388 
L 383.955727 350.995988 
L 408.373118 374.000788 
L 432.79051 373.345588 
L 457.207901 367.448788 
L 481.625292 338.801988 
L 506.042683 297.742788 
L 530.460075 225.998388 
L 554.877466 253.735188 
L 579.294857 279.870388 
L 603.712249 365.009988 
L 628.12964 85.712788 
L 652.547031 328.573588 
" clip-path="url(#pe154191174)" style="fill: none; stroke: #c1554d; stroke-width: 3; stroke-linecap: square"/>
    <defs>
     <path id="m4260c7045d" d="M -3 3 
L 3 3 
L 3 -3 
L -3 -3 
z
" style="stroke: #c1554d; stroke-linejoin: miter"/>
    </defs>
    <g clip-path="url(#pe154191174)">
     <use xlink:href="#m4260c7045d" x="90.947031" y="370.651988" style="fill: #c1554d; stroke: #c1554d; stroke-linejoin: miter"/>
     <use xlink:href="#m4260c7045d" x="115.364423" y="374.073588" style="fill: #c1554d; stroke: #c1554d; stroke-linejoin: miter"/>
     <use xlink:href="#m4260c7045d" x="139.781814" y="343.024388" style="fill: #c1554d; stroke: #c1554d; stroke-linejoin: miter"/>
     <use xlink:href="#m4260c7045d" x="164.199205" y="212.129988" style="fill: #c1554d; stroke: #c1554d; stroke-linejoin: miter"/>
     <use xlink:href="#m4260c7045d" x="188.616596" y="364.500388" style="fill: #c1554d; stroke: #c1554d; stroke-linejoin: miter"/>
     <use xlink:href="#m4260c7045d" x="213.033988" y="257.156788" style="fill: #c1554d; stroke: #c1554d; stroke-linejoin: miter"/>
     <use xlink:href="#m4260c7045d" x="237.451379" y="357.729988" style="fill: #c1554d; stroke: #c1554d; stroke-linejoin: miter"/>
     <use xlink:href="#m4260c7045d" x="261.86877" y="358.239588" style="fill: #c1554d; stroke: #c1554d; stroke-linejoin: miter"/>
     <use xlink:href="#m4260c7045d" x="286.286162" y="369.013988" style="fill: #c1554d; stroke: #c1554d; stroke-linejoin: miter"/>
     <use xlink:href="#m4260c7045d" x="310.703553" y="352.561188" style="fill: #c1554d; stroke: #c1554d; stroke-linejoin: miter"/>
     <use xlink:href="#m4260c7045d" x="335.120944" y="371.125188" style="fill: #c1554d; stroke: #c1554d; stroke-linejoin: miter"/>
     <use xlink:href="#m4260c7045d" x="359.538336" y="290.790388" style="fill: #c1554d; stroke: #c1554d; stroke-linejoin: miter"/>
     <use xlink:href="#m4260c7045d" x="383.955727" y="350.995988" style="fill: #c1554d; stroke: #c1554d; stroke-linejoin: miter"/>
     <use xlink:href="#m4260c7045d" x="408.373118" y="374.000788" style="fill: #c1554d; stroke: #c1554d; stroke-linejoin: miter"/>
     <use xlink:href="#m4260c7045d" x="432.79051" y="373.345588" style="fill: #c1554d; stroke: #c1554d; stroke-linejoin: miter"/>
     <use xlink:href="#m4260c7045d" x="457.207901" y="367.448788" style="fill: #c1554d; stroke: #c1554d; stroke-linejoin: miter"/>
     <use xlink:href="#m4260c7045d" x="481.625292" y="338.801988" style="fill: #c1554d; stroke: #c1554d; stroke-linejoin: miter"/>
     <use xlink:href="#m4260c7045d" x="506.042683" y="297.742788" style="fill: #c1554d; stroke: #c1554d; stroke-linejoin: miter"/>
     <use xlink:href="#m4260c7045d" x="530.460075" y="225.998388" style="fill: #c1554d; stroke: #c1554d; stroke-linejoin: miter"/>
     <use xlink:href="#m4260c7045d" x="554.877466" y="253.735188" style="fill: #c1554d; stroke: #c1554d; stroke-linejoin: miter"/>
     <use xlink:href="#m4260c7045d" x="579.294857" y="279.870388" style="fill: #c1554d; stroke: #c1554d; stroke-linejoin: miter"/>
     <use xlink:href="#m4260c7045d" x="603.712249" y="365.009988" style="fill: #c1554d; stroke: #c1554d; stroke-linejoin: miter"/>
     <use xlink:href="#m4260c7045d" x="628.12964" y="85.712788" style="fill: #c1554d; stroke: #c1554d; stroke-linejoin: miter"/>
     <use xlink:href="#m4260c7045d" x="652.547031" y="328.573588" style="fill: #c1554d; stroke: #c1554d; stroke-linejoin: miter"/>
    </g>
   </g>
   <g id="patch_7">
    <path d="M 62.867031 374.947188 
L 62.867031 47.347188 
" style="fill: none; stroke: #e7e5e4; stroke-width: 0.6; stroke-linejoin: miter; stroke-linecap: square"/>
   </g>
   <g id="patch_8">
    <path d="M 62.867031 374.947188 
L 680.627031 374.947188 
" style="fill: none; stroke: #e7e5e4; stroke-width: 0.6; stroke-linejoin: miter; stroke-linecap: square"/>
   </g>
   <g id="patch_9">
    <path d="M 567.287566 104.94422 
Q 596.756089 95.629582 624.945356 86.719301 
" style="fill: none; stroke: #c1554d; stroke-width: 1.2; stroke-linecap: round"/>
    <path d="M 620.97025 86.088003 
L 624.945356 86.719301 
L 622.055254 89.520606 
" style="fill: none; stroke: #c1554d; stroke-width: 1.2; stroke-linecap: round"/>
   </g>
   <g id="text_29">
    <!-- record 2022 : 7 946 arrêtés -->
    <g style="fill: #c1554d" transform="translate(471.683747 114.093625) scale(0.09 -0.09)">
     <defs>
      <path id="Inter-Regular-ea" d="M 1963 -75 
Q 1456 -75 1089 150 
Q 722 375 523 778 
Q 325 1181 325 1719 
Q 325 2256 519 2665 
Q 713 3075 1067 3306 
Q 1422 3538 1897 3538 
Q 2175 3538 2445 3445 
Q 2716 3353 2936 3148 
Q 3156 2944 3287 2609 
Q 3419 2275 3419 1791 
L 3419 1556 
L 894 1556 
Q 916 1009 1208 717 
Q 1500 425 1966 425 
Q 2275 425 2498 561 
Q 2722 697 2819 963 
L 3363 813 
Q 3241 416 2870 170 
Q 2500 -75 1963 -75 
z
M 897 2031 
L 2847 2031 
Q 2806 2478 2567 2758 
Q 2328 3038 1897 3038 
Q 1597 3038 1380 2897 
Q 1163 2756 1038 2528 
Q 913 2300 897 2031 
z
M 1432 4006 
L 879 4006 
L 879 4034 
L 1613 4869 
L 2148 4869 
L 2885 4034 
L 2885 4006 
L 2326 4006 
L 1882 4553 
L 1432 4006 
z
" transform="scale(0.015625)"/>
      <path id="Inter-Regular-74" d="M 1869 3494 
L 1869 3013 
L 1150 3013 
L 1150 906 
Q 1150 672 1245 564 
Q 1341 456 1563 456 
Q 1616 456 1698 468 
Q 1781 481 1850 494 
L 1966 19 
Q 1878 -13 1767 -28 
Q 1656 -44 1547 -44 
Q 1094 -44 841 195 
Q 588 434 588 863 
L 588 3013 
L 63 3013 
L 63 3494 
L 588 3494 
L 588 4325 
L 1150 4325 
L 1150 3494 
L 1869 3494 
z
" transform="scale(0.015625)"/>
     </defs>
     <use xlink:href="#Inter-Regular-72"/>
     <use xlink:href="#Inter-Regular-65" transform="translate(37.646484 0)"/>
     <use xlink:href="#Inter-Regular-63" transform="translate(95.947266 0)"/>
     <use xlink:href="#Inter-Regular-6f" transform="translate(153.076172 0)"/>
     <use xlink:href="#Inter-Regular-72" transform="translate(213.037109 0)"/>
     <use xlink:href="#Inter-Regular-64" transform="translate(250.683594 0)"/>
     <use xlink:href="#Inter-Regular-20" transform="translate(311.914062 0)"/>
     <use xlink:href="#Inter-Regular-32" transform="translate(340.039062 0)"/>
     <use xlink:href="#Inter-Regular-30" transform="translate(401.025391 0)"/>
     <use xlink:href="#Inter-Regular-32" transform="translate(464.111328 0)"/>
     <use xlink:href="#Inter-Regular-32" transform="translate(525.097656 0)"/>
     <use xlink:href="#Inter-Regular-20" transform="translate(586.083984 0)"/>
     <use xlink:href="#Inter-Regular-3a" transform="translate(614.208984 0)"/>
     <use xlink:href="#Inter-Regular-20" transform="translate(643.017578 0)"/>
     <use xlink:href="#Inter-Regular-37" transform="translate(671.142578 0)"/>
     <use xlink:href="#Inter-Regular-20" transform="translate(727.734375 0)"/>
     <use xlink:href="#Inter-Regular-39" transform="translate(755.859375 0)"/>
     <use xlink:href="#Inter-Regular-34" transform="translate(817.871094 0)"/>
     <use xlink:href="#Inter-Regular-36" transform="translate(882.470703 0)"/>
     <use xlink:href="#Inter-Regular-20" transform="translate(944.482422 0)"/>
     <use xlink:href="#Inter-Regular-61" transform="translate(972.607422 0)"/>
     <use xlink:href="#Inter-Regular-72" transform="translate(1028.759766 0)"/>
     <use xlink:href="#Inter-Regular-72" transform="translate(1066.40625 0)"/>
     <use xlink:href="#Inter-Regular-ea" transform="translate(1104.052734 0)"/>
     <use xlink:href="#Inter-Regular-74" transform="translate(1162.353516 0)"/>
     <use xlink:href="#Inter-Regular-e9" transform="translate(1195.068359 0)"/>
     <use xlink:href="#Inter-Regular-73" transform="translate(1253.369141 0)"/>
    </g>
    <!-- CatNat sécheresse -->
    <g style="fill: #c1554d" transform="translate(489.974137 123.787188) scale(0.09 -0.09)">
     <defs>
      <path id="Inter-Regular-4e" d="M 563 0 
L 563 4656 
L 1263 4656 
L 3156 1678 
Q 3250 1528 3398 1273 
Q 3547 1019 3706 703 
Q 3678 1041 3672 1327 
Q 3666 1613 3666 1800 
L 3666 4656 
L 4259 4656 
L 4259 0 
L 3553 0 
L 1866 2650 
Q 1759 2816 1654 2991 
Q 1550 3166 1422 3394 
Q 1294 3622 1113 3944 
Q 1131 3497 1145 3161 
Q 1159 2825 1159 2656 
L 1159 0 
L 563 0 
z
" transform="scale(0.015625)"/>
      <path id="Inter-Regular-68" d="M 1056 2094 
L 1056 0 
L 494 0 
L 494 4656 
L 1056 4656 
L 1056 2888 
Q 1228 3238 1495 3388 
Q 1763 3538 2106 3538 
Q 2638 3538 2964 3209 
Q 3291 2881 3291 2219 
L 3291 0 
L 2725 0 
L 2725 2172 
Q 2725 2575 2514 2803 
Q 2303 3031 1938 3031 
Q 1559 3031 1307 2786 
Q 1056 2541 1056 2094 
z
" transform="scale(0.015625)"/>
     </defs>
     <use xlink:href="#Inter-Regular-43"/>
     <use xlink:href="#Inter-Regular-61" transform="translate(73.046875 0)"/>
     <use xlink:href="#Inter-Regular-74" transform="translate(129.199219 0)"/>
     <use xlink:href="#Inter-Regular-4e" transform="translate(161.914062 0)"/>
     <use xlink:href="#Inter-Regular-61" transform="translate(237.255859 0)"/>
     <use xlink:href="#Inter-Regular-74" transform="translate(293.408203 0)"/>
     <use xlink:href="#Inter-Regular-20" transform="translate(326.123047 0)"/>
     <use xlink:href="#Inter-Regular-73" transform="translate(354.248047 0)"/>
     <use xlink:href="#Inter-Regular-e9" transform="translate(407.03125 0)"/>
     <use xlink:href="#Inter-Regular-63" transform="translate(465.332031 0)"/>
     <use xlink:href="#Inter-Regular-68" transform="translate(522.460938 0)"/>
     <use xlink:href="#Inter-Regular-65" transform="translate(581.591797 0)"/>
     <use xlink:href="#Inter-Regular-72" transform="translate(639.892578 0)"/>
     <use xlink:href="#Inter-Regular-65" transform="translate(677.539062 0)"/>
     <use xlink:href="#Inter-Regular-73" transform="translate(735.839844 0)"/>
     <use xlink:href="#Inter-Regular-73" transform="translate(788.623047 0)"/>
     <use xlink:href="#Inter-Regular-65" transform="translate(841.40625 0)"/>
    </g>
   </g>
  </g>
  <g id="text_30">
   <!-- Sources : GASPAR (tables DICRIM + CatNat par département, déc. 2025). Tronqué à 2023 (années 2024-2025 en cours d'instruction). Tawiza -->
   <g style="fill: #a8a29e" transform="translate(60.099648 440.467188) scale(0.095 -0.095)">
    <defs>
     <path id="Inter-Regular-53" d="M 2053 -81 
Q 1297 -81 850 276 
Q 403 634 363 1219 
L 972 1219 
Q 997 956 1150 786 
Q 1303 616 1542 533 
Q 1781 450 2053 450 
Q 2369 450 2620 553 
Q 2872 656 3019 843 
Q 3166 1031 3166 1278 
Q 3166 1503 3039 1643 
Q 2913 1784 2703 1875 
Q 2494 1966 2244 2034 
L 1681 2194 
Q 1119 2353 806 2650 
Q 494 2947 494 3409 
Q 494 3803 706 4098 
Q 919 4394 1281 4556 
Q 1644 4719 2094 4719 
Q 2553 4719 2906 4556 
Q 3259 4394 3464 4114 
Q 3669 3834 3681 3481 
L 3100 3481 
Q 3059 3822 2775 4008 
Q 2491 4194 2075 4194 
Q 1622 4194 1347 3980 
Q 1072 3766 1072 3438 
Q 1072 3194 1223 3045 
Q 1375 2897 1583 2814 
Q 1791 2731 1959 2684 
L 2425 2556 
Q 2613 2506 2839 2418 
Q 3066 2331 3272 2186 
Q 3478 2041 3611 1817 
Q 3744 1594 3744 1269 
Q 3744 888 3545 581 
Q 3347 275 2969 97 
Q 2591 -81 2053 -81 
z
" transform="scale(0.015625)"/>
     <path id="Inter-Regular-47" d="M 2466 -63 
Q 1844 -63 1375 228 
Q 906 519 643 1055 
Q 381 1591 381 2325 
Q 381 3066 643 3602 
Q 906 4138 1368 4428 
Q 1831 4719 2428 4719 
Q 2922 4719 3323 4526 
Q 3725 4334 3990 3992 
Q 4256 3650 4341 3197 
L 3728 3197 
Q 3584 3644 3254 3906 
Q 2925 4169 2431 4169 
Q 2022 4169 1687 3958 
Q 1353 3747 1156 3336 
Q 959 2925 959 2325 
Q 959 1731 1157 1322 
Q 1356 913 1697 700 
Q 2038 488 2466 488 
Q 2853 488 3150 650 
Q 3447 813 3617 1113 
Q 3788 1413 3794 1822 
L 2588 1822 
L 2588 2341 
L 4375 2341 
L 4375 1831 
Q 4375 1253 4128 828 
Q 3881 403 3451 170 
Q 3022 -63 2466 -63 
z
" transform="scale(0.015625)"/>
     <path id="Inter-Regular-50" d="M 563 0 
L 563 4656 
L 2156 4656 
Q 2700 4656 3051 4457 
Q 3403 4259 3573 3925 
Q 3744 3591 3744 3175 
Q 3744 2759 3573 2421 
Q 3403 2084 3053 1884 
Q 2703 1684 2159 1684 
L 1156 1684 
L 1156 0 
L 563 0 
z
M 1156 2206 
L 2131 2206 
Q 2684 2206 2918 2482 
Q 3153 2759 3153 3175 
Q 3153 3588 2918 3861 
Q 2684 4134 2125 4134 
L 1156 4134 
L 1156 2206 
z
" transform="scale(0.015625)"/>
     <path id="Inter-Regular-28" d="M 681 1897 
Q 681 2406 786 2964 
Q 891 3522 1072 4039 
Q 1253 4556 1488 4941 
L 2034 4941 
Q 1794 4450 1617 3919 
Q 1441 3388 1347 2870 
Q 1253 2353 1253 1897 
Q 1253 1275 1442 617 
Q 1631 -41 2034 -872 
L 1488 -872 
Q 1091 -194 886 509 
Q 681 1213 681 1897 
z
" transform="scale(0.015625)"/>
     <path id="Inter-Regular-2b" d="M 1853 313 
L 1853 1575 
L 609 1575 
L 609 2072 
L 1853 2072 
L 1853 3331 
L 2381 3331 
L 2381 2072 
L 3625 2072 
L 3625 1575 
L 2381 1575 
L 2381 313 
L 1853 313 
z
" transform="scale(0.015625)"/>
     <path id="Inter-Regular-2c" d="M 404 -1148 
L 679 624 
L 1323 624 
L 835 -1148 
L 404 -1148 
z
" transform="scale(0.015625)"/>
     <path id="Inter-Regular-2e" d="M 922 -41 
Q 747 -41 623 82 
Q 500 206 500 381 
Q 500 556 623 679 
Q 747 803 922 803 
Q 1097 803 1220 679 
Q 1344 556 1344 381 
Q 1344 206 1220 82 
Q 1097 -41 922 -41 
z
" transform="scale(0.015625)"/>
     <path id="Inter-Regular-29" d="M 300 -872 
Q 716 -16 898 639 
Q 1081 1294 1081 1897 
Q 1081 2353 987 2870 
Q 894 3388 719 3919 
Q 544 4450 300 4941 
L 847 4941 
Q 1081 4556 1264 4039 
Q 1447 3522 1550 2962 
Q 1653 2403 1653 1897 
Q 1653 1200 1445 497 
Q 1238 -206 847 -872 
L 300 -872 
z
" transform="scale(0.015625)"/>
     <path id="Inter-Regular-54" d="M 306 4131 
L 306 4656 
L 3825 4656 
L 3825 4131 
L 2366 4131 
L 2366 0 
L 1772 0 
L 1772 4131 
L 306 4131 
z
" transform="scale(0.015625)"/>
     <path id="Inter-Regular-71" d="M 3425 -1306 
L 2863 -1306 
L 2863 541 
L 2819 541 
Q 2763 444 2652 298 
Q 2541 153 2339 39 
Q 2138 -75 1803 -75 
Q 1369 -75 1034 147 
Q 700 369 512 775 
Q 325 1181 325 1738 
Q 325 2291 514 2695 
Q 703 3100 1037 3319 
Q 1372 3538 1806 3538 
Q 2147 3538 2347 3425 
Q 2547 3313 2655 3170 
Q 2763 3028 2819 2934 
L 2881 2934 
L 2881 3494 
L 3425 3494 
L 3425 -1306 
z
M 1888 428 
Q 2363 428 2616 793 
Q 2869 1159 2869 1744 
Q 2869 2322 2620 2678 
Q 2372 3034 1888 3034 
Q 1556 3034 1336 2862 
Q 1116 2691 1006 2398 
Q 897 2106 897 1744 
Q 897 1378 1008 1079 
Q 1119 781 1341 604 
Q 1563 428 1888 428 
z
" transform="scale(0.015625)"/>
     <path id="Inter-Regular-e0" d="M 1472 -81 
Q 1141 -81 870 44 
Q 600 169 440 409 
Q 281 650 281 994 
Q 281 1294 400 1481 
Q 519 1669 717 1776 
Q 916 1884 1156 1937 
Q 1397 1991 1641 2022 
Q 1953 2063 2150 2084 
Q 2347 2106 2442 2159 
Q 2538 2213 2538 2341 
L 2538 2359 
Q 2538 2684 2353 2864 
Q 2169 3044 1806 3044 
Q 1428 3044 1215 2880 
Q 1003 2716 922 2531 
L 381 2709 
Q 516 3028 744 3208 
Q 972 3388 1247 3463 
Q 1522 3538 1791 3538 
Q 1966 3538 2189 3495 
Q 2413 3453 2620 3328 
Q 2828 3203 2964 2958 
Q 3100 2713 3100 2303 
L 3100 0 
L 2547 0 
L 2547 475 
L 2509 475 
Q 2450 353 2319 223 
Q 2188 94 1978 6 
Q 1769 -81 1472 -81 
z
M 1569 416 
Q 1881 416 2097 537 
Q 2313 659 2425 854 
Q 2538 1050 2538 1263 
L 2538 1747 
Q 2503 1706 2387 1673 
Q 2272 1641 2123 1616 
Q 1975 1591 1836 1573 
Q 1697 1556 1616 1547 
Q 1413 1522 1236 1461 
Q 1059 1400 953 1283 
Q 847 1166 847 966 
Q 847 694 1051 555 
Q 1256 416 1569 416 
z
M 1520 3950 
L 917 4869 
L 1545 4869 
L 1982 3950 
L 1520 3950 
z
" transform="scale(0.015625)"/>
     <path id="Inter-Regular-2d" d="M 2494 2247 
L 2494 1728 
L 450 1728 
L 450 2247 
L 2494 2247 
z
" transform="scale(0.015625)"/>
     <path id="Inter-Regular-27" d="M 725 2884 
L 656 4656 
L 1263 4656 
L 1194 2884 
L 725 2884 
z
" transform="scale(0.015625)"/>
     <path id="Inter-Regular-77" d="M 1278 0 
L 219 3494 
L 816 3494 
L 1241 1969 
Q 1316 1697 1403 1358 
Q 1491 1019 1575 603 
Q 1659 1003 1742 1340 
Q 1825 1678 1906 1969 
L 2325 3494 
L 2925 3494 
L 3338 1969 
Q 3413 1688 3495 1352 
Q 3578 1016 3659 613 
Q 3747 1013 3833 1348 
Q 3919 1684 3997 1969 
L 4422 3494 
L 5019 3494 
L 3959 0 
L 3400 0 
L 2947 1581 
Q 2859 1881 2779 2200 
Q 2700 2519 2619 2853 
Q 2541 2519 2458 2197 
Q 2375 1875 2291 1581 
L 1838 0 
L 1278 0 
z
" transform="scale(0.015625)"/>
     <path id="Inter-Regular-7a" d="M 394 0 
L 394 419 
L 2353 2938 
L 2353 2972 
L 456 2972 
L 456 3494 
L 3078 3494 
L 3078 3047 
L 1175 556 
L 1175 522 
L 3141 522 
L 3141 0 
L 394 0 
z
" transform="scale(0.015625)"/>
    </defs>
    <use xlink:href="#Inter-Regular-53"/>
    <use xlink:href="#Inter-Regular-6f" transform="translate(64.160156 0)"/>
    <use xlink:href="#Inter-Regular-75" transform="translate(124.121094 0)"/>
    <use xlink:href="#Inter-Regular-72" transform="translate(183.251953 0)"/>
    <use xlink:href="#Inter-Regular-63" transform="translate(220.898438 0)"/>
    <use xlink:href="#Inter-Regular-65" transform="translate(278.027344 0)"/>
    <use xlink:href="#Inter-Regular-73" transform="translate(336.328125 0)"/>
    <use xlink:href="#Inter-Regular-20" transform="translate(389.111328 0)"/>
    <use xlink:href="#Inter-Regular-3a" transform="translate(417.236328 0)"/>
    <use xlink:href="#Inter-Regular-20" transform="translate(446.044922 0)"/>
    <use xlink:href="#Inter-Regular-47" transform="translate(474.169922 0)"/>
    <use xlink:href="#Inter-Regular-41" transform="translate(548.779297 0)"/>
    <use xlink:href="#Inter-Regular-53" transform="translate(617.773438 0)"/>
    <use xlink:href="#Inter-Regular-50" transform="translate(681.933594 0)"/>
    <use xlink:href="#Inter-Regular-41" transform="translate(745.800781 0)"/>
    <use xlink:href="#Inter-Regular-52" transform="translate(814.794922 0)"/>
    <use xlink:href="#Inter-Regular-20" transform="translate(879.150391 0)"/>
    <use xlink:href="#Inter-Regular-28" transform="translate(907.275391 0)"/>
    <use xlink:href="#Inter-Regular-74" transform="translate(943.75 0)"/>
    <use xlink:href="#Inter-Regular-61" transform="translate(976.464844 0)"/>
    <use xlink:href="#Inter-Regular-62" transform="translate(1032.617188 0)"/>
    <use xlink:href="#Inter-Regular-6c" transform="translate(1093.847656 0)"/>
    <use xlink:href="#Inter-Regular-65" transform="translate(1118.066406 0)"/>
    <use xlink:href="#Inter-Regular-73" transform="translate(1176.367188 0)"/>
    <use xlink:href="#Inter-Regular-20" transform="translate(1229.150391 0)"/>
    <use xlink:href="#Inter-Regular-44" transform="translate(1257.275391 0)"/>
    <use xlink:href="#Inter-Regular-49" transform="translate(1329.443359 0)"/>
    <use xlink:href="#Inter-Regular-43" transform="translate(1356.298828 0)"/>
    <use xlink:href="#Inter-Regular-52" transform="translate(1429.345703 0)"/>
    <use xlink:href="#Inter-Regular-49" transform="translate(1493.701172 0)"/>
    <use xlink:href="#Inter-Regular-4d" transform="translate(1520.556641 0)"/>
    <use xlink:href="#Inter-Regular-20" transform="translate(1610.888672 0)"/>
    <use xlink:href="#Inter-Regular-2b" transform="translate(1639.013672 0)"/>
    <use xlink:href="#Inter-Regular-20" transform="translate(1705.175781 0)"/>
    <use xlink:href="#Inter-Regular-43" transform="translate(1733.300781 0)"/>
    <use xlink:href="#Inter-Regular-61" transform="translate(1806.347656 0)"/>
    <use xlink:href="#Inter-Regular-74" transform="translate(1862.5 0)"/>
    <use xlink:href="#Inter-Regular-4e" transform="translate(1895.214844 0)"/>
    <use xlink:href="#Inter-Regular-61" transform="translate(1970.556641 0)"/>
    <use xlink:href="#Inter-Regular-74" transform="translate(2026.708984 0)"/>
    <use xlink:href="#Inter-Regular-20" transform="translate(2059.423828 0)"/>
    <use xlink:href="#Inter-Regular-70" transform="translate(2087.548828 0)"/>
    <use xlink:href="#Inter-Regular-61" transform="translate(2148.779297 0)"/>
    <use xlink:href="#Inter-Regular-72" transform="translate(2204.931641 0)"/>
    <use xlink:href="#Inter-Regular-20" transform="translate(2242.578125 0)"/>
    <use xlink:href="#Inter-Regular-64" transform="translate(2270.703125 0)"/>
    <use xlink:href="#Inter-Regular-e9" transform="translate(2331.933594 0)"/>
    <use xlink:href="#Inter-Regular-70" transform="translate(2390.234375 0)"/>
    <use xlink:href="#Inter-Regular-61" transform="translate(2451.464844 0)"/>
    <use xlink:href="#Inter-Regular-72" transform="translate(2507.617188 0)"/>
    <use xlink:href="#Inter-Regular-74" transform="translate(2545.263672 0)"/>
    <use xlink:href="#Inter-Regular-65" transform="translate(2577.978516 0)"/>
    <use xlink:href="#Inter-Regular-6d" transform="translate(2636.279297 0)"/>
    <use xlink:href="#Inter-Regular-65" transform="translate(2723.876953 0)"/>
    <use xlink:href="#Inter-Regular-6e" transform="translate(2782.177734 0)"/>
    <use xlink:href="#Inter-Regular-74" transform="translate(2841.259766 0)"/>
    <use xlink:href="#Inter-Regular-2c" transform="translate(2873.974609 0)"/>
    <use xlink:href="#Inter-Regular-20" transform="translate(2902.783203 0)"/>
    <use xlink:href="#Inter-Regular-64" transform="translate(2930.908203 0)"/>
    <use xlink:href="#Inter-Regular-e9" transform="translate(2992.138672 0)"/>
    <use xlink:href="#Inter-Regular-63" transform="translate(3050.439453 0)"/>
    <use xlink:href="#Inter-Regular-2e" transform="translate(3107.568359 0)"/>
    <use xlink:href="#Inter-Regular-20" transform="translate(3136.376953 0)"/>
    <use xlink:href="#Inter-Regular-32" transform="translate(3164.501953 0)"/>
    <use xlink:href="#Inter-Regular-30" transform="translate(3225.488281 0)"/>
    <use xlink:href="#Inter-Regular-32" transform="translate(3288.574219 0)"/>
    <use xlink:href="#Inter-Regular-35" transform="translate(3349.560547 0)"/>
    <use xlink:href="#Inter-Regular-29" transform="translate(3408.886719 0)"/>
    <use xlink:href="#Inter-Regular-2e" transform="translate(3445.361328 0)"/>
    <use xlink:href="#Inter-Regular-20" transform="translate(3474.169922 0)"/>
    <use xlink:href="#Inter-Regular-54" transform="translate(3502.294922 0)"/>
    <use xlink:href="#Inter-Regular-72" transform="translate(3566.845703 0)"/>
    <use xlink:href="#Inter-Regular-6f" transform="translate(3604.492188 0)"/>
    <use xlink:href="#Inter-Regular-6e" transform="translate(3664.453125 0)"/>
    <use xlink:href="#Inter-Regular-71" transform="translate(3723.535156 0)"/>
    <use xlink:href="#Inter-Regular-75" transform="translate(3784.765625 0)"/>
    <use xlink:href="#Inter-Regular-e9" transform="translate(3843.896484 0)"/>
    <use xlink:href="#Inter-Regular-20" transform="translate(3902.197266 0)"/>
    <use xlink:href="#Inter-Regular-e0" transform="translate(3930.322266 0)"/>
    <use xlink:href="#Inter-Regular-20" transform="translate(3986.474609 0)"/>
    <use xlink:href="#Inter-Regular-32" transform="translate(4014.599609 0)"/>
    <use xlink:href="#Inter-Regular-30" transform="translate(4075.585938 0)"/>
    <use xlink:href="#Inter-Regular-32" transform="translate(4138.671875 0)"/>
    <use xlink:href="#Inter-Regular-33" transform="translate(4199.658203 0)"/>
    <use xlink:href="#Inter-Regular-20" transform="translate(4261.425781 0)"/>
    <use xlink:href="#Inter-Regular-28" transform="translate(4289.550781 0)"/>
    <use xlink:href="#Inter-Regular-61" transform="translate(4326.025391 0)"/>
    <use xlink:href="#Inter-Regular-6e" transform="translate(4382.177734 0)"/>
    <use xlink:href="#Inter-Regular-6e" transform="translate(4441.259766 0)"/>
    <use xlink:href="#Inter-Regular-e9" transform="translate(4500.341797 0)"/>
    <use xlink:href="#Inter-Regular-65" transform="translate(4558.642578 0)"/>
    <use xlink:href="#Inter-Regular-73" transform="translate(4616.943359 0)"/>
    <use xlink:href="#Inter-Regular-20" transform="translate(4669.726562 0)"/>
    <use xlink:href="#Inter-Regular-32" transform="translate(4697.851562 0)"/>
    <use xlink:href="#Inter-Regular-30" transform="translate(4758.837891 0)"/>
    <use xlink:href="#Inter-Regular-32" transform="translate(4821.923828 0)"/>
    <use xlink:href="#Inter-Regular-34" transform="translate(4882.910156 0)"/>
    <use xlink:href="#Inter-Regular-2d" transform="translate(4947.509766 0)"/>
    <use xlink:href="#Inter-Regular-32" transform="translate(4993.505859 0)"/>
    <use xlink:href="#Inter-Regular-30" transform="translate(5054.492188 0)"/>
    <use xlink:href="#Inter-Regular-32" transform="translate(5117.578125 0)"/>
    <use xlink:href="#Inter-Regular-35" transform="translate(5178.564453 0)"/>
    <use xlink:href="#Inter-Regular-20" transform="translate(5237.890625 0)"/>
    <use xlink:href="#Inter-Regular-65" transform="translate(5266.015625 0)"/>
    <use xlink:href="#Inter-Regular-6e" transform="translate(5324.316406 0)"/>
    <use xlink:href="#Inter-Regular-20" transform="translate(5383.398438 0)"/>
    <use xlink:href="#Inter-Regular-63" transform="translate(5411.523438 0)"/>
    <use xlink:href="#Inter-Regular-6f" transform="translate(5468.652344 0)"/>
    <use xlink:href="#Inter-Regular-75" transform="translate(5528.613281 0)"/>
    <use xlink:href="#Inter-Regular-72" transform="translate(5587.744141 0)"/>
    <use xlink:href="#Inter-Regular-73" transform="translate(5625.390625 0)"/>
    <use xlink:href="#Inter-Regular-20" transform="translate(5678.173828 0)"/>
    <use xlink:href="#Inter-Regular-64" transform="translate(5706.298828 0)"/>
    <use xlink:href="#Inter-Regular-27" transform="translate(5767.529297 0)"/>
    <use xlink:href="#Inter-Regular-69" transform="translate(5797.509766 0)"/>
    <use xlink:href="#Inter-Regular-6e" transform="translate(5821.728516 0)"/>
    <use xlink:href="#Inter-Regular-73" transform="translate(5880.810547 0)"/>
    <use xlink:href="#Inter-Regular-74" transform="translate(5933.59375 0)"/>
    <use xlink:href="#Inter-Regular-72" transform="translate(5966.308594 0)"/>
    <use xlink:href="#Inter-Regular-75" transform="translate(6003.955078 0)"/>
    <use xlink:href="#Inter-Regular-63" transform="translate(6063.085938 0)"/>
    <use xlink:href="#Inter-Regular-74" transform="translate(6120.214844 0)"/>
    <use xlink:href="#Inter-Regular-69" transform="translate(6152.929688 0)"/>
    <use xlink:href="#Inter-Regular-6f" transform="translate(6177.148438 0)"/>
    <use xlink:href="#Inter-Regular-6e" transform="translate(6237.109375 0)"/>
    <use xlink:href="#Inter-Regular-29" transform="translate(6296.191406 0)"/>
    <use xlink:href="#Inter-Regular-2e" transform="translate(6332.666016 0)"/>
    <use xlink:href="#Inter-Regular-20" transform="translate(6361.474609 0)"/>
    <use xlink:href="#Inter-Regular-54" transform="translate(6389.599609 0)"/>
    <use xlink:href="#Inter-Regular-61" transform="translate(6454.150391 0)"/>
    <use xlink:href="#Inter-Regular-77" transform="translate(6510.302734 0)"/>
    <use xlink:href="#Inter-Regular-69" transform="translate(6592.138672 0)"/>
    <use xlink:href="#Inter-Regular-7a" transform="translate(6616.357422 0)"/>
    <use xlink:href="#Inter-Regular-61" transform="translate(6671.582031 0)"/>
   </g>
  </g>
 </g>
 <defs>
  <clipPath id="pe154191174">
   <rect x="62.867031" y="47.347188" width="617.76" height="327.6"/>
  </clipPath>
 </defs>
</svg>
