<?xml version="1.0" encoding="utf-8" standalone="no"?>
<!DOCTYPE svg PUBLIC "-//W3C//DTD SVG 1.1//EN"
  "http://www.w3.org/Graphics/SVG/1.1/DTD/svg11.dtd">
<svg xmlns:xlink="http://www.w3.org/1999/xlink" width="630.532266pt" height="562.650629pt" viewBox="0 0 630.532266 562.650629" xmlns="http://www.w3.org/2000/svg" version="1.1">
 <metadata>
  <rdf:RDF xmlns:dc="http://purl.org/dc/elements/1.1/" xmlns:cc="http://creativecommons.org/ns#" xmlns:rdf="http://www.w3.org/1999/02/22-rdf-syntax-ns#">
   <cc:Work>
    <dc:type rdf:resource="http://purl.org/dc/dcmitype/StillImage"/>
    <dc:date>2026-04-11T13:40:04.654884</dc:date>
    <dc:format>image/svg+xml</dc:format>
    <dc:creator>
     <cc:Agent>
      <dc:title>Matplotlib v3.10.7, https://matplotlib.org/</dc:title>
     </cc:Agent>
    </dc:creator>
   </cc:Work>
  </rdf:RDF>
 </metadata>
 <defs>
  <style type="text/css">*{stroke-linejoin: round; stroke-linecap: butt}</style>
 </defs>
 <g id="figure_1">
  <g id="patch_1">
   <path d="M -0 562.650629 
L 630.532266 562.650629 
L 630.532266 0 
L -0 0 
z
" style="fill: #fafaf9"/>
  </g>
  <g id="axes_1">
   <g id="patch_2">
    <path d="M 171.306219 249.43343 
L 303.920173 249.43343 
L 303.920173 116.819477 
L 171.306219 116.819477 
z
" clip-path="url(#p98950c8ea3)" style="fill: #2d6a4f; opacity: 0.7; stroke: #ffffff; stroke-width: 3; stroke-linejoin: miter"/>
   </g>
   <g id="patch_3">
    <path d="M 303.920173 249.43343 
L 436.534126 249.43343 
L 436.534126 116.819477 
L 303.920173 116.819477 
z
" clip-path="url(#p98950c8ea3)" style="fill: #c1554d; opacity: 0.92; stroke: #ffffff; stroke-width: 3; stroke-linejoin: miter"/>
   </g>
   <g id="patch_4">
    <path d="M 171.306219 382.047384 
L 303.920173 382.047384 
L 303.920173 249.43343 
L 171.306219 249.43343 
z
" clip-path="url(#p98950c8ea3)" style="fill: #5b7ba5; opacity: 0.55; stroke: #ffffff; stroke-width: 3; stroke-linejoin: miter"/>
   </g>
   <g id="patch_5">
    <path d="M 303.920173 382.047384 
L 436.534126 382.047384 
L 436.534126 249.43343 
L 303.920173 249.43343 
z
" clip-path="url(#p98950c8ea3)" style="fill: #a8a29e; opacity: 0.45; stroke: #ffffff; stroke-width: 3; stroke-linejoin: miter"/>
   </g>
   <g id="text_1">
    <!-- 3 538 -->
    <g style="fill: #ffffff" transform="translate(192.800696 180.892337) scale(0.32 -0.32)">
     <defs>
      <path id="Inter-Bold-33" d="M 2059 -63 
Q 1553 -63 1161 110 
Q 769 284 542 593 
Q 316 903 309 1306 
L 1269 1306 
Q 1281 1044 1506 886 
Q 1731 728 2063 728 
Q 2406 728 2625 904 
Q 2844 1081 2844 1366 
Q 2844 1653 2612 1836 
Q 2381 2019 1975 2019 
L 1544 2019 
L 1544 2728 
L 1975 2728 
Q 2316 2728 2530 2900 
Q 2744 3072 2744 3353 
Q 2744 3622 2558 3789 
Q 2372 3956 2069 3956 
Q 1766 3956 1545 3797 
Q 1325 3638 1319 3366 
L 400 3366 
Q 406 3763 628 4069 
Q 850 4375 1226 4547 
Q 1603 4719 2075 4719 
Q 2553 4719 2912 4544 
Q 3272 4369 3470 4072 
Q 3669 3775 3669 3413 
Q 3669 3019 3426 2758 
Q 3184 2497 2797 2422 
L 2797 2388 
Q 3306 2322 3572 2030 
Q 3838 1738 3838 1303 
Q 3838 906 3609 598 
Q 3381 291 2979 114 
Q 2578 -63 2059 -63 
z
" transform="scale(0.015625)"/>
      <path id="Inter-Bold-20" transform="scale(0.015625)"/>
      <path id="Inter-Bold-35" d="M 1963 -63 
Q 1484 -63 1111 114 
Q 738 291 520 600 
Q 303 909 291 1306 
L 1222 1306 
Q 1234 1034 1450 864 
Q 1666 694 1963 694 
Q 2313 694 2538 925 
Q 2763 1156 2763 1525 
Q 2763 1897 2533 2133 
Q 2303 2369 1947 2369 
Q 1738 2369 1545 2284 
Q 1353 2200 1247 2063 
L 391 2213 
L 613 4656 
L 3431 4656 
L 3431 3869 
L 1403 3869 
L 1284 2691 
L 1309 2691 
Q 1434 2859 1679 2968 
Q 1925 3078 2225 3078 
Q 2647 3078 2976 2881 
Q 3306 2684 3497 2339 
Q 3688 1994 3688 1547 
Q 3688 1078 3470 715 
Q 3253 353 2864 145 
Q 2475 -63 1963 -63 
z
" transform="scale(0.015625)"/>
      <path id="Inter-Bold-38" d="M 2081 -63 
Q 1559 -63 1156 107 
Q 753 278 523 575 
Q 294 872 294 1250 
Q 294 1541 425 1786 
Q 556 2031 784 2195 
Q 1013 2359 1297 2406 
L 1297 2434 
Q 925 2513 694 2800 
Q 463 3088 463 3469 
Q 463 3828 672 4111 
Q 881 4394 1247 4556 
Q 1613 4719 2081 4719 
Q 2547 4719 2914 4556 
Q 3281 4394 3492 4111 
Q 3703 3828 3703 3469 
Q 3703 3088 3468 2800 
Q 3234 2513 2872 2434 
L 2872 2406 
Q 3150 2359 3376 2195 
Q 3603 2031 3739 1786 
Q 3875 1541 3875 1250 
Q 3875 872 3644 575 
Q 3413 278 3008 107 
Q 2603 -63 2081 -63 
z
M 2081 644 
Q 2438 644 2658 833 
Q 2878 1022 2878 1325 
Q 2878 1634 2651 1832 
Q 2425 2031 2081 2031 
Q 1734 2031 1509 1832 
Q 1284 1634 1284 1325 
Q 1284 1025 1503 834 
Q 1722 644 2081 644 
z
M 2081 2731 
Q 2378 2731 2573 2909 
Q 2769 3088 2769 3366 
Q 2769 3644 2576 3817 
Q 2384 3991 2081 3991 
Q 1778 3991 1586 3819 
Q 1394 3647 1394 3366 
Q 1394 3088 1587 2909 
Q 1781 2731 2081 2731 
z
" transform="scale(0.015625)"/>
     </defs>
     <use xlink:href="#Inter-Bold-33"/>
     <use xlink:href="#Inter-Bold-20" transform="translate(64.550781 0)"/>
     <use xlink:href="#Inter-Bold-35" transform="translate(88.232422 0)"/>
     <use xlink:href="#Inter-Bold-33" transform="translate(150.439453 0)"/>
     <use xlink:href="#Inter-Bold-38" transform="translate(214.990234 0)"/>
    </g>
   </g>
   <g id="text_2">
    <!-- ont publié -->
    <g style="fill: #ffffff; opacity: 0.95" transform="translate(211.861165 215.363476) scale(0.11 -0.11)">
     <defs>
      <path id="Inter-Regular-6f" d="M 1916 -75 
Q 1441 -75 1083 150 
Q 725 375 525 781 
Q 325 1188 325 1725 
Q 325 2272 525 2680 
Q 725 3088 1083 3313 
Q 1441 3538 1916 3538 
Q 2394 3538 2753 3313 
Q 3113 3088 3313 2680 
Q 3513 2272 3513 1725 
Q 3513 1188 3313 781 
Q 3113 375 2753 150 
Q 2394 -75 1916 -75 
z
M 1916 428 
Q 2269 428 2497 609 
Q 2725 791 2834 1086 
Q 2944 1381 2944 1725 
Q 2944 2072 2834 2370 
Q 2725 2669 2497 2851 
Q 2269 3034 1916 3034 
Q 1566 3034 1341 2851 
Q 1116 2669 1006 2372 
Q 897 2075 897 1725 
Q 897 1381 1006 1086 
Q 1116 791 1341 609 
Q 1566 428 1916 428 
z
" transform="scale(0.015625)"/>
      <path id="Inter-Regular-6e" d="M 1056 2094 
L 1056 0 
L 494 0 
L 494 3494 
L 1034 3494 
L 1038 2847 
Q 1206 3219 1479 3378 
Q 1753 3538 2106 3538 
Q 2638 3538 2963 3209 
Q 3288 2881 3288 2219 
L 3288 0 
L 2725 0 
L 2725 2172 
Q 2725 2575 2514 2803 
Q 2303 3031 1938 3031 
Q 1559 3031 1307 2786 
Q 1056 2541 1056 2094 
z
" transform="scale(0.015625)"/>
      <path id="Inter-Regular-74" d="M 1869 3494 
L 1869 3013 
L 1150 3013 
L 1150 906 
Q 1150 672 1245 564 
Q 1341 456 1563 456 
Q 1616 456 1698 468 
Q 1781 481 1850 494 
L 1966 19 
Q 1878 -13 1767 -28 
Q 1656 -44 1547 -44 
Q 1094 -44 841 195 
Q 588 434 588 863 
L 588 3013 
L 63 3013 
L 63 3494 
L 588 3494 
L 588 4325 
L 1150 4325 
L 1150 3494 
L 1869 3494 
z
" transform="scale(0.015625)"/>
      <path id="Inter-Regular-20" transform="scale(0.015625)"/>
      <path id="Inter-Regular-70" d="M 494 -1306 
L 494 3494 
L 1038 3494 
L 1038 2934 
L 1100 2934 
Q 1159 3028 1265 3170 
Q 1372 3313 1572 3425 
Q 1772 3538 2113 3538 
Q 2550 3538 2883 3319 
Q 3216 3100 3405 2695 
Q 3594 2291 3594 1738 
Q 3594 1181 3406 775 
Q 3219 369 2886 147 
Q 2553 -75 2116 -75 
Q 1784 -75 1581 39 
Q 1378 153 1268 298 
Q 1159 444 1100 541 
L 1056 541 
L 1056 -1306 
L 494 -1306 
z
M 2031 428 
Q 2359 428 2579 604 
Q 2800 781 2911 1079 
Q 3022 1378 3022 1744 
Q 3022 2106 2912 2398 
Q 2803 2691 2583 2862 
Q 2363 3034 2031 3034 
Q 1550 3034 1300 2678 
Q 1050 2322 1050 1744 
Q 1050 1159 1303 793 
Q 1556 428 2031 428 
z
" transform="scale(0.015625)"/>
      <path id="Inter-Regular-75" d="M 1678 -44 
Q 1150 -44 822 284 
Q 494 613 494 1275 
L 494 3494 
L 1056 3494 
L 1056 1322 
Q 1056 919 1268 691 
Q 1481 463 1847 463 
Q 2222 463 2473 708 
Q 2725 953 2725 1400 
L 2725 3494 
L 3291 3494 
L 3291 0 
L 2747 0 
L 2747 653 
Q 2575 272 2298 114 
Q 2022 -44 1678 -44 
z
" transform="scale(0.015625)"/>
      <path id="Inter-Regular-62" d="M 2116 -75 
Q 1784 -75 1581 39 
Q 1378 153 1268 298 
Q 1159 444 1100 541 
L 1038 541 
L 1038 0 
L 494 0 
L 494 4656 
L 1056 4656 
L 1056 2934 
L 1100 2934 
Q 1159 3028 1265 3170 
Q 1372 3313 1572 3425 
Q 1772 3538 2113 3538 
Q 2550 3538 2883 3319 
Q 3216 3100 3405 2695 
Q 3594 2291 3594 1738 
Q 3594 1181 3406 775 
Q 3219 369 2886 147 
Q 2553 -75 2116 -75 
z
M 2031 428 
Q 2359 428 2579 604 
Q 2800 781 2911 1079 
Q 3022 1378 3022 1744 
Q 3022 2106 2912 2398 
Q 2803 2691 2583 2862 
Q 2363 3034 2031 3034 
Q 1550 3034 1300 2678 
Q 1050 2322 1050 1744 
Q 1050 1159 1303 793 
Q 1556 428 2031 428 
z
" transform="scale(0.015625)"/>
      <path id="Inter-Regular-6c" d="M 1056 4656 
L 1056 0 
L 494 0 
L 494 4656 
L 1056 4656 
z
" transform="scale(0.015625)"/>
      <path id="Inter-Regular-69" d="M 494 0 
L 494 3494 
L 1056 3494 
L 1056 0 
L 494 0 
z
M 780 4066 
Q 621 4066 505 4175 
Q 389 4284 389 4438 
Q 389 4594 505 4701 
Q 621 4809 780 4809 
Q 942 4809 1058 4701 
Q 1174 4594 1174 4438 
Q 1174 4284 1058 4175 
Q 942 4066 780 4066 
z
" transform="scale(0.015625)"/>
      <path id="Inter-Regular-e9" d="M 1963 -75 
Q 1456 -75 1089 150 
Q 722 375 523 778 
Q 325 1181 325 1719 
Q 325 2256 519 2665 
Q 713 3075 1067 3306 
Q 1422 3538 1897 3538 
Q 2175 3538 2445 3445 
Q 2716 3353 2936 3148 
Q 3156 2944 3287 2609 
Q 3419 2275 3419 1791 
L 3419 1556 
L 894 1556 
Q 916 1009 1208 717 
Q 1500 425 1966 425 
Q 2275 425 2498 561 
Q 2722 697 2819 963 
L 3363 813 
Q 3241 416 2870 170 
Q 2500 -75 1963 -75 
z
M 897 2031 
L 2847 2031 
Q 2806 2478 2567 2758 
Q 2328 3038 1897 3038 
Q 1597 3038 1380 2897 
Q 1163 2756 1038 2528 
Q 913 2300 897 2031 
z
M 1637 3950 
L 2075 4869 
L 2703 4869 
L 2096 3950 
L 1637 3950 
z
" transform="scale(0.015625)"/>
     </defs>
     <use xlink:href="#Inter-Regular-6f"/>
     <use xlink:href="#Inter-Regular-6e" transform="translate(59.960938 0)"/>
     <use xlink:href="#Inter-Regular-74" transform="translate(119.042969 0)"/>
     <use xlink:href="#Inter-Regular-20" transform="translate(151.757812 0)"/>
     <use xlink:href="#Inter-Regular-70" transform="translate(179.882812 0)"/>
     <use xlink:href="#Inter-Regular-75" transform="translate(241.113281 0)"/>
     <use xlink:href="#Inter-Regular-62" transform="translate(300.244141 0)"/>
     <use xlink:href="#Inter-Regular-6c" transform="translate(361.474609 0)"/>
     <use xlink:href="#Inter-Regular-69" transform="translate(385.693359 0)"/>
     <use xlink:href="#Inter-Regular-e9" transform="translate(409.912109 0)"/>
    </g>
   </g>
   <g id="text_3">
    <!-- 3 902 -->
    <g style="fill: #ffffff" transform="translate(324.852149 180.892337) scale(0.32 -0.32)">
     <defs>
      <path id="Inter-Bold-39" d="M 1988 -69 
Q 1528 -69 1173 112 
Q 819 294 603 603 
Q 388 913 341 1297 
L 1284 1297 
Q 1341 1047 1525 900 
Q 1709 753 1988 753 
Q 2447 753 2689 1156 
Q 2931 1559 2931 2250 
L 2900 2250 
Q 2741 1947 2427 1772 
Q 2113 1597 1731 1597 
Q 1316 1597 992 1790 
Q 669 1984 481 2325 
Q 294 2666 294 3103 
Q 294 3572 512 3940 
Q 731 4309 1120 4518 
Q 1509 4728 2028 4725 
Q 2378 4722 2708 4603 
Q 3038 4484 3298 4218 
Q 3559 3953 3712 3517 
Q 3866 3081 3866 2441 
Q 3866 1656 3634 1093 
Q 3403 531 2981 231 
Q 2559 -69 1988 -69 
z
M 2022 2297 
Q 2250 2297 2434 2411 
Q 2619 2525 2726 2714 
Q 2834 2903 2834 3134 
Q 2834 3359 2729 3546 
Q 2625 3734 2444 3848 
Q 2263 3963 2028 3963 
Q 1800 3963 1617 3852 
Q 1434 3741 1328 3552 
Q 1222 3363 1222 3128 
Q 1222 2775 1448 2536 
Q 1675 2297 2022 2297 
z
" transform="scale(0.015625)"/>
      <path id="Inter-Bold-30" d="M 2156 -63 
Q 1275 -63 784 565 
Q 294 1194 294 2325 
Q 294 3456 786 4087 
Q 1278 4719 2156 4719 
Q 3038 4719 3530 4086 
Q 4022 3453 4022 2325 
Q 4022 1194 3531 565 
Q 3041 -63 2156 -63 
z
M 2156 728 
Q 2588 728 2819 1143 
Q 3050 1559 3050 2325 
Q 3050 3094 2819 3512 
Q 2588 3931 2156 3931 
Q 1728 3931 1497 3511 
Q 1266 3091 1266 2325 
Q 1266 1559 1495 1143 
Q 1725 728 2156 728 
z
" transform="scale(0.015625)"/>
      <path id="Inter-Bold-32" d="M 388 0 
L 388 688 
L 2038 2234 
Q 2353 2544 2523 2773 
Q 2694 3003 2694 3284 
Q 2694 3597 2489 3776 
Q 2284 3956 1972 3956 
Q 1647 3956 1451 3762 
Q 1256 3569 1256 3228 
L 344 3228 
Q 344 3681 551 4017 
Q 759 4353 1128 4536 
Q 1497 4719 1978 4719 
Q 2472 4719 2840 4542 
Q 3209 4366 3414 4056 
Q 3619 3747 3619 3344 
Q 3619 3084 3517 2831 
Q 3416 2578 3155 2264 
Q 2894 1950 2416 1513 
L 1713 819 
L 1713 784 
L 3681 784 
L 3681 0 
L 388 0 
z
" transform="scale(0.015625)"/>
     </defs>
     <use xlink:href="#Inter-Bold-33"/>
     <use xlink:href="#Inter-Bold-20" transform="translate(64.550781 0)"/>
     <use xlink:href="#Inter-Bold-39" transform="translate(88.232422 0)"/>
     <use xlink:href="#Inter-Bold-30" transform="translate(153.173828 0)"/>
     <use xlink:href="#Inter-Bold-32" transform="translate(220.605469 0)"/>
    </g>
   </g>
   <g id="text_4">
    <!-- n'ont rien publié -->
    <g style="fill: #ffffff; opacity: 0.95" transform="translate(328.171915 215.363476) scale(0.11 -0.11)">
     <defs>
      <path id="Inter-Regular-27" d="M 725 2884 
L 656 4656 
L 1263 4656 
L 1194 2884 
L 725 2884 
z
" transform="scale(0.015625)"/>
      <path id="Inter-Regular-72" d="M 494 0 
L 494 3494 
L 1038 3494 
L 1038 2956 
L 1075 2956 
Q 1172 3222 1420 3383 
Q 1669 3544 1981 3544 
Q 2044 3544 2130 3541 
Q 2216 3538 2266 3534 
L 2266 2969 
Q 2241 2975 2141 2987 
Q 2041 3000 1928 3000 
Q 1550 3000 1303 2770 
Q 1056 2541 1056 2188 
L 1056 0 
L 494 0 
z
" transform="scale(0.015625)"/>
      <path id="Inter-Regular-65" d="M 1963 -75 
Q 1456 -75 1089 150 
Q 722 375 523 778 
Q 325 1181 325 1719 
Q 325 2256 519 2665 
Q 713 3075 1067 3306 
Q 1422 3538 1897 3538 
Q 2175 3538 2445 3445 
Q 2716 3353 2936 3148 
Q 3156 2944 3287 2609 
Q 3419 2275 3419 1791 
L 3419 1556 
L 894 1556 
Q 916 1009 1208 717 
Q 1500 425 1966 425 
Q 2275 425 2498 561 
Q 2722 697 2819 963 
L 3363 813 
Q 3241 416 2870 170 
Q 2500 -75 1963 -75 
z
M 897 2031 
L 2847 2031 
Q 2806 2478 2567 2758 
Q 2328 3038 1897 3038 
Q 1597 3038 1380 2897 
Q 1163 2756 1038 2528 
Q 913 2300 897 2031 
z
" transform="scale(0.015625)"/>
     </defs>
     <use xlink:href="#Inter-Regular-6e"/>
     <use xlink:href="#Inter-Regular-27" transform="translate(59.082031 0)"/>
     <use xlink:href="#Inter-Regular-6f" transform="translate(89.0625 0)"/>
     <use xlink:href="#Inter-Regular-6e" transform="translate(149.023438 0)"/>
     <use xlink:href="#Inter-Regular-74" transform="translate(208.105469 0)"/>
     <use xlink:href="#Inter-Regular-20" transform="translate(240.820312 0)"/>
     <use xlink:href="#Inter-Regular-72" transform="translate(268.945312 0)"/>
     <use xlink:href="#Inter-Regular-69" transform="translate(306.591797 0)"/>
     <use xlink:href="#Inter-Regular-65" transform="translate(330.810547 0)"/>
     <use xlink:href="#Inter-Regular-6e" transform="translate(389.111328 0)"/>
     <use xlink:href="#Inter-Regular-20" transform="translate(448.193359 0)"/>
     <use xlink:href="#Inter-Regular-70" transform="translate(476.318359 0)"/>
     <use xlink:href="#Inter-Regular-75" transform="translate(537.548828 0)"/>
     <use xlink:href="#Inter-Regular-62" transform="translate(596.679688 0)"/>
     <use xlink:href="#Inter-Regular-6c" transform="translate(657.910156 0)"/>
     <use xlink:href="#Inter-Regular-69" transform="translate(682.128906 0)"/>
     <use xlink:href="#Inter-Regular-e9" transform="translate(706.347656 0)"/>
    </g>
   </g>
   <g id="text_5">
    <!-- 785 -->
    <g style="fill: #ffffff" transform="translate(207.940696 313.506291) scale(0.32 -0.32)">
     <defs>
      <path id="Inter-Bold-37" d="M 553 0 
L 2491 3838 
L 2491 3869 
L 234 3869 
L 234 4656 
L 3488 4656 
L 3488 3856 
L 1544 0 
L 553 0 
z
" transform="scale(0.015625)"/>
     </defs>
     <use xlink:href="#Inter-Bold-37"/>
     <use xlink:href="#Inter-Bold-38" transform="translate(58.154297 0)"/>
     <use xlink:href="#Inter-Bold-35" transform="translate(123.242188 0)"/>
    </g>
   </g>
   <g id="text_6">
    <!-- publié sans TIM -->
    <g style="fill: #ffffff; opacity: 0.95" transform="translate(196.52218 347.97743) scale(0.11 -0.11)">
     <defs>
      <path id="Inter-Regular-73" d="M 1681 -75 
Q 1144 -75 787 159 
Q 431 394 338 847 
L 872 975 
Q 947 688 1155 553 
Q 1363 419 1675 419 
Q 2041 419 2258 575 
Q 2475 731 2475 947 
Q 2475 1306 1963 1428 
L 1381 1566 
Q 444 1788 444 2519 
Q 444 2819 612 3048 
Q 781 3278 1073 3408 
Q 1366 3538 1738 3538 
Q 2278 3538 2576 3302 
Q 2875 3066 2994 2697 
L 2484 2566 
Q 2413 2753 2245 2906 
Q 2078 3059 1741 3059 
Q 1428 3059 1220 2915 
Q 1013 2772 1013 2553 
Q 1013 2359 1153 2242 
Q 1294 2125 1600 2053 
L 2128 1928 
Q 2603 1816 2831 1580 
Q 3059 1344 3059 984 
Q 3059 678 2886 439 
Q 2713 200 2402 62 
Q 2091 -75 1681 -75 
z
" transform="scale(0.015625)"/>
      <path id="Inter-Regular-61" d="M 1472 -81 
Q 1141 -81 870 44 
Q 600 169 440 409 
Q 281 650 281 994 
Q 281 1294 400 1481 
Q 519 1669 717 1776 
Q 916 1884 1156 1937 
Q 1397 1991 1641 2022 
Q 1953 2063 2150 2084 
Q 2347 2106 2442 2159 
Q 2538 2213 2538 2341 
L 2538 2359 
Q 2538 2684 2353 2864 
Q 2169 3044 1806 3044 
Q 1428 3044 1215 2880 
Q 1003 2716 922 2531 
L 381 2709 
Q 516 3028 744 3208 
Q 972 3388 1247 3463 
Q 1522 3538 1791 3538 
Q 1966 3538 2189 3495 
Q 2413 3453 2620 3328 
Q 2828 3203 2964 2958 
Q 3100 2713 3100 2303 
L 3100 0 
L 2547 0 
L 2547 475 
L 2509 475 
Q 2450 353 2319 223 
Q 2188 94 1978 6 
Q 1769 -81 1472 -81 
z
M 1569 416 
Q 1881 416 2097 537 
Q 2313 659 2425 854 
Q 2538 1050 2538 1263 
L 2538 1747 
Q 2503 1706 2387 1673 
Q 2272 1641 2123 1616 
Q 1975 1591 1836 1573 
Q 1697 1556 1616 1547 
Q 1413 1522 1236 1461 
Q 1059 1400 953 1283 
Q 847 1166 847 966 
Q 847 694 1051 555 
Q 1256 416 1569 416 
z
" transform="scale(0.015625)"/>
      <path id="Inter-Regular-54" d="M 306 4131 
L 306 4656 
L 3825 4656 
L 3825 4131 
L 2366 4131 
L 2366 0 
L 1772 0 
L 1772 4131 
L 306 4131 
z
" transform="scale(0.015625)"/>
      <path id="Inter-Regular-49" d="M 1156 4656 
L 1156 0 
L 563 0 
L 563 4656 
L 1156 4656 
z
" transform="scale(0.015625)"/>
      <path id="Inter-Regular-4d" d="M 563 0 
L 563 4656 
L 1406 4656 
L 2553 1719 
Q 2619 1550 2716 1247 
Q 2813 944 2897 659 
Q 2978 934 3075 1239 
Q 3172 1544 3241 1719 
L 4372 4656 
L 5219 4656 
L 5219 0 
L 4634 0 
L 4634 2659 
Q 4634 2916 4640 3287 
Q 4647 3659 4656 4022 
Q 4528 3622 4398 3244 
Q 4269 2866 4188 2659 
L 3147 0 
L 2631 0 
L 1575 2659 
Q 1497 2856 1370 3229 
Q 1244 3603 1106 4013 
Q 1113 3681 1120 3304 
Q 1128 2928 1128 2659 
L 1128 0 
L 563 0 
z
" transform="scale(0.015625)"/>
     </defs>
     <use xlink:href="#Inter-Regular-70"/>
     <use xlink:href="#Inter-Regular-75" transform="translate(61.230469 0)"/>
     <use xlink:href="#Inter-Regular-62" transform="translate(120.361328 0)"/>
     <use xlink:href="#Inter-Regular-6c" transform="translate(181.591797 0)"/>
     <use xlink:href="#Inter-Regular-69" transform="translate(205.810547 0)"/>
     <use xlink:href="#Inter-Regular-e9" transform="translate(230.029297 0)"/>
     <use xlink:href="#Inter-Regular-20" transform="translate(288.330078 0)"/>
     <use xlink:href="#Inter-Regular-73" transform="translate(316.455078 0)"/>
     <use xlink:href="#Inter-Regular-61" transform="translate(369.238281 0)"/>
     <use xlink:href="#Inter-Regular-6e" transform="translate(425.390625 0)"/>
     <use xlink:href="#Inter-Regular-73" transform="translate(484.472656 0)"/>
     <use xlink:href="#Inter-Regular-20" transform="translate(537.255859 0)"/>
     <use xlink:href="#Inter-Regular-54" transform="translate(565.380859 0)"/>
     <use xlink:href="#Inter-Regular-49" transform="translate(629.931641 0)"/>
     <use xlink:href="#Inter-Regular-4d" transform="translate(656.787109 0)"/>
    </g>
   </g>
   <g id="text_7">
    <!-- 4 129 -->
    <g style="fill: #1c1917" transform="translate(328.252149 313.506291) scale(0.32 -0.32)">
     <defs>
      <path id="Inter-Bold-34" d="M 316 828 
L 316 1581 
L 2263 4656 
L 3459 4656 
L 3459 1597 
L 4041 1597 
L 4041 828 
L 3459 828 
L 3459 0 
L 2544 0 
L 2544 828 
L 316 828 
z
M 2563 1597 
L 2563 3606 
L 2525 3606 
L 1278 1634 
L 1278 1597 
L 2563 1597 
z
" transform="scale(0.015625)"/>
      <path id="Inter-Bold-31" d="M 2341 4656 
L 2341 0 
L 1388 0 
L 1388 3816 
L 1356 3816 
L 291 3063 
L 291 3934 
L 1319 4656 
L 2341 4656 
z
" transform="scale(0.015625)"/>
     </defs>
     <use xlink:href="#Inter-Bold-34"/>
     <use xlink:href="#Inter-Bold-20" transform="translate(67.626953 0)"/>
     <use xlink:href="#Inter-Bold-31" transform="translate(91.308594 0)"/>
     <use xlink:href="#Inter-Bold-32" transform="translate(134.423828 0)"/>
     <use xlink:href="#Inter-Bold-39" transform="translate(197.412109 0)"/>
    </g>
   </g>
   <g id="text_8">
    <!-- aucune trace -->
    <g style="fill: #1c1917; opacity: 0.95" transform="translate(336.183868 347.794383) scale(0.11 -0.11)">
     <defs>
      <path id="Inter-Regular-63" d="M 1916 -75 
Q 1441 -75 1083 150 
Q 725 375 525 781 
Q 325 1188 325 1725 
Q 325 2272 525 2680 
Q 725 3088 1083 3313 
Q 1441 3538 1916 3538 
Q 2422 3538 2805 3283 
Q 3188 3028 3331 2572 
L 2791 2419 
Q 2713 2688 2486 2861 
Q 2259 3034 1916 3034 
Q 1566 3034 1341 2851 
Q 1116 2669 1006 2372 
Q 897 2075 897 1725 
Q 897 1381 1006 1086 
Q 1116 791 1341 609 
Q 1566 428 1916 428 
Q 2269 428 2498 608 
Q 2728 788 2806 1072 
L 3344 919 
Q 3203 453 2815 189 
Q 2428 -75 1916 -75 
z
" transform="scale(0.015625)"/>
     </defs>
     <use xlink:href="#Inter-Regular-61"/>
     <use xlink:href="#Inter-Regular-75" transform="translate(56.152344 0)"/>
     <use xlink:href="#Inter-Regular-63" transform="translate(115.283203 0)"/>
     <use xlink:href="#Inter-Regular-75" transform="translate(172.412109 0)"/>
     <use xlink:href="#Inter-Regular-6e" transform="translate(231.542969 0)"/>
     <use xlink:href="#Inter-Regular-65" transform="translate(290.625 0)"/>
     <use xlink:href="#Inter-Regular-20" transform="translate(348.925781 0)"/>
     <use xlink:href="#Inter-Regular-74" transform="translate(377.050781 0)"/>
     <use xlink:href="#Inter-Regular-72" transform="translate(409.765625 0)"/>
     <use xlink:href="#Inter-Regular-61" transform="translate(447.412109 0)"/>
     <use xlink:href="#Inter-Regular-63" transform="translate(503.564453 0)"/>
     <use xlink:href="#Inter-Regular-65" transform="translate(560.693359 0)"/>
    </g>
   </g>
   <g id="patch_6">
    <path d="M 492.207417 183.126453 
Q 465.371491 183.126453 440.548026 183.126453 
" style="fill: none; stroke: #c1554d; stroke-width: 1.8; stroke-linecap: round"/>
    <path d="M 444.548026 185.126453 
L 440.548026 183.126453 
L 444.548026 181.126453 
" style="fill: none; stroke: #c1554d; stroke-width: 1.8; stroke-linecap: round"/>
   </g>
   <g id="text_9">
    <!-- scoop : 52,4% des -->
    <g style="fill: #c1554d" transform="translate(496.210405 174.794422) scale(0.1 -0.1)">
     <defs>
      <path id="Inter-Bold-73" d="M 1788 -69 
Q 1156 -69 745 200 
Q 334 469 244 956 
L 1116 1106 
Q 1250 619 1816 619 
Q 2084 619 2239 720 
Q 2394 822 2394 978 
Q 2394 1244 1944 1338 
L 1341 1463 
Q 334 1669 334 2453 
Q 334 2956 737 3247 
Q 1141 3538 1803 3538 
Q 2425 3538 2794 3284 
Q 3163 3031 3259 2606 
L 2428 2459 
Q 2372 2638 2222 2752 
Q 2072 2866 1816 2866 
Q 1584 2866 1428 2767 
Q 1272 2669 1272 2513 
Q 1272 2381 1373 2289 
Q 1475 2197 1722 2147 
L 2350 2022 
Q 3350 1819 3350 1078 
Q 3350 734 3150 476 
Q 2950 219 2597 75 
Q 2244 -69 1788 -69 
z
" transform="scale(0.015625)"/>
      <path id="Inter-Bold-63" d="M 1963 -69 
Q 1434 -69 1051 157 
Q 669 384 461 789 
Q 253 1194 253 1731 
Q 253 2272 461 2678 
Q 669 3084 1051 3311 
Q 1434 3538 1963 3538 
Q 2584 3538 3000 3227 
Q 3416 2916 3516 2375 
L 2644 2213 
Q 2584 2484 2414 2642 
Q 2244 2800 1972 2800 
Q 1597 2800 1403 2504 
Q 1209 2209 1209 1734 
Q 1209 1266 1403 967 
Q 1597 669 1972 669 
Q 2244 669 2419 833 
Q 2594 997 2650 1278 
L 3522 1119 
Q 3422 566 3006 248 
Q 2591 -69 1963 -69 
z
" transform="scale(0.015625)"/>
      <path id="Inter-Bold-6f" d="M 1963 -69 
Q 1438 -69 1053 157 
Q 669 384 461 789 
Q 253 1194 253 1731 
Q 253 2272 461 2678 
Q 669 3084 1053 3311 
Q 1438 3538 1963 3538 
Q 2488 3538 2872 3311 
Q 3256 3084 3464 2678 
Q 3672 2272 3672 1731 
Q 3672 1194 3464 789 
Q 3256 384 2872 157 
Q 2488 -69 1963 -69 
z
M 1963 669 
Q 2338 669 2528 972 
Q 2719 1275 2719 1734 
Q 2719 2197 2528 2498 
Q 2338 2800 1963 2800 
Q 1588 2800 1398 2498 
Q 1209 2197 1209 1734 
Q 1209 1275 1398 972 
Q 1588 669 1963 669 
z
" transform="scale(0.015625)"/>
      <path id="Inter-Bold-70" d="M 400 -1306 
L 400 3494 
L 1322 3494 
L 1322 2906 
L 1366 2906 
Q 1428 3044 1548 3191 
Q 1669 3338 1867 3438 
Q 2066 3538 2363 3538 
Q 2750 3538 3072 3338 
Q 3394 3138 3586 2738 
Q 3778 2338 3778 1741 
Q 3778 1159 3590 757 
Q 3403 356 3081 148 
Q 2759 -59 2356 -59 
Q 2072 -59 1875 37 
Q 1678 134 1554 276 
Q 1431 419 1366 559 
L 1338 559 
L 1338 -1306 
L 400 -1306 
z
M 2069 694 
Q 2434 694 2626 987 
Q 2819 1281 2819 1744 
Q 2819 2203 2628 2495 
Q 2438 2788 2069 2788 
Q 1706 2788 1511 2503 
Q 1316 2219 1316 1744 
Q 1316 1269 1512 981 
Q 1709 694 2069 694 
z
" transform="scale(0.015625)"/>
      <path id="Inter-Bold-3a" d="M 1069 -59 
Q 841 -59 684 95 
Q 528 250 528 478 
Q 528 706 684 861 
Q 841 1016 1069 1016 
Q 1297 1016 1453 861 
Q 1609 706 1609 478 
Q 1609 250 1453 95 
Q 1297 -59 1069 -59 
z
M 1069 2245 
Q 841 2245 684 2399 
Q 528 2554 528 2782 
Q 528 3010 684 3165 
Q 841 3320 1069 3320 
Q 1297 3320 1453 3165 
Q 1609 3010 1609 2782 
Q 1609 2554 1453 2399 
Q 1297 2245 1069 2245 
z
" transform="scale(0.015625)"/>
      <path id="Inter-Bold-2c" d="M 372 -1249 
L 647 688 
L 1584 688 
L 1009 -1249 
L 372 -1249 
z
" transform="scale(0.015625)"/>
      <path id="Inter-Bold-25" d="M 4903 -81 
Q 4572 -81 4345 59 
Q 4119 200 4003 433 
Q 3888 666 3888 944 
L 3888 1188 
Q 3888 1469 4006 1701 
Q 4125 1934 4351 2075 
Q 4578 2216 4903 2216 
Q 5234 2216 5461 2075 
Q 5688 1934 5803 1700 
Q 5919 1466 5919 1188 
L 5919 944 
Q 5919 666 5801 431 
Q 5684 197 5457 58 
Q 5231 -81 4903 -81 
z
M 1597 2434 
Q 1266 2434 1039 2575 
Q 813 2716 697 2948 
Q 581 3181 581 3459 
L 581 3703 
Q 581 3984 700 4217 
Q 819 4450 1045 4590 
Q 1272 4731 1597 4731 
Q 1928 4731 2154 4590 
Q 2381 4450 2497 4215 
Q 2613 3981 2613 3703 
L 2613 3459 
Q 2613 3178 2495 2945 
Q 2378 2713 2151 2573 
Q 1925 2434 1597 2434 
z
M 1309 0 
L 4509 4656 
L 5156 4656 
L 1956 0 
L 1309 0 
z
M 1597 3006 
Q 1806 3006 1882 3147 
Q 1959 3288 1959 3459 
L 1959 3703 
Q 1959 3872 1886 4017 
Q 1813 4163 1597 4163 
Q 1391 4163 1311 4016 
Q 1231 3869 1231 3703 
L 1231 3459 
Q 1231 3288 1311 3147 
Q 1391 3006 1597 3006 
z
M 4903 491 
Q 5113 491 5189 631 
Q 5266 772 5266 944 
L 5266 1188 
Q 5266 1356 5192 1501 
Q 5119 1647 4903 1647 
Q 4697 1647 4619 1500 
Q 4541 1353 4541 1188 
L 4541 944 
Q 4541 772 4619 631 
Q 4697 491 4903 491 
z
" transform="scale(0.015625)"/>
      <path id="Inter-Bold-64" d="M 1678 -59 
Q 1275 -59 953 148 
Q 631 356 442 757 
Q 253 1159 253 1741 
Q 253 2338 447 2738 
Q 641 3138 962 3338 
Q 1284 3538 1672 3538 
Q 1969 3538 2166 3438 
Q 2363 3338 2483 3191 
Q 2603 3044 2666 2906 
L 2697 2906 
L 2697 4656 
L 3634 4656 
L 3634 0 
L 2713 0 
L 2713 559 
L 2666 559 
Q 2600 419 2478 276 
Q 2356 134 2159 37 
Q 1963 -59 1678 -59 
z
M 1966 694 
Q 2322 694 2519 981 
Q 2716 1269 2716 1744 
Q 2716 2219 2520 2503 
Q 2325 2788 1966 2788 
Q 1597 2788 1406 2495 
Q 1216 2203 1216 1744 
Q 1216 1281 1408 987 
Q 1600 694 1966 694 
z
" transform="scale(0.015625)"/>
      <path id="Inter-Bold-65" d="M 1978 -69 
Q 1444 -69 1056 150 
Q 669 369 461 772 
Q 253 1175 253 1728 
Q 253 2269 461 2675 
Q 669 3081 1045 3309 
Q 1422 3538 1931 3538 
Q 2388 3538 2759 3344 
Q 3131 3150 3351 2756 
Q 3572 2363 3572 1766 
L 3572 1503 
L 1181 1503 
Q 1197 1075 1419 856 
Q 1641 638 1994 638 
Q 2241 638 2417 742 
Q 2594 847 2669 1050 
L 3519 891 
Q 3391 456 2989 193 
Q 2588 -69 1978 -69 
z
M 1188 2091 
L 2669 2091 
Q 2634 2431 2450 2631 
Q 2266 2831 1941 2831 
Q 1603 2831 1409 2623 
Q 1216 2416 1188 2091 
z
" transform="scale(0.015625)"/>
     </defs>
     <use xlink:href="#Inter-Bold-73"/>
     <use xlink:href="#Inter-Bold-63" transform="translate(56.005859 0)"/>
     <use xlink:href="#Inter-Bold-6f" transform="translate(114.84375 0)"/>
     <use xlink:href="#Inter-Bold-6f" transform="translate(176.171875 0)"/>
     <use xlink:href="#Inter-Bold-70" transform="translate(237.5 0)"/>
     <use xlink:href="#Inter-Bold-20" transform="translate(300.537109 0)"/>
     <use xlink:href="#Inter-Bold-3a" transform="translate(324.21875 0)"/>
     <use xlink:href="#Inter-Bold-20" transform="translate(357.617188 0)"/>
     <use xlink:href="#Inter-Bold-35" transform="translate(381.298828 0)"/>
     <use xlink:href="#Inter-Bold-32" transform="translate(443.505859 0)"/>
     <use xlink:href="#Inter-Bold-2c" transform="translate(506.494141 0)"/>
     <use xlink:href="#Inter-Bold-34" transform="translate(539.892578 0)"/>
     <use xlink:href="#Inter-Bold-25" transform="translate(607.519531 0)"/>
     <use xlink:href="#Inter-Bold-20" transform="translate(709.082031 0)"/>
     <use xlink:href="#Inter-Bold-64" transform="translate(732.763672 0)"/>
     <use xlink:href="#Inter-Bold-65" transform="translate(795.800781 0)"/>
     <use xlink:href="#Inter-Bold-73" transform="translate(855.371094 0)"/>
    </g>
    <!-- communes prévenues -->
    <g style="fill: #c1554d" transform="translate(496.210405 186.039422) scale(0.1 -0.1)">
     <defs>
      <path id="Inter-Bold-6d" d="M 400 0 
L 400 3494 
L 1269 3494 
L 1306 2816 
Q 1447 3197 1719 3372 
Q 1991 3547 2303 3547 
Q 2966 3547 3203 2763 
Q 3350 3166 3658 3356 
Q 3966 3547 4325 3547 
Q 4806 3547 5123 3236 
Q 5441 2925 5441 2356 
L 5441 0 
L 4503 0 
L 4503 2178 
Q 4503 2472 4342 2617 
Q 4181 2763 3947 2763 
Q 3681 2763 3526 2594 
Q 3372 2425 3372 2150 
L 3372 0 
L 2466 0 
L 2466 2203 
Q 2466 2459 2314 2611 
Q 2163 2763 1922 2763 
Q 1675 2763 1506 2595 
Q 1338 2428 1338 2113 
L 1338 0 
L 400 0 
z
" transform="scale(0.015625)"/>
      <path id="Inter-Bold-75" d="M 1603 -44 
Q 1059 -44 729 306 
Q 400 656 400 1272 
L 400 3494 
L 1338 3494 
L 1338 1434 
Q 1338 1109 1506 925 
Q 1675 741 1969 741 
Q 2269 741 2458 933 
Q 2647 1125 2647 1472 
L 2647 3494 
L 3588 3494 
L 3588 0 
L 2700 0 
L 2688 725 
Q 2541 353 2270 154 
Q 2000 -44 1603 -44 
z
" transform="scale(0.015625)"/>
      <path id="Inter-Bold-6e" d="M 1338 2022 
L 1338 0 
L 400 0 
L 400 3494 
L 1284 3494 
L 1297 2772 
Q 1444 3138 1712 3338 
Q 1981 3538 2384 3538 
Q 2928 3538 3256 3188 
Q 3584 2838 3584 2222 
L 3584 0 
L 2647 0 
L 2647 2059 
Q 2647 2384 2480 2568 
Q 2313 2753 2016 2753 
Q 1716 2753 1527 2561 
Q 1338 2369 1338 2022 
z
" transform="scale(0.015625)"/>
      <path id="Inter-Bold-72" d="M 400 0 
L 400 3494 
L 1306 3494 
L 1306 2884 
L 1344 2884 
Q 1441 3206 1667 3373 
Q 1894 3541 2188 3541 
Q 2347 3541 2491 3509 
L 2491 2672 
Q 2428 2691 2308 2705 
Q 2188 2719 2084 2719 
Q 1759 2719 1548 2516 
Q 1338 2313 1338 1988 
L 1338 0 
L 400 0 
z
" transform="scale(0.015625)"/>
      <path id="Inter-Bold-e9" d="M 1978 -69 
Q 1444 -69 1056 150 
Q 669 369 461 772 
Q 253 1175 253 1728 
Q 253 2269 461 2675 
Q 669 3081 1045 3309 
Q 1422 3538 1931 3538 
Q 2388 3538 2759 3344 
Q 3131 3150 3351 2756 
Q 3572 2363 3572 1766 
L 3572 1503 
L 1181 1503 
Q 1197 1075 1419 856 
Q 1641 638 1994 638 
Q 2241 638 2417 742 
Q 2594 847 2669 1050 
L 3519 891 
Q 3391 456 2989 193 
Q 2588 -69 1978 -69 
z
M 1188 2091 
L 2669 2091 
Q 2634 2431 2450 2631 
Q 2266 2831 1941 2831 
Q 1603 2831 1409 2623 
Q 1216 2416 1188 2091 
z
M 1576 3938 
L 2011 4909 
L 2879 4909 
L 2232 3938 
L 1576 3938 
z
" transform="scale(0.015625)"/>
      <path id="Inter-Bold-76" d="M 1384 0 
L 97 3494 
L 1094 3494 
L 1681 1681 
Q 1753 1447 1814 1209 
Q 1875 972 1931 728 
Q 1984 972 2042 1208 
Q 2100 1444 2175 1681 
L 2756 3494 
L 3741 3494 
L 2450 0 
L 1384 0 
z
" transform="scale(0.015625)"/>
     </defs>
     <use xlink:href="#Inter-Bold-63"/>
     <use xlink:href="#Inter-Bold-6f" transform="translate(58.837891 0)"/>
     <use xlink:href="#Inter-Bold-6d" transform="translate(120.166016 0)"/>
     <use xlink:href="#Inter-Bold-6d" transform="translate(211.425781 0)"/>
     <use xlink:href="#Inter-Bold-75" transform="translate(302.685547 0)"/>
     <use xlink:href="#Inter-Bold-6e" transform="translate(364.941406 0)"/>
     <use xlink:href="#Inter-Bold-65" transform="translate(427.197266 0)"/>
     <use xlink:href="#Inter-Bold-73" transform="translate(486.767578 0)"/>
     <use xlink:href="#Inter-Bold-20" transform="translate(542.773438 0)"/>
     <use xlink:href="#Inter-Bold-70" transform="translate(566.455078 0)"/>
     <use xlink:href="#Inter-Bold-72" transform="translate(629.492188 0)"/>
     <use xlink:href="#Inter-Bold-e9" transform="translate(670.214844 0)"/>
     <use xlink:href="#Inter-Bold-76" transform="translate(729.785156 0)"/>
     <use xlink:href="#Inter-Bold-65" transform="translate(789.746094 0)"/>
     <use xlink:href="#Inter-Bold-6e" transform="translate(849.316406 0)"/>
     <use xlink:href="#Inter-Bold-75" transform="translate(911.572266 0)"/>
     <use xlink:href="#Inter-Bold-65" transform="translate(973.828125 0)"/>
     <use xlink:href="#Inter-Bold-73" transform="translate(1033.398438 0)"/>
    </g>
    <!-- restent silencieuses -->
    <g style="fill: #c1554d" transform="translate(496.210405 196.810047) scale(0.1 -0.1)">
     <defs>
      <path id="Inter-Bold-74" d="M 2134 3494 
L 2134 2778 
L 1481 2778 
L 1481 1022 
Q 1481 697 1800 697 
Q 1853 697 1948 711 
Q 2044 725 2097 738 
L 2231 34 
Q 2075 -13 1920 -31 
Q 1766 -50 1625 -50 
Q 1100 -50 822 204 
Q 544 459 544 941 
L 544 2778 
L 63 2778 
L 63 3494 
L 544 3494 
L 544 4325 
L 1481 4325 
L 1481 3494 
L 2134 3494 
z
" transform="scale(0.015625)"/>
      <path id="Inter-Bold-69" d="M 400 0 
L 400 3494 
L 1338 3494 
L 1338 0 
L 400 0 
z
M 871 3950 
Q 658 3950 508 4090 
Q 358 4231 358 4431 
Q 358 4631 508 4772 
Q 658 4913 871 4913 
Q 1083 4913 1234 4772 
Q 1386 4631 1386 4431 
Q 1386 4231 1234 4090 
Q 1083 3950 871 3950 
z
" transform="scale(0.015625)"/>
      <path id="Inter-Bold-6c" d="M 1338 4656 
L 1338 0 
L 400 0 
L 400 4656 
L 1338 4656 
z
" transform="scale(0.015625)"/>
     </defs>
     <use xlink:href="#Inter-Bold-72"/>
     <use xlink:href="#Inter-Bold-65" transform="translate(40.722656 0)"/>
     <use xlink:href="#Inter-Bold-73" transform="translate(100.292969 0)"/>
     <use xlink:href="#Inter-Bold-74" transform="translate(156.298828 0)"/>
     <use xlink:href="#Inter-Bold-65" transform="translate(192.919922 0)"/>
     <use xlink:href="#Inter-Bold-6e" transform="translate(252.490234 0)"/>
     <use xlink:href="#Inter-Bold-74" transform="translate(314.746094 0)"/>
     <use xlink:href="#Inter-Bold-20" transform="translate(351.367188 0)"/>
     <use xlink:href="#Inter-Bold-73" transform="translate(375.048828 0)"/>
     <use xlink:href="#Inter-Bold-69" transform="translate(431.054688 0)"/>
     <use xlink:href="#Inter-Bold-6c" transform="translate(458.154297 0)"/>
     <use xlink:href="#Inter-Bold-65" transform="translate(485.253906 0)"/>
     <use xlink:href="#Inter-Bold-6e" transform="translate(544.824219 0)"/>
     <use xlink:href="#Inter-Bold-63" transform="translate(607.080078 0)"/>
     <use xlink:href="#Inter-Bold-69" transform="translate(665.917969 0)"/>
     <use xlink:href="#Inter-Bold-65" transform="translate(693.017578 0)"/>
     <use xlink:href="#Inter-Bold-75" transform="translate(752.587891 0)"/>
     <use xlink:href="#Inter-Bold-73" transform="translate(814.84375 0)"/>
     <use xlink:href="#Inter-Bold-65" transform="translate(870.849609 0)"/>
     <use xlink:href="#Inter-Bold-73" transform="translate(930.419922 0)"/>
    </g>
   </g>
   <g id="text_10">
    <!-- Avec DICRIM -->
    <g style="fill: #1c1917" transform="translate(196.148274 90.296686) scale(0.13 -0.13)">
     <defs>
      <path id="Inter-Bold-41" d="M 153 0 
L 1744 4656 
L 2994 4656 
L 4625 0 
L 3566 0 
L 3206 1081 
L 1553 1081 
L 1206 0 
L 153 0 
z
M 1791 1828 
L 2959 1828 
L 2819 2247 
Q 2706 2603 2593 3018 
Q 2481 3434 2359 3909 
Q 2244 3428 2137 3012 
Q 2031 2597 1925 2247 
L 1791 1828 
z
" transform="scale(0.015625)"/>
      <path id="Inter-Bold-44" d="M 2059 0 
L 422 0 
L 422 4656 
L 2075 4656 
Q 2775 4656 3279 4376 
Q 3784 4097 4056 3576 
Q 4328 3056 4328 2331 
Q 4328 1603 4056 1081 
Q 3784 559 3275 279 
Q 2766 0 2059 0 
z
M 1375 822 
L 2013 822 
Q 2684 822 3031 1184 
Q 3378 1547 3378 2331 
Q 3378 3113 3033 3473 
Q 2688 3834 2019 3834 
L 1375 3834 
L 1375 822 
z
" transform="scale(0.015625)"/>
      <path id="Inter-Bold-49" d="M 1375 4656 
L 1375 0 
L 422 0 
L 422 4656 
L 1375 4656 
z
" transform="scale(0.015625)"/>
      <path id="Inter-Bold-43" d="M 2456 -63 
Q 1834 -63 1346 218 
Q 859 500 576 1034 
Q 294 1569 294 2325 
Q 294 3084 578 3620 
Q 863 4156 1353 4437 
Q 1844 4719 2456 4719 
Q 2984 4719 3412 4523 
Q 3841 4328 4116 3958 
Q 4391 3588 4459 3066 
L 3494 3066 
Q 3428 3444 3151 3658 
Q 2875 3872 2475 3872 
Q 1931 3872 1597 3469 
Q 1263 3066 1263 2325 
Q 1263 1569 1598 1176 
Q 1934 784 2472 784 
Q 2869 784 3148 998 
Q 3428 1213 3497 1594 
L 4463 1594 
Q 4409 1159 4156 782 
Q 3903 406 3473 171 
Q 3044 -63 2456 -63 
z
" transform="scale(0.015625)"/>
      <path id="Inter-Bold-52" d="M 422 0 
L 422 4656 
L 2238 4656 
Q 3031 4656 3467 4242 
Q 3903 3828 3903 3141 
Q 3903 2663 3690 2323 
Q 3478 1984 3078 1816 
L 4069 0 
L 3013 0 
L 2125 1663 
L 1375 1663 
L 1375 0 
L 422 0 
z
M 1375 2434 
L 2063 2434 
Q 2919 2434 2919 3141 
Q 2919 3494 2708 3681 
Q 2497 3869 2059 3869 
L 1375 3869 
L 1375 2434 
z
" transform="scale(0.015625)"/>
      <path id="Inter-Bold-4d" d="M 422 0 
L 422 4656 
L 1884 4656 
L 2641 2519 
Q 2688 2372 2747 2134 
Q 2806 1897 2870 1623 
Q 2934 1350 2988 1097 
Q 3041 1347 3103 1620 
Q 3166 1894 3225 2131 
Q 3284 2369 3331 2519 
L 4075 4656 
L 5544 4656 
L 5544 0 
L 4584 0 
L 4584 2197 
Q 4584 2372 4592 2644 
Q 4600 2916 4608 3228 
Q 4616 3541 4619 3834 
Q 4541 3522 4455 3206 
Q 4369 2891 4291 2627 
Q 4213 2363 4156 2197 
L 3384 0 
L 2581 0 
L 1797 2197 
Q 1744 2356 1667 2612 
Q 1591 2869 1503 3176 
Q 1416 3484 1334 3797 
Q 1341 3516 1348 3211 
Q 1356 2906 1362 2639 
Q 1369 2372 1369 2197 
L 1369 0 
L 422 0 
z
" transform="scale(0.015625)"/>
     </defs>
     <use xlink:href="#Inter-Bold-41"/>
     <use xlink:href="#Inter-Bold-76" transform="translate(74.658203 0)"/>
     <use xlink:href="#Inter-Bold-65" transform="translate(134.619141 0)"/>
     <use xlink:href="#Inter-Bold-63" transform="translate(194.189453 0)"/>
     <use xlink:href="#Inter-Bold-20" transform="translate(253.027344 0)"/>
     <use xlink:href="#Inter-Bold-44" transform="translate(276.708984 0)"/>
     <use xlink:href="#Inter-Bold-49" transform="translate(348.925781 0)"/>
     <use xlink:href="#Inter-Bold-43" transform="translate(377.001953 0)"/>
     <use xlink:href="#Inter-Bold-52" transform="translate(450.976562 0)"/>
     <use xlink:href="#Inter-Bold-49" transform="translate(516.650391 0)"/>
     <use xlink:href="#Inter-Bold-4d" transform="translate(544.726562 0)"/>
    </g>
   </g>
   <g id="text_11">
    <!-- Sans DICRIM -->
    <g style="fill: #1c1917" transform="translate(329.493477 90.296686) scale(0.13 -0.13)">
     <defs>
      <path id="Inter-Bold-53" d="M 2128 -69 
Q 1288 -69 786 317 
Q 284 703 266 1444 
L 1194 1444 
Q 1219 1091 1476 914 
Q 1734 738 2119 738 
Q 2500 738 2733 902 
Q 2966 1066 2966 1331 
Q 2966 1572 2755 1700 
Q 2544 1828 2163 1922 
L 1650 2050 
Q 1059 2194 725 2501 
Q 391 2809 391 3316 
Q 391 3738 617 4053 
Q 844 4369 1239 4544 
Q 1634 4719 2141 4719 
Q 2656 4719 3040 4542 
Q 3425 4366 3640 4052 
Q 3856 3738 3863 3328 
L 2941 3328 
Q 2916 3609 2702 3762 
Q 2488 3916 2131 3916 
Q 1766 3916 1567 3764 
Q 1369 3613 1369 3378 
Q 1369 3119 1592 2991 
Q 1816 2863 2113 2791 
L 2534 2688 
Q 2925 2597 3240 2426 
Q 3556 2256 3740 1986 
Q 3925 1716 3925 1325 
Q 3925 691 3451 311 
Q 2978 -69 2128 -69 
z
" transform="scale(0.015625)"/>
      <path id="Inter-Bold-61" d="M 1375 -69 
Q 875 -69 544 195 
Q 213 459 213 978 
Q 213 1369 400 1591 
Q 588 1813 888 1916 
Q 1188 2019 1531 2050 
Q 1981 2094 2179 2142 
Q 2378 2191 2378 2363 
L 2378 2378 
Q 2378 2600 2236 2722 
Q 2094 2844 1831 2844 
Q 1559 2844 1393 2726 
Q 1228 2609 1172 2441 
L 313 2584 
Q 447 3038 848 3288 
Q 1250 3538 1834 3538 
Q 2209 3538 2548 3419 
Q 2888 3300 3102 3039 
Q 3316 2778 3316 2353 
L 3316 0 
L 2428 0 
L 2428 484 
L 2397 484 
Q 2269 241 2016 86 
Q 1763 -69 1375 -69 
z
M 1641 591 
Q 1969 591 2176 781 
Q 2384 972 2384 1250 
L 2384 1628 
Q 2328 1588 2201 1558 
Q 2075 1528 1934 1504 
Q 1794 1481 1691 1469 
Q 1431 1431 1272 1322 
Q 1113 1213 1113 1003 
Q 1113 800 1261 695 
Q 1409 591 1641 591 
z
" transform="scale(0.015625)"/>
     </defs>
     <use xlink:href="#Inter-Bold-53"/>
     <use xlink:href="#Inter-Bold-61" transform="translate(65.478516 0)"/>
     <use xlink:href="#Inter-Bold-6e" transform="translate(123.535156 0)"/>
     <use xlink:href="#Inter-Bold-73" transform="translate(185.791016 0)"/>
     <use xlink:href="#Inter-Bold-20" transform="translate(241.796875 0)"/>
     <use xlink:href="#Inter-Bold-44" transform="translate(265.478516 0)"/>
     <use xlink:href="#Inter-Bold-49" transform="translate(337.695312 0)"/>
     <use xlink:href="#Inter-Bold-43" transform="translate(365.771484 0)"/>
     <use xlink:href="#Inter-Bold-52" transform="translate(439.746094 0)"/>
     <use xlink:href="#Inter-Bold-49" transform="translate(505.419922 0)"/>
     <use xlink:href="#Inter-Bold-4d" transform="translate(533.496094 0)"/>
    </g>
   </g>
   <g id="text_12">
    <!-- 4 323 (35%) -->
    <g style="fill: #78716c" transform="translate(207.73429 107.5365) scale(0.1 -0.1)">
     <defs>
      <path id="Inter-Regular-34" d="M 375 947 
L 375 1431 
L 2413 4656 
L 3134 4656 
L 3134 1469 
L 3766 1469 
L 3766 947 
L 3134 947 
L 3134 0 
L 2566 0 
L 2566 947 
L 375 947 
z
M 2569 1469 
L 2569 3913 
L 2531 3913 
L 1009 1506 
L 1009 1469 
L 2569 1469 
z
" transform="scale(0.015625)"/>
      <path id="Inter-Regular-33" d="M 1984 -63 
Q 1528 -63 1175 93 
Q 822 250 614 528 
Q 406 806 391 1175 
L 991 1175 
Q 1016 844 1297 651 
Q 1578 459 1975 459 
Q 2413 459 2698 684 
Q 2984 909 2984 1272 
Q 2984 1650 2703 1889 
Q 2422 2128 1903 2128 
L 1525 2128 
L 1525 2644 
L 1903 2644 
Q 2313 2644 2567 2861 
Q 2822 3078 2822 3438 
Q 2822 3784 2597 3993 
Q 2372 4203 1991 4203 
Q 1753 4203 1545 4117 
Q 1338 4031 1205 3872 
Q 1072 3713 1063 3484 
L 491 3484 
Q 503 3850 709 4128 
Q 916 4406 1255 4562 
Q 1594 4719 2003 4719 
Q 2438 4719 2752 4544 
Q 3066 4369 3234 4084 
Q 3403 3800 3403 3469 
Q 3403 3075 3195 2800 
Q 2988 2525 2631 2419 
L 2631 2381 
Q 3078 2309 3325 2007 
Q 3572 1706 3572 1266 
Q 3572 884 3365 584 
Q 3159 284 2800 110 
Q 2441 -63 1984 -63 
z
" transform="scale(0.015625)"/>
      <path id="Inter-Regular-32" d="M 481 0 
L 481 428 
L 2028 2106 
Q 2288 2388 2459 2600 
Q 2631 2813 2718 3005 
Q 2806 3197 2806 3413 
Q 2806 3778 2554 3990 
Q 2303 4203 1931 4203 
Q 1534 4203 1298 3965 
Q 1063 3728 1063 3334 
L 494 3334 
Q 494 3747 684 4059 
Q 875 4372 1203 4545 
Q 1531 4719 1947 4719 
Q 2363 4719 2683 4545 
Q 3003 4372 3186 4078 
Q 3369 3784 3369 3419 
Q 3369 3166 3278 2927 
Q 3188 2688 2959 2384 
Q 2731 2081 2319 1644 
L 1300 559 
L 1300 522 
L 3447 522 
L 3447 0 
L 481 0 
z
" transform="scale(0.015625)"/>
      <path id="Inter-Regular-28" d="M 681 1897 
Q 681 2406 786 2964 
Q 891 3522 1072 4039 
Q 1253 4556 1488 4941 
L 2034 4941 
Q 1794 4450 1617 3919 
Q 1441 3388 1347 2870 
Q 1253 2353 1253 1897 
Q 1253 1275 1442 617 
Q 1631 -41 2034 -872 
L 1488 -872 
Q 1091 -194 886 509 
Q 681 1213 681 1897 
z
" transform="scale(0.015625)"/>
      <path id="Inter-Regular-35" d="M 1863 -63 
Q 1453 -63 1128 98 
Q 803 259 609 539 
Q 416 819 400 1175 
L 975 1175 
Q 1003 863 1258 661 
Q 1513 459 1863 459 
Q 2144 459 2364 590 
Q 2584 722 2709 953 
Q 2834 1184 2834 1478 
Q 2834 1778 2703 2015 
Q 2572 2253 2345 2389 
Q 2119 2525 1825 2525 
Q 1609 2525 1387 2456 
Q 1166 2388 1028 2281 
L 472 2350 
L 747 4656 
L 3197 4656 
L 3197 4134 
L 1247 4134 
L 1088 2775 
L 1113 2775 
Q 1256 2894 1475 2970 
Q 1694 3047 1934 3047 
Q 2363 3047 2697 2845 
Q 3031 2644 3223 2291 
Q 3416 1938 3416 1488 
Q 3416 1041 3214 691 
Q 3013 341 2663 139 
Q 2313 -63 1863 -63 
z
" transform="scale(0.015625)"/>
      <path id="Inter-Regular-25" d="M 4656 -91 
Q 4359 -91 4154 39 
Q 3950 169 3845 384 
Q 3741 600 3741 856 
L 3741 1100 
Q 3741 1356 3847 1570 
Q 3953 1784 4158 1914 
Q 4363 2044 4656 2044 
Q 4956 2044 5159 1914 
Q 5363 1784 5464 1570 
Q 5566 1356 5566 1100 
L 5566 856 
Q 5566 600 5461 384 
Q 5356 169 5154 39 
Q 4953 -91 4656 -91 
z
M 1634 2597 
Q 1338 2597 1133 2726 
Q 928 2856 823 3072 
Q 719 3288 719 3544 
L 719 3788 
Q 719 4044 825 4258 
Q 931 4472 1136 4601 
Q 1341 4731 1634 4731 
Q 1934 4731 2136 4601 
Q 2338 4472 2441 4258 
Q 2544 4044 2544 3788 
L 2544 3544 
Q 2544 3288 2439 3072 
Q 2334 2856 2132 2726 
Q 1931 2597 1634 2597 
z
M 1263 0 
L 4463 4656 
L 4991 4656 
L 1791 0 
L 1263 0 
z
M 4656 319 
Q 4894 319 4991 483 
Q 5088 647 5088 856 
L 5088 1100 
Q 5088 1306 4994 1472 
Q 4900 1638 4656 1638 
Q 4422 1638 4320 1472 
Q 4219 1306 4219 1100 
L 4219 856 
Q 4219 647 4317 483 
Q 4416 319 4656 319 
z
M 1634 3006 
Q 1872 3006 1969 3170 
Q 2066 3334 2066 3544 
L 2066 3788 
Q 2066 3994 1972 4159 
Q 1878 4325 1634 4325 
Q 1400 4325 1298 4159 
Q 1197 3994 1197 3788 
L 1197 3544 
Q 1197 3334 1295 3170 
Q 1394 3006 1634 3006 
z
" transform="scale(0.015625)"/>
      <path id="Inter-Regular-29" d="M 300 -872 
Q 716 -16 898 639 
Q 1081 1294 1081 1897 
Q 1081 2353 987 2870 
Q 894 3388 719 3919 
Q 544 4450 300 4941 
L 847 4941 
Q 1081 4556 1264 4039 
Q 1447 3522 1550 2962 
Q 1653 2403 1653 1897 
Q 1653 1200 1445 497 
Q 1238 -206 847 -872 
L 300 -872 
z
" transform="scale(0.015625)"/>
     </defs>
     <use xlink:href="#Inter-Regular-34"/>
     <use xlink:href="#Inter-Regular-20" transform="translate(64.599609 0)"/>
     <use xlink:href="#Inter-Regular-33" transform="translate(92.724609 0)"/>
     <use xlink:href="#Inter-Regular-32" transform="translate(154.492188 0)"/>
     <use xlink:href="#Inter-Regular-33" transform="translate(215.478516 0)"/>
     <use xlink:href="#Inter-Regular-20" transform="translate(277.246094 0)"/>
     <use xlink:href="#Inter-Regular-28" transform="translate(305.371094 0)"/>
     <use xlink:href="#Inter-Regular-33" transform="translate(341.845703 0)"/>
     <use xlink:href="#Inter-Regular-35" transform="translate(403.613281 0)"/>
     <use xlink:href="#Inter-Regular-25" transform="translate(462.939453 0)"/>
     <use xlink:href="#Inter-Regular-29" transform="translate(561.132812 0)"/>
    </g>
   </g>
   <g id="text_13">
    <!-- 8 031 (65%) -->
    <g style="fill: #78716c" transform="translate(341.421681 107.5365) scale(0.1 -0.1)">
     <defs>
      <path id="Inter-Regular-38" d="M 1978 -63 
Q 1506 -63 1145 104 
Q 784 272 582 565 
Q 381 859 381 1238 
Q 381 1531 500 1782 
Q 619 2034 825 2203 
Q 1031 2372 1291 2419 
L 1291 2444 
Q 950 2531 750 2822 
Q 550 3113 550 3481 
Q 550 3838 734 4117 
Q 919 4397 1241 4558 
Q 1563 4719 1978 4719 
Q 2388 4719 2709 4558 
Q 3031 4397 3217 4117 
Q 3403 3838 3403 3481 
Q 3403 3113 3201 2822 
Q 3000 2531 2669 2444 
L 2669 2419 
Q 2922 2372 3128 2203 
Q 3334 2034 3456 1782 
Q 3578 1531 3578 1238 
Q 3578 859 3373 565 
Q 3169 272 2808 104 
Q 2447 -63 1978 -63 
z
M 1978 453 
Q 2441 453 2712 676 
Q 2984 900 2984 1269 
Q 2984 1528 2853 1726 
Q 2722 1925 2494 2039 
Q 2266 2153 1978 2153 
Q 1538 2153 1252 1904 
Q 966 1656 966 1269 
Q 966 900 1236 676 
Q 1506 453 1978 453 
z
M 1978 2650 
Q 2347 2650 2587 2867 
Q 2828 3084 2828 3438 
Q 2828 3788 2593 3997 
Q 2359 4206 1978 4206 
Q 1591 4206 1358 3997 
Q 1125 3788 1125 3438 
Q 1125 3084 1362 2867 
Q 1600 2650 1978 2650 
z
" transform="scale(0.015625)"/>
      <path id="Inter-Regular-30" d="M 2019 -63 
Q 1241 -63 811 562 
Q 381 1188 381 2325 
Q 381 3456 814 4087 
Q 1247 4719 2019 4719 
Q 2794 4719 3225 4087 
Q 3656 3456 3656 2325 
Q 3656 1188 3228 562 
Q 2800 -63 2019 -63 
z
M 2019 456 
Q 2531 456 2807 948 
Q 3084 1441 3084 2325 
Q 3084 3216 2807 3709 
Q 2531 4203 2019 4203 
Q 1509 4203 1231 3708 
Q 953 3213 953 2325 
Q 953 1441 1231 948 
Q 1509 456 2019 456 
z
" transform="scale(0.015625)"/>
      <path id="Inter-Regular-31" d="M 2041 4656 
L 2041 0 
L 1456 0 
L 1456 4106 
L 1425 4106 
L 300 3272 
L 300 3909 
L 1313 4656 
L 2041 4656 
z
" transform="scale(0.015625)"/>
      <path id="Inter-Regular-36" d="M 2019 -63 
Q 1728 -63 1437 43 
Q 1147 150 908 400 
Q 669 650 525 1078 
Q 381 1506 381 2150 
Q 381 3378 840 4048 
Q 1300 4719 2091 4719 
Q 2481 4719 2790 4562 
Q 3100 4406 3297 4128 
Q 3494 3850 3550 3484 
L 2969 3484 
Q 2891 3788 2672 3991 
Q 2453 4194 2091 4194 
Q 1553 4194 1248 3730 
Q 944 3266 944 2425 
L 981 2425 
Q 1169 2716 1467 2880 
Q 1766 3044 2128 3044 
Q 2528 3044 2859 2847 
Q 3191 2650 3389 2301 
Q 3588 1953 3588 1503 
Q 3588 1069 3394 714 
Q 3200 359 2847 148 
Q 2494 -63 2019 -63 
z
M 2019 459 
Q 2300 459 2525 600 
Q 2750 741 2881 977 
Q 3013 1213 3013 1503 
Q 3013 1788 2886 2020 
Q 2759 2253 2537 2390 
Q 2316 2528 2034 2528 
Q 1753 2528 1525 2384 
Q 1297 2241 1162 2005 
Q 1028 1769 1028 1497 
Q 1028 1222 1156 986 
Q 1284 750 1509 604 
Q 1734 459 2019 459 
z
" transform="scale(0.015625)"/>
     </defs>
     <use xlink:href="#Inter-Regular-38"/>
     <use xlink:href="#Inter-Regular-20" transform="translate(61.865234 0)"/>
     <use xlink:href="#Inter-Regular-30" transform="translate(89.990234 0)"/>
     <use xlink:href="#Inter-Regular-33" transform="translate(153.076172 0)"/>
     <use xlink:href="#Inter-Regular-31" transform="translate(214.84375 0)"/>
     <use xlink:href="#Inter-Regular-20" transform="translate(255.517578 0)"/>
     <use xlink:href="#Inter-Regular-28" transform="translate(283.642578 0)"/>
     <use xlink:href="#Inter-Regular-36" transform="translate(320.117188 0)"/>
     <use xlink:href="#Inter-Regular-35" transform="translate(382.128906 0)"/>
     <use xlink:href="#Inter-Regular-25" transform="translate(441.455078 0)"/>
     <use xlink:href="#Inter-Regular-29" transform="translate(539.648438 0)"/>
    </g>
   </g>
   <g id="text_14">
    <!-- Avec TIM -->
    <g style="fill: #1c1917" transform="translate(100.281634 179.8981) scale(0.13 -0.13)">
     <defs>
      <path id="Inter-Bold-54" d="M 234 3866 
L 234 4656 
L 4038 4656 
L 4038 3866 
L 2616 3866 
L 2616 0 
L 1659 0 
L 1659 3866 
L 234 3866 
z
" transform="scale(0.015625)"/>
     </defs>
     <use xlink:href="#Inter-Bold-41"/>
     <use xlink:href="#Inter-Bold-76" transform="translate(74.658203 0)"/>
     <use xlink:href="#Inter-Bold-65" transform="translate(134.619141 0)"/>
     <use xlink:href="#Inter-Bold-63" transform="translate(194.189453 0)"/>
     <use xlink:href="#Inter-Bold-20" transform="translate(253.027344 0)"/>
     <use xlink:href="#Inter-Bold-54" transform="translate(276.708984 0)"/>
     <use xlink:href="#Inter-Bold-49" transform="translate(343.457031 0)"/>
     <use xlink:href="#Inter-Bold-4d" transform="translate(371.533203 0)"/>
    </g>
   </g>
   <g id="text_15">
    <!-- 7 440 (60%) -->
    <g style="fill: #78716c" transform="translate(100.561165 196.352757) scale(0.1 -0.1)">
     <defs>
      <path id="Inter-Regular-37" d="M 625 0 
L 2694 4097 
L 2694 4134 
L 306 4134 
L 306 4656 
L 3316 4656 
L 3316 4103 
L 1250 0 
L 625 0 
z
" transform="scale(0.015625)"/>
     </defs>
     <use xlink:href="#Inter-Regular-37"/>
     <use xlink:href="#Inter-Regular-20" transform="translate(56.591797 0)"/>
     <use xlink:href="#Inter-Regular-34" transform="translate(84.716797 0)"/>
     <use xlink:href="#Inter-Regular-34" transform="translate(149.316406 0)"/>
     <use xlink:href="#Inter-Regular-30" transform="translate(213.916016 0)"/>
     <use xlink:href="#Inter-Regular-20" transform="translate(277.001953 0)"/>
     <use xlink:href="#Inter-Regular-28" transform="translate(305.126953 0)"/>
     <use xlink:href="#Inter-Regular-36" transform="translate(341.601562 0)"/>
     <use xlink:href="#Inter-Regular-30" transform="translate(403.613281 0)"/>
     <use xlink:href="#Inter-Regular-25" transform="translate(466.699219 0)"/>
     <use xlink:href="#Inter-Regular-29" transform="translate(564.892578 0)"/>
    </g>
   </g>
   <g id="text_16">
    <!-- Sans TIM -->
    <g style="fill: #1c1917" transform="translate(101.744134 312.512053) scale(0.13 -0.13)">
     <use xlink:href="#Inter-Bold-53"/>
     <use xlink:href="#Inter-Bold-61" transform="translate(65.478516 0)"/>
     <use xlink:href="#Inter-Bold-6e" transform="translate(123.535156 0)"/>
     <use xlink:href="#Inter-Bold-73" transform="translate(185.791016 0)"/>
     <use xlink:href="#Inter-Bold-20" transform="translate(241.796875 0)"/>
     <use xlink:href="#Inter-Bold-54" transform="translate(265.478516 0)"/>
     <use xlink:href="#Inter-Bold-49" transform="translate(332.226562 0)"/>
     <use xlink:href="#Inter-Bold-4d" transform="translate(360.302734 0)"/>
    </g>
   </g>
   <g id="text_17">
    <!-- 4 914 (40%) -->
    <g style="fill: #78716c" transform="translate(102.003353 328.966711) scale(0.1 -0.1)">
     <defs>
      <path id="Inter-Regular-39" d="M 1884 -63 
Q 1488 -63 1178 93 
Q 869 250 672 531 
Q 475 813 419 1184 
L 1006 1184 
Q 1078 875 1297 669 
Q 1516 463 1884 463 
Q 2416 463 2723 927 
Q 3031 1391 3031 2238 
L 2994 2238 
Q 2806 1953 2509 1784 
Q 2213 1616 1847 1616 
Q 1447 1616 1112 1814 
Q 778 2013 579 2361 
Q 381 2709 381 3156 
Q 381 3591 578 3948 
Q 775 4306 1129 4517 
Q 1484 4728 1963 4719 
Q 2250 4716 2537 4608 
Q 2825 4500 3062 4253 
Q 3300 4006 3444 3581 
Q 3588 3156 3588 2513 
Q 3588 1278 3131 607 
Q 2675 -63 1884 -63 
z
M 1934 2134 
Q 2219 2134 2447 2279 
Q 2675 2425 2811 2662 
Q 2947 2900 2947 3172 
Q 2947 3441 2817 3673 
Q 2688 3906 2464 4051 
Q 2241 4197 1953 4197 
Q 1672 4197 1448 4058 
Q 1225 3919 1094 3683 
Q 963 3447 963 3159 
Q 963 2875 1089 2642 
Q 1216 2409 1434 2271 
Q 1653 2134 1934 2134 
z
" transform="scale(0.015625)"/>
     </defs>
     <use xlink:href="#Inter-Regular-34"/>
     <use xlink:href="#Inter-Regular-20" transform="translate(64.599609 0)"/>
     <use xlink:href="#Inter-Regular-39" transform="translate(92.724609 0)"/>
     <use xlink:href="#Inter-Regular-31" transform="translate(154.736328 0)"/>
     <use xlink:href="#Inter-Regular-34" transform="translate(195.410156 0)"/>
     <use xlink:href="#Inter-Regular-20" transform="translate(260.009766 0)"/>
     <use xlink:href="#Inter-Regular-28" transform="translate(288.134766 0)"/>
     <use xlink:href="#Inter-Regular-34" transform="translate(324.609375 0)"/>
     <use xlink:href="#Inter-Regular-30" transform="translate(389.208984 0)"/>
     <use xlink:href="#Inter-Regular-25" transform="translate(452.294922 0)"/>
     <use xlink:href="#Inter-Regular-29" transform="translate(550.488281 0)"/>
    </g>
   </g>
   <g id="text_18">
    <!-- Matrice TIM × DICRIM : 12 354 communes RGA -->
    <g style="fill: #1c1917" transform="translate(153.360703 32.5125) scale(0.15 -0.15)">
     <defs>
      <path id="Inter-Bold-d7" d="M 3241 216 
L 2178 1275 
L 1116 216 
L 534 794 
L 1594 1856 
L 534 2916 
L 1116 3503 
L 2178 2438 
L 3241 3503 
L 3819 2916 
L 2759 1856 
L 3819 794 
L 3241 216 
z
" transform="scale(0.015625)"/>
      <path id="Inter-Bold-47" d="M 2484 -63 
Q 1831 -63 1337 226 
Q 844 516 569 1050 
Q 294 1584 294 2322 
Q 294 3075 580 3612 
Q 866 4150 1358 4434 
Q 1850 4719 2463 4719 
Q 2988 4719 3413 4519 
Q 3838 4319 4109 3967 
Q 4381 3616 4447 3156 
L 3478 3156 
Q 3378 3491 3122 3681 
Q 2866 3872 2478 3872 
Q 1941 3872 1602 3472 
Q 1263 3072 1263 2331 
Q 1263 1591 1597 1187 
Q 1931 784 2491 784 
Q 2988 784 3272 1046 
Q 3556 1309 3569 1756 
L 2556 1756 
L 2556 2481 
L 4494 2481 
L 4494 1900 
Q 4494 1288 4234 848 
Q 3975 409 3522 173 
Q 3069 -63 2484 -63 
z
" transform="scale(0.015625)"/>
     </defs>
     <use xlink:href="#Inter-Bold-4d"/>
     <use xlink:href="#Inter-Bold-61" transform="translate(93.164062 0)"/>
     <use xlink:href="#Inter-Bold-74" transform="translate(151.220703 0)"/>
     <use xlink:href="#Inter-Bold-72" transform="translate(187.841797 0)"/>
     <use xlink:href="#Inter-Bold-69" transform="translate(228.564453 0)"/>
     <use xlink:href="#Inter-Bold-63" transform="translate(255.664062 0)"/>
     <use xlink:href="#Inter-Bold-65" transform="translate(314.501953 0)"/>
     <use xlink:href="#Inter-Bold-20" transform="translate(374.072266 0)"/>
     <use xlink:href="#Inter-Bold-54" transform="translate(397.753906 0)"/>
     <use xlink:href="#Inter-Bold-49" transform="translate(464.501953 0)"/>
     <use xlink:href="#Inter-Bold-4d" transform="translate(492.578125 0)"/>
     <use xlink:href="#Inter-Bold-20" transform="translate(585.742188 0)"/>
     <use xlink:href="#Inter-Bold-d7" transform="translate(609.423828 0)"/>
     <use xlink:href="#Inter-Bold-20" transform="translate(677.294922 0)"/>
     <use xlink:href="#Inter-Bold-44" transform="translate(700.976562 0)"/>
     <use xlink:href="#Inter-Bold-49" transform="translate(773.193359 0)"/>
     <use xlink:href="#Inter-Bold-43" transform="translate(801.269531 0)"/>
     <use xlink:href="#Inter-Bold-52" transform="translate(875.244141 0)"/>
     <use xlink:href="#Inter-Bold-49" transform="translate(940.917969 0)"/>
     <use xlink:href="#Inter-Bold-4d" transform="translate(968.994141 0)"/>
     <use xlink:href="#Inter-Bold-20" transform="translate(1062.158203 0)"/>
     <use xlink:href="#Inter-Bold-3a" transform="translate(1085.839844 0)"/>
     <use xlink:href="#Inter-Bold-20" transform="translate(1119.238281 0)"/>
     <use xlink:href="#Inter-Bold-31" transform="translate(1142.919922 0)"/>
     <use xlink:href="#Inter-Bold-32" transform="translate(1186.035156 0)"/>
     <use xlink:href="#Inter-Bold-20" transform="translate(1249.023438 0)"/>
     <use xlink:href="#Inter-Bold-33" transform="translate(1272.705078 0)"/>
     <use xlink:href="#Inter-Bold-35" transform="translate(1337.255859 0)"/>
     <use xlink:href="#Inter-Bold-34" transform="translate(1399.462891 0)"/>
     <use xlink:href="#Inter-Bold-20" transform="translate(1467.089844 0)"/>
     <use xlink:href="#Inter-Bold-63" transform="translate(1490.771484 0)"/>
     <use xlink:href="#Inter-Bold-6f" transform="translate(1549.609375 0)"/>
     <use xlink:href="#Inter-Bold-6d" transform="translate(1610.9375 0)"/>
     <use xlink:href="#Inter-Bold-6d" transform="translate(1702.197266 0)"/>
     <use xlink:href="#Inter-Bold-75" transform="translate(1793.457031 0)"/>
     <use xlink:href="#Inter-Bold-6e" transform="translate(1855.712891 0)"/>
     <use xlink:href="#Inter-Bold-65" transform="translate(1917.96875 0)"/>
     <use xlink:href="#Inter-Bold-73" transform="translate(1977.539062 0)"/>
     <use xlink:href="#Inter-Bold-20" transform="translate(2033.544922 0)"/>
     <use xlink:href="#Inter-Bold-52" transform="translate(2057.226562 0)"/>
     <use xlink:href="#Inter-Bold-47" transform="translate(2122.900391 0)"/>
     <use xlink:href="#Inter-Bold-41" transform="translate(2197.949219 0)"/>
    </g>
   </g>
  </g>
  <g id="text_19">
   <!-- TIM = Transmission de l'Information aux Maires (acte préfectoral).  DICRIM = Document d'Information Communal sur les Risques Majeurs. -->
   <g style="fill: #a8a29e" transform="translate(21.6 490.152035) scale(0.09 -0.09)">
    <defs>
     <path id="Inter-Regular-3d" d="M 706 884 
L 706 1403 
L 3531 1403 
L 3531 884 
L 706 884 
z
M 706 2241 
L 706 2759 
L 3531 2759 
L 3531 2241 
L 706 2241 
z
" transform="scale(0.015625)"/>
     <path id="Inter-Regular-6d" d="M 494 0 
L 494 3494 
L 1041 3494 
L 1044 2853 
Q 1172 3206 1442 3381 
Q 1713 3556 2022 3556 
Q 2366 3556 2592 3361 
Q 2819 3166 2913 2844 
Q 3038 3175 3336 3365 
Q 3634 3556 4013 3556 
Q 4316 3556 4566 3425 
Q 4816 3294 4964 3028 
Q 5113 2763 5113 2356 
L 5113 0 
L 4550 0 
L 4550 2341 
Q 4550 2719 4337 2881 
Q 4125 3044 3844 3044 
Q 3491 3044 3287 2828 
Q 3084 2613 3084 2281 
L 3084 0 
L 2522 0 
L 2522 2397 
Q 2522 2688 2328 2866 
Q 2134 3044 1838 3044 
Q 1531 3044 1293 2831 
Q 1056 2619 1056 2200 
L 1056 0 
L 494 0 
z
" transform="scale(0.015625)"/>
     <path id="Inter-Regular-64" d="M 1803 -75 
Q 1369 -75 1034 147 
Q 700 369 512 775 
Q 325 1181 325 1738 
Q 325 2291 514 2695 
Q 703 3100 1037 3319 
Q 1372 3538 1806 3538 
Q 2147 3538 2347 3425 
Q 2547 3313 2655 3170 
Q 2763 3028 2819 2934 
L 2863 2934 
L 2863 4656 
L 3425 4656 
L 3425 0 
L 2881 0 
L 2881 541 
L 2819 541 
Q 2763 444 2652 298 
Q 2541 153 2339 39 
Q 2138 -75 1803 -75 
z
M 1888 428 
Q 2363 428 2616 793 
Q 2869 1159 2869 1744 
Q 2869 2322 2620 2678 
Q 2372 3034 1888 3034 
Q 1556 3034 1336 2862 
Q 1116 2691 1006 2398 
Q 897 2106 897 1744 
Q 897 1378 1008 1079 
Q 1119 781 1341 604 
Q 1563 428 1888 428 
z
" transform="scale(0.015625)"/>
     <path id="Inter-Regular-66" d="M 2119 3494 
L 2119 3013 
L 1313 3013 
L 1313 0 
L 750 0 
L 750 3013 
L 63 3013 
L 63 3494 
L 750 3494 
L 750 3959 
Q 750 4263 892 4466 
Q 1034 4669 1262 4772 
Q 1491 4875 1744 4875 
Q 1944 4875 2075 4842 
Q 2206 4809 2269 4781 
L 2113 4300 
Q 2069 4316 1998 4334 
Q 1928 4353 1809 4353 
Q 1550 4353 1431 4220 
Q 1313 4088 1313 3834 
L 1313 3494 
L 2119 3494 
z
" transform="scale(0.015625)"/>
     <path id="Inter-Regular-78" d="M 203 0 
L 1431 1794 
L 275 3494 
L 931 3494 
L 1366 2816 
Q 1484 2628 1579 2461 
Q 1675 2294 1766 2134 
Q 1850 2294 1937 2461 
Q 2025 2628 2147 2816 
L 2591 3494 
L 3234 3494 
L 2066 1763 
L 3291 0 
L 2638 0 
L 2125 784 
Q 2009 963 1918 1123 
Q 1828 1284 1741 1431 
Q 1659 1284 1575 1123 
Q 1491 963 1372 784 
L 853 0 
L 203 0 
z
" transform="scale(0.015625)"/>
     <path id="Inter-Regular-2e" d="M 922 -41 
Q 747 -41 623 82 
Q 500 206 500 381 
Q 500 556 623 679 
Q 747 803 922 803 
Q 1097 803 1220 679 
Q 1344 556 1344 381 
Q 1344 206 1220 82 
Q 1097 -41 922 -41 
z
" transform="scale(0.015625)"/>
     <path id="Inter-Regular-44" d="M 2016 0 
L 563 0 
L 563 4656 
L 2075 4656 
Q 2756 4656 3239 4378 
Q 3722 4100 3980 3579 
Q 4238 3059 4238 2338 
Q 4238 1609 3978 1086 
Q 3719 563 3222 281 
Q 2725 0 2016 0 
z
M 1156 525 
L 1978 525 
Q 2828 525 3245 1008 
Q 3663 1491 3663 2338 
Q 3663 3178 3253 3654 
Q 2844 4131 2034 4131 
L 1156 4131 
L 1156 525 
z
" transform="scale(0.015625)"/>
     <path id="Inter-Regular-43" d="M 2447 -63 
Q 1850 -63 1383 226 
Q 916 516 648 1052 
Q 381 1588 381 2325 
Q 381 3066 648 3602 
Q 916 4138 1383 4428 
Q 1850 4719 2447 4719 
Q 2919 4719 3314 4536 
Q 3709 4353 3976 4012 
Q 4244 3672 4325 3191 
L 3731 3191 
Q 3666 3509 3477 3728 
Q 3288 3947 3019 4058 
Q 2750 4169 2447 4169 
Q 2028 4169 1690 3956 
Q 1353 3744 1156 3333 
Q 959 2922 959 2325 
Q 959 1731 1157 1320 
Q 1356 909 1693 698 
Q 2031 488 2447 488 
Q 2753 488 3020 600 
Q 3288 713 3477 931 
Q 3666 1150 3731 1466 
L 4325 1466 
Q 4244 994 3980 650 
Q 3716 306 3320 121 
Q 2925 -63 2447 -63 
z
" transform="scale(0.015625)"/>
     <path id="Inter-Regular-52" d="M 563 0 
L 563 4656 
L 2156 4656 
Q 2700 4656 3051 4470 
Q 3403 4284 3573 3959 
Q 3744 3634 3744 3219 
Q 3744 2756 3533 2412 
Q 3322 2069 2881 1916 
L 3925 0 
L 3238 0 
L 2269 1809 
Q 2216 1806 2159 1806 
L 1156 1806 
L 1156 0 
L 563 0 
z
M 1156 2334 
L 2131 2334 
Q 2681 2334 2917 2571 
Q 3153 2809 3153 3219 
Q 3153 3634 2917 3884 
Q 2681 4134 2125 4134 
L 1156 4134 
L 1156 2334 
z
" transform="scale(0.015625)"/>
     <path id="Inter-Regular-71" d="M 3425 -1306 
L 2863 -1306 
L 2863 541 
L 2819 541 
Q 2763 444 2652 298 
Q 2541 153 2339 39 
Q 2138 -75 1803 -75 
Q 1369 -75 1034 147 
Q 700 369 512 775 
Q 325 1181 325 1738 
Q 325 2291 514 2695 
Q 703 3100 1037 3319 
Q 1372 3538 1806 3538 
Q 2147 3538 2347 3425 
Q 2547 3313 2655 3170 
Q 2763 3028 2819 2934 
L 2881 2934 
L 2881 3494 
L 3425 3494 
L 3425 -1306 
z
M 1888 428 
Q 2363 428 2616 793 
Q 2869 1159 2869 1744 
Q 2869 2322 2620 2678 
Q 2372 3034 1888 3034 
Q 1556 3034 1336 2862 
Q 1116 2691 1006 2398 
Q 897 2106 897 1744 
Q 897 1378 1008 1079 
Q 1119 781 1341 604 
Q 1563 428 1888 428 
z
" transform="scale(0.015625)"/>
     <path id="Inter-Regular-6a" d="M 491 3494 
L 1056 3494 
L 1056 -250 
Q 1059 -750 800 -1028 
Q 541 -1306 31 -1306 
L -81 -1306 
L -81 -788 
L 22 -788 
Q 491 -788 491 -250 
L 491 3494 
z
M 772 4066 
Q 613 4066 497 4175 
Q 381 4284 381 4438 
Q 381 4594 497 4701 
Q 613 4809 772 4809 
Q 934 4809 1050 4701 
Q 1166 4594 1166 4438 
Q 1166 4284 1050 4175 
Q 934 4066 772 4066 
z
" transform="scale(0.015625)"/>
    </defs>
    <use xlink:href="#Inter-Regular-54"/>
    <use xlink:href="#Inter-Regular-49" transform="translate(64.550781 0)"/>
    <use xlink:href="#Inter-Regular-4d" transform="translate(91.40625 0)"/>
    <use xlink:href="#Inter-Regular-20" transform="translate(181.738281 0)"/>
    <use xlink:href="#Inter-Regular-3d" transform="translate(209.863281 0)"/>
    <use xlink:href="#Inter-Regular-20" transform="translate(276.025391 0)"/>
    <use xlink:href="#Inter-Regular-54" transform="translate(304.150391 0)"/>
    <use xlink:href="#Inter-Regular-72" transform="translate(368.701172 0)"/>
    <use xlink:href="#Inter-Regular-61" transform="translate(406.347656 0)"/>
    <use xlink:href="#Inter-Regular-6e" transform="translate(462.5 0)"/>
    <use xlink:href="#Inter-Regular-73" transform="translate(521.582031 0)"/>
    <use xlink:href="#Inter-Regular-6d" transform="translate(574.365234 0)"/>
    <use xlink:href="#Inter-Regular-69" transform="translate(661.962891 0)"/>
    <use xlink:href="#Inter-Regular-73" transform="translate(686.181641 0)"/>
    <use xlink:href="#Inter-Regular-73" transform="translate(738.964844 0)"/>
    <use xlink:href="#Inter-Regular-69" transform="translate(791.748047 0)"/>
    <use xlink:href="#Inter-Regular-6f" transform="translate(815.966797 0)"/>
    <use xlink:href="#Inter-Regular-6e" transform="translate(875.927734 0)"/>
    <use xlink:href="#Inter-Regular-20" transform="translate(935.009766 0)"/>
    <use xlink:href="#Inter-Regular-64" transform="translate(963.134766 0)"/>
    <use xlink:href="#Inter-Regular-65" transform="translate(1024.365234 0)"/>
    <use xlink:href="#Inter-Regular-20" transform="translate(1082.666016 0)"/>
    <use xlink:href="#Inter-Regular-6c" transform="translate(1110.791016 0)"/>
    <use xlink:href="#Inter-Regular-27" transform="translate(1135.009766 0)"/>
    <use xlink:href="#Inter-Regular-49" transform="translate(1164.990234 0)"/>
    <use xlink:href="#Inter-Regular-6e" transform="translate(1191.845703 0)"/>
    <use xlink:href="#Inter-Regular-66" transform="translate(1250.927734 0)"/>
    <use xlink:href="#Inter-Regular-6f" transform="translate(1287.939453 0)"/>
    <use xlink:href="#Inter-Regular-72" transform="translate(1347.900391 0)"/>
    <use xlink:href="#Inter-Regular-6d" transform="translate(1385.546875 0)"/>
    <use xlink:href="#Inter-Regular-61" transform="translate(1473.144531 0)"/>
    <use xlink:href="#Inter-Regular-74" transform="translate(1529.296875 0)"/>
    <use xlink:href="#Inter-Regular-69" transform="translate(1562.011719 0)"/>
    <use xlink:href="#Inter-Regular-6f" transform="translate(1586.230469 0)"/>
    <use xlink:href="#Inter-Regular-6e" transform="translate(1646.191406 0)"/>
    <use xlink:href="#Inter-Regular-20" transform="translate(1705.273438 0)"/>
    <use xlink:href="#Inter-Regular-61" transform="translate(1733.398438 0)"/>
    <use xlink:href="#Inter-Regular-75" transform="translate(1789.550781 0)"/>
    <use xlink:href="#Inter-Regular-78" transform="translate(1848.681641 0)"/>
    <use xlink:href="#Inter-Regular-20" transform="translate(1903.271484 0)"/>
    <use xlink:href="#Inter-Regular-4d" transform="translate(1931.396484 0)"/>
    <use xlink:href="#Inter-Regular-61" transform="translate(2021.728516 0)"/>
    <use xlink:href="#Inter-Regular-69" transform="translate(2077.880859 0)"/>
    <use xlink:href="#Inter-Regular-72" transform="translate(2102.099609 0)"/>
    <use xlink:href="#Inter-Regular-65" transform="translate(2139.746094 0)"/>
    <use xlink:href="#Inter-Regular-73" transform="translate(2198.046875 0)"/>
    <use xlink:href="#Inter-Regular-20" transform="translate(2250.830078 0)"/>
    <use xlink:href="#Inter-Regular-28" transform="translate(2278.955078 0)"/>
    <use xlink:href="#Inter-Regular-61" transform="translate(2315.429688 0)"/>
    <use xlink:href="#Inter-Regular-63" transform="translate(2371.582031 0)"/>
    <use xlink:href="#Inter-Regular-74" transform="translate(2428.710938 0)"/>
    <use xlink:href="#Inter-Regular-65" transform="translate(2461.425781 0)"/>
    <use xlink:href="#Inter-Regular-20" transform="translate(2519.726562 0)"/>
    <use xlink:href="#Inter-Regular-70" transform="translate(2547.851562 0)"/>
    <use xlink:href="#Inter-Regular-72" transform="translate(2609.082031 0)"/>
    <use xlink:href="#Inter-Regular-e9" transform="translate(2646.728516 0)"/>
    <use xlink:href="#Inter-Regular-66" transform="translate(2705.029297 0)"/>
    <use xlink:href="#Inter-Regular-65" transform="translate(2742.041016 0)"/>
    <use xlink:href="#Inter-Regular-63" transform="translate(2800.341797 0)"/>
    <use xlink:href="#Inter-Regular-74" transform="translate(2857.470703 0)"/>
    <use xlink:href="#Inter-Regular-6f" transform="translate(2890.185547 0)"/>
    <use xlink:href="#Inter-Regular-72" transform="translate(2950.146484 0)"/>
    <use xlink:href="#Inter-Regular-61" transform="translate(2987.792969 0)"/>
    <use xlink:href="#Inter-Regular-6c" transform="translate(3043.945312 0)"/>
    <use xlink:href="#Inter-Regular-29" transform="translate(3068.164062 0)"/>
    <use xlink:href="#Inter-Regular-2e" transform="translate(3104.638672 0)"/>
    <use xlink:href="#Inter-Regular-20" transform="translate(3133.447266 0)"/>
    <use xlink:href="#Inter-Regular-20" transform="translate(3161.572266 0)"/>
    <use xlink:href="#Inter-Regular-44" transform="translate(3189.697266 0)"/>
    <use xlink:href="#Inter-Regular-49" transform="translate(3261.865234 0)"/>
    <use xlink:href="#Inter-Regular-43" transform="translate(3288.720703 0)"/>
    <use xlink:href="#Inter-Regular-52" transform="translate(3361.767578 0)"/>
    <use xlink:href="#Inter-Regular-49" transform="translate(3426.123047 0)"/>
    <use xlink:href="#Inter-Regular-4d" transform="translate(3452.978516 0)"/>
    <use xlink:href="#Inter-Regular-20" transform="translate(3543.310547 0)"/>
    <use xlink:href="#Inter-Regular-3d" transform="translate(3571.435547 0)"/>
    <use xlink:href="#Inter-Regular-20" transform="translate(3637.597656 0)"/>
    <use xlink:href="#Inter-Regular-44" transform="translate(3665.722656 0)"/>
    <use xlink:href="#Inter-Regular-6f" transform="translate(3737.890625 0)"/>
    <use xlink:href="#Inter-Regular-63" transform="translate(3797.851562 0)"/>
    <use xlink:href="#Inter-Regular-75" transform="translate(3854.980469 0)"/>
    <use xlink:href="#Inter-Regular-6d" transform="translate(3914.111328 0)"/>
    <use xlink:href="#Inter-Regular-65" transform="translate(4001.708984 0)"/>
    <use xlink:href="#Inter-Regular-6e" transform="translate(4060.009766 0)"/>
    <use xlink:href="#Inter-Regular-74" transform="translate(4119.091797 0)"/>
    <use xlink:href="#Inter-Regular-20" transform="translate(4151.806641 0)"/>
    <use xlink:href="#Inter-Regular-64" transform="translate(4179.931641 0)"/>
    <use xlink:href="#Inter-Regular-27" transform="translate(4241.162109 0)"/>
    <use xlink:href="#Inter-Regular-49" transform="translate(4271.142578 0)"/>
    <use xlink:href="#Inter-Regular-6e" transform="translate(4297.998047 0)"/>
    <use xlink:href="#Inter-Regular-66" transform="translate(4357.080078 0)"/>
    <use xlink:href="#Inter-Regular-6f" transform="translate(4394.091797 0)"/>
    <use xlink:href="#Inter-Regular-72" transform="translate(4454.052734 0)"/>
    <use xlink:href="#Inter-Regular-6d" transform="translate(4491.699219 0)"/>
    <use xlink:href="#Inter-Regular-61" transform="translate(4579.296875 0)"/>
    <use xlink:href="#Inter-Regular-74" transform="translate(4635.449219 0)"/>
    <use xlink:href="#Inter-Regular-69" transform="translate(4668.164062 0)"/>
    <use xlink:href="#Inter-Regular-6f" transform="translate(4692.382812 0)"/>
    <use xlink:href="#Inter-Regular-6e" transform="translate(4752.34375 0)"/>
    <use xlink:href="#Inter-Regular-20" transform="translate(4811.425781 0)"/>
    <use xlink:href="#Inter-Regular-43" transform="translate(4839.550781 0)"/>
    <use xlink:href="#Inter-Regular-6f" transform="translate(4912.597656 0)"/>
    <use xlink:href="#Inter-Regular-6d" transform="translate(4972.558594 0)"/>
    <use xlink:href="#Inter-Regular-6d" transform="translate(5060.15625 0)"/>
    <use xlink:href="#Inter-Regular-75" transform="translate(5147.753906 0)"/>
    <use xlink:href="#Inter-Regular-6e" transform="translate(5206.884766 0)"/>
    <use xlink:href="#Inter-Regular-61" transform="translate(5265.966797 0)"/>
    <use xlink:href="#Inter-Regular-6c" transform="translate(5322.119141 0)"/>
    <use xlink:href="#Inter-Regular-20" transform="translate(5346.337891 0)"/>
    <use xlink:href="#Inter-Regular-73" transform="translate(5374.462891 0)"/>
    <use xlink:href="#Inter-Regular-75" transform="translate(5427.246094 0)"/>
    <use xlink:href="#Inter-Regular-72" transform="translate(5486.376953 0)"/>
    <use xlink:href="#Inter-Regular-20" transform="translate(5524.023438 0)"/>
    <use xlink:href="#Inter-Regular-6c" transform="translate(5552.148438 0)"/>
    <use xlink:href="#Inter-Regular-65" transform="translate(5576.367188 0)"/>
    <use xlink:href="#Inter-Regular-73" transform="translate(5634.667969 0)"/>
    <use xlink:href="#Inter-Regular-20" transform="translate(5687.451172 0)"/>
    <use xlink:href="#Inter-Regular-52" transform="translate(5715.576172 0)"/>
    <use xlink:href="#Inter-Regular-69" transform="translate(5779.931641 0)"/>
    <use xlink:href="#Inter-Regular-73" transform="translate(5804.150391 0)"/>
    <use xlink:href="#Inter-Regular-71" transform="translate(5856.933594 0)"/>
    <use xlink:href="#Inter-Regular-75" transform="translate(5918.164062 0)"/>
    <use xlink:href="#Inter-Regular-65" transform="translate(5977.294922 0)"/>
    <use xlink:href="#Inter-Regular-73" transform="translate(6035.595703 0)"/>
    <use xlink:href="#Inter-Regular-20" transform="translate(6088.378906 0)"/>
    <use xlink:href="#Inter-Regular-4d" transform="translate(6116.503906 0)"/>
    <use xlink:href="#Inter-Regular-61" transform="translate(6206.835938 0)"/>
    <use xlink:href="#Inter-Regular-6a" transform="translate(6262.988281 0)"/>
    <use xlink:href="#Inter-Regular-65" transform="translate(6287.207031 0)"/>
    <use xlink:href="#Inter-Regular-75" transform="translate(6345.507812 0)"/>
    <use xlink:href="#Inter-Regular-72" transform="translate(6404.638672 0)"/>
    <use xlink:href="#Inter-Regular-73" transform="translate(6442.285156 0)"/>
    <use xlink:href="#Inter-Regular-2e" transform="translate(6495.068359 0)"/>
   </g>
  </g>
  <g id="text_20">
   <!-- Source : GASPAR (tables risq + dicrim + tim, déc. 2025). Tawiza -->
   <g style="fill: #a8a29e" transform="translate(171.331875 539.112035) scale(0.095 -0.095)">
    <defs>
     <path id="Inter-Regular-53" d="M 2053 -81 
Q 1297 -81 850 276 
Q 403 634 363 1219 
L 972 1219 
Q 997 956 1150 786 
Q 1303 616 1542 533 
Q 1781 450 2053 450 
Q 2369 450 2620 553 
Q 2872 656 3019 843 
Q 3166 1031 3166 1278 
Q 3166 1503 3039 1643 
Q 2913 1784 2703 1875 
Q 2494 1966 2244 2034 
L 1681 2194 
Q 1119 2353 806 2650 
Q 494 2947 494 3409 
Q 494 3803 706 4098 
Q 919 4394 1281 4556 
Q 1644 4719 2094 4719 
Q 2553 4719 2906 4556 
Q 3259 4394 3464 4114 
Q 3669 3834 3681 3481 
L 3100 3481 
Q 3059 3822 2775 4008 
Q 2491 4194 2075 4194 
Q 1622 4194 1347 3980 
Q 1072 3766 1072 3438 
Q 1072 3194 1223 3045 
Q 1375 2897 1583 2814 
Q 1791 2731 1959 2684 
L 2425 2556 
Q 2613 2506 2839 2418 
Q 3066 2331 3272 2186 
Q 3478 2041 3611 1817 
Q 3744 1594 3744 1269 
Q 3744 888 3545 581 
Q 3347 275 2969 97 
Q 2591 -81 2053 -81 
z
" transform="scale(0.015625)"/>
     <path id="Inter-Regular-3a" d="M 922 -41 
Q 747 -41 623 82 
Q 500 206 500 381 
Q 500 556 623 679 
Q 747 803 922 803 
Q 1097 803 1220 679 
Q 1344 556 1344 381 
Q 1344 206 1220 82 
Q 1097 -41 922 -41 
z
M 922 2519 
Q 747 2519 623 2642 
Q 500 2766 500 2941 
Q 500 3116 623 3239 
Q 747 3363 922 3363 
Q 1097 3363 1220 3239 
Q 1344 3116 1344 2941 
Q 1344 2766 1220 2642 
Q 1097 2519 922 2519 
z
" transform="scale(0.015625)"/>
     <path id="Inter-Regular-47" d="M 2466 -63 
Q 1844 -63 1375 228 
Q 906 519 643 1055 
Q 381 1591 381 2325 
Q 381 3066 643 3602 
Q 906 4138 1368 4428 
Q 1831 4719 2428 4719 
Q 2922 4719 3323 4526 
Q 3725 4334 3990 3992 
Q 4256 3650 4341 3197 
L 3728 3197 
Q 3584 3644 3254 3906 
Q 2925 4169 2431 4169 
Q 2022 4169 1687 3958 
Q 1353 3747 1156 3336 
Q 959 2925 959 2325 
Q 959 1731 1157 1322 
Q 1356 913 1697 700 
Q 2038 488 2466 488 
Q 2853 488 3150 650 
Q 3447 813 3617 1113 
Q 3788 1413 3794 1822 
L 2588 1822 
L 2588 2341 
L 4375 2341 
L 4375 1831 
Q 4375 1253 4128 828 
Q 3881 403 3451 170 
Q 3022 -63 2466 -63 
z
" transform="scale(0.015625)"/>
     <path id="Inter-Regular-41" d="M 163 0 
L 1853 4656 
L 2541 4656 
L 4253 0 
L 3628 0 
L 3163 1300 
L 1244 1300 
L 794 0 
L 163 0 
z
M 1425 1819 
L 2978 1819 
L 2641 2763 
Q 2556 2997 2450 3336 
Q 2344 3675 2194 4181 
Q 2047 3666 1937 3322 
Q 1828 2978 1753 2763 
L 1425 1819 
z
" transform="scale(0.015625)"/>
     <path id="Inter-Regular-50" d="M 563 0 
L 563 4656 
L 2156 4656 
Q 2700 4656 3051 4457 
Q 3403 4259 3573 3925 
Q 3744 3591 3744 3175 
Q 3744 2759 3573 2421 
Q 3403 2084 3053 1884 
Q 2703 1684 2159 1684 
L 1156 1684 
L 1156 0 
L 563 0 
z
M 1156 2206 
L 2131 2206 
Q 2684 2206 2918 2482 
Q 3153 2759 3153 3175 
Q 3153 3588 2918 3861 
Q 2684 4134 2125 4134 
L 1156 4134 
L 1156 2206 
z
" transform="scale(0.015625)"/>
     <path id="Inter-Regular-2b" d="M 1853 313 
L 1853 1575 
L 609 1575 
L 609 2072 
L 1853 2072 
L 1853 3331 
L 2381 3331 
L 2381 2072 
L 3625 2072 
L 3625 1575 
L 2381 1575 
L 2381 313 
L 1853 313 
z
" transform="scale(0.015625)"/>
     <path id="Inter-Regular-2c" d="M 404 -1148 
L 679 624 
L 1323 624 
L 835 -1148 
L 404 -1148 
z
" transform="scale(0.015625)"/>
     <path id="Inter-Regular-77" d="M 1278 0 
L 219 3494 
L 816 3494 
L 1241 1969 
Q 1316 1697 1403 1358 
Q 1491 1019 1575 603 
Q 1659 1003 1742 1340 
Q 1825 1678 1906 1969 
L 2325 3494 
L 2925 3494 
L 3338 1969 
Q 3413 1688 3495 1352 
Q 3578 1016 3659 613 
Q 3747 1013 3833 1348 
Q 3919 1684 3997 1969 
L 4422 3494 
L 5019 3494 
L 3959 0 
L 3400 0 
L 2947 1581 
Q 2859 1881 2779 2200 
Q 2700 2519 2619 2853 
Q 2541 2519 2458 2197 
Q 2375 1875 2291 1581 
L 1838 0 
L 1278 0 
z
" transform="scale(0.015625)"/>
     <path id="Inter-Regular-7a" d="M 394 0 
L 394 419 
L 2353 2938 
L 2353 2972 
L 456 2972 
L 456 3494 
L 3078 3494 
L 3078 3047 
L 1175 556 
L 1175 522 
L 3141 522 
L 3141 0 
L 394 0 
z
" transform="scale(0.015625)"/>
    </defs>
    <use xlink:href="#Inter-Regular-53"/>
    <use xlink:href="#Inter-Regular-6f" transform="translate(64.160156 0)"/>
    <use xlink:href="#Inter-Regular-75" transform="translate(124.121094 0)"/>
    <use xlink:href="#Inter-Regular-72" transform="translate(183.251953 0)"/>
    <use xlink:href="#Inter-Regular-63" transform="translate(220.898438 0)"/>
    <use xlink:href="#Inter-Regular-65" transform="translate(278.027344 0)"/>
    <use xlink:href="#Inter-Regular-20" transform="translate(336.328125 0)"/>
    <use xlink:href="#Inter-Regular-3a" transform="translate(364.453125 0)"/>
    <use xlink:href="#Inter-Regular-20" transform="translate(393.261719 0)"/>
    <use xlink:href="#Inter-Regular-47" transform="translate(421.386719 0)"/>
    <use xlink:href="#Inter-Regular-41" transform="translate(495.996094 0)"/>
    <use xlink:href="#Inter-Regular-53" transform="translate(564.990234 0)"/>
    <use xlink:href="#Inter-Regular-50" transform="translate(629.150391 0)"/>
    <use xlink:href="#Inter-Regular-41" transform="translate(693.017578 0)"/>
    <use xlink:href="#Inter-Regular-52" transform="translate(762.011719 0)"/>
    <use xlink:href="#Inter-Regular-20" transform="translate(826.367188 0)"/>
    <use xlink:href="#Inter-Regular-28" transform="translate(854.492188 0)"/>
    <use xlink:href="#Inter-Regular-74" transform="translate(890.966797 0)"/>
    <use xlink:href="#Inter-Regular-61" transform="translate(923.681641 0)"/>
    <use xlink:href="#Inter-Regular-62" transform="translate(979.833984 0)"/>
    <use xlink:href="#Inter-Regular-6c" transform="translate(1041.064453 0)"/>
    <use xlink:href="#Inter-Regular-65" transform="translate(1065.283203 0)"/>
    <use xlink:href="#Inter-Regular-73" transform="translate(1123.583984 0)"/>
    <use xlink:href="#Inter-Regular-20" transform="translate(1176.367188 0)"/>
    <use xlink:href="#Inter-Regular-72" transform="translate(1204.492188 0)"/>
    <use xlink:href="#Inter-Regular-69" transform="translate(1242.138672 0)"/>
    <use xlink:href="#Inter-Regular-73" transform="translate(1266.357422 0)"/>
    <use xlink:href="#Inter-Regular-71" transform="translate(1319.140625 0)"/>
    <use xlink:href="#Inter-Regular-20" transform="translate(1380.371094 0)"/>
    <use xlink:href="#Inter-Regular-2b" transform="translate(1408.496094 0)"/>
    <use xlink:href="#Inter-Regular-20" transform="translate(1474.658203 0)"/>
    <use xlink:href="#Inter-Regular-64" transform="translate(1502.783203 0)"/>
    <use xlink:href="#Inter-Regular-69" transform="translate(1564.013672 0)"/>
    <use xlink:href="#Inter-Regular-63" transform="translate(1588.232422 0)"/>
    <use xlink:href="#Inter-Regular-72" transform="translate(1645.361328 0)"/>
    <use xlink:href="#Inter-Regular-69" transform="translate(1683.007812 0)"/>
    <use xlink:href="#Inter-Regular-6d" transform="translate(1707.226562 0)"/>
    <use xlink:href="#Inter-Regular-20" transform="translate(1794.824219 0)"/>
    <use xlink:href="#Inter-Regular-2b" transform="translate(1822.949219 0)"/>
    <use xlink:href="#Inter-Regular-20" transform="translate(1889.111328 0)"/>
    <use xlink:href="#Inter-Regular-74" transform="translate(1917.236328 0)"/>
    <use xlink:href="#Inter-Regular-69" transform="translate(1949.951172 0)"/>
    <use xlink:href="#Inter-Regular-6d" transform="translate(1974.169922 0)"/>
    <use xlink:href="#Inter-Regular-2c" transform="translate(2061.767578 0)"/>
    <use xlink:href="#Inter-Regular-20" transform="translate(2090.576172 0)"/>
    <use xlink:href="#Inter-Regular-64" transform="translate(2118.701172 0)"/>
    <use xlink:href="#Inter-Regular-e9" transform="translate(2179.931641 0)"/>
    <use xlink:href="#Inter-Regular-63" transform="translate(2238.232422 0)"/>
    <use xlink:href="#Inter-Regular-2e" transform="translate(2295.361328 0)"/>
    <use xlink:href="#Inter-Regular-20" transform="translate(2324.169922 0)"/>
    <use xlink:href="#Inter-Regular-32" transform="translate(2352.294922 0)"/>
    <use xlink:href="#Inter-Regular-30" transform="translate(2413.28125 0)"/>
    <use xlink:href="#Inter-Regular-32" transform="translate(2476.367188 0)"/>
    <use xlink:href="#Inter-Regular-35" transform="translate(2537.353516 0)"/>
    <use xlink:href="#Inter-Regular-29" transform="translate(2596.679688 0)"/>
    <use xlink:href="#Inter-Regular-2e" transform="translate(2633.154297 0)"/>
    <use xlink:href="#Inter-Regular-20" transform="translate(2661.962891 0)"/>
    <use xlink:href="#Inter-Regular-54" transform="translate(2690.087891 0)"/>
    <use xlink:href="#Inter-Regular-61" transform="translate(2754.638672 0)"/>
    <use xlink:href="#Inter-Regular-77" transform="translate(2810.791016 0)"/>
    <use xlink:href="#Inter-Regular-69" transform="translate(2892.626953 0)"/>
    <use xlink:href="#Inter-Regular-7a" transform="translate(2916.845703 0)"/>
    <use xlink:href="#Inter-Regular-61" transform="translate(2972.070312 0)"/>
   </g>
  </g>
 </g>
 <defs>
  <clipPath id="p98950c8ea3">
   <rect x="38.692266" y="50.5125" width="570.24" height="371.31907"/>
  </clipPath>
 </defs>
</svg>
